<svg width="20" height="20" viewBox="0 0 20 20" fill="none" xmlns="http://www.w3.org/2000/svg">
<path d="M15.5286 14.2323L19.4547 18.1575L18.1576 19.4545L14.2324 15.5285C12.7719 16.6992 10.9553 17.336 9.0835 17.3334C4.5295 17.3334 0.833496 13.6374 0.833496 9.08337C0.833496 4.52937 4.5295 0.833374 9.0835 0.833374C13.6375 0.833374 17.3335 4.52937 17.3335 9.08337C17.3362 10.9552 16.6994 12.7718 15.5286 14.2323ZM13.6897 13.5521C14.8531 12.3558 15.5028 10.7521 15.5002 9.08337C15.5002 5.53771 12.6282 2.66671 9.0835 2.66671C5.53783 2.66671 2.66683 5.53771 2.66683 9.08337C2.66683 12.6281 5.53783 15.5 9.0835 15.5C10.7522 15.5027 12.3559 14.853 13.5522 13.6896L13.6897 13.5521Z" fill="#969696"/>
</svg>
