<svg width="34" height="35" viewBox="0 0 34 35" fill="none" xmlns="http://www.w3.org/2000/svg">
<path d="M16.9997 34.1667C7.79468 34.1667 0.333008 26.705 0.333008 17.5C0.333008 8.29504 7.79468 0.833374 16.9997 0.833374C26.2047 0.833374 33.6663 8.29504 33.6663 17.5C33.6663 26.705 26.2047 34.1667 16.9997 34.1667ZM16.9997 30.8334C20.5359 30.8334 23.9273 29.4286 26.4278 26.9281C28.9283 24.4276 30.333 21.0363 30.333 17.5C30.333 13.9638 28.9283 10.5724 26.4278 8.07195C23.9273 5.57147 20.5359 4.16671 16.9997 4.16671C13.4635 4.16671 10.0721 5.57147 7.57158 8.07195C5.0711 10.5724 3.66634 13.9638 3.66634 17.5C3.66634 21.0363 5.0711 24.4276 7.57158 26.9281C10.0721 29.4286 13.4635 30.8334 16.9997 30.8334V30.8334ZM11.1663 20.8334H20.333C20.554 20.8334 20.766 20.7456 20.9223 20.5893C21.0785 20.433 21.1663 20.2211 21.1663 20C21.1663 19.779 21.0785 19.5671 20.9223 19.4108C20.766 19.2545 20.554 19.1667 20.333 19.1667H13.6663C12.5613 19.1667 11.5015 18.7277 10.7201 17.9463C9.93866 17.1649 9.49967 16.1051 9.49967 15C9.49967 13.895 9.93866 12.8352 10.7201 12.0538C11.5015 11.2724 12.5613 10.8334 13.6663 10.8334H15.333V7.50004H18.6663V10.8334H22.833V14.1667H13.6663C13.4453 14.1667 13.2334 14.2545 13.0771 14.4108C12.9208 14.5671 12.833 14.779 12.833 15C12.833 15.2211 12.9208 15.433 13.0771 15.5893C13.2334 15.7456 13.4453 15.8334 13.6663 15.8334H20.333C21.4381 15.8334 22.4979 16.2724 23.2793 17.0538C24.0607 17.8352 24.4997 18.895 24.4997 20C24.4997 21.1051 24.0607 22.1649 23.2793 22.9463C22.4979 23.7277 21.4381 24.1667 20.333 24.1667H18.6663V27.5H15.333V24.1667H11.1663V20.8334Z" fill="white"/>
</svg>
