<svg width="40" height="41" viewBox="0 0 40 41" fill="none" xmlns="http://www.w3.org/2000/svg">
<path d="M21.6667 32.1666H31.6667V17.13L20 8.05663L8.33333 17.13V32.1666H18.3333V22.1666H21.6667V32.1666ZM35 33.8333C35 34.2753 34.8244 34.6993 34.5118 35.0118C34.1993 35.3244 33.7754 35.5 33.3333 35.5H6.66667C6.22464 35.5 5.80072 35.3244 5.48816 35.0118C5.1756 34.6993 5 34.2753 5 33.8333V16.3166C4.99982 16.0627 5.0577 15.812 5.16919 15.5838C5.28069 15.3556 5.44287 15.1559 5.64333 15L18.9767 4.62996C19.2692 4.40237 19.6293 4.27881 20 4.27881C20.3707 4.27881 20.7308 4.40237 21.0233 4.62996L34.3567 15C34.5571 15.1559 34.7193 15.3556 34.8308 15.5838C34.9423 15.812 35.0002 16.0627 35 16.3166V33.8333V33.8333Z" fill="white"/>
</svg>
