<svg width="40" height="41" viewBox="0 0 40 41" fill="none" xmlns="http://www.w3.org/2000/svg">
<path d="M18.333 1.40504C18.883 1.35671 19.438 1.33337 19.9997 1.33337C30.5847 1.33337 39.1663 9.91504 39.1663 20.5C39.1663 21.0617 39.143 21.6167 39.0947 22.1667H36.5847C35.748 30.5884 28.6413 37.1667 19.9997 37.1667C10.7947 37.1667 3.33301 29.705 3.33301 20.5C3.33301 11.8584 9.91134 4.75171 18.333 3.91671V1.40337V1.40504ZM18.333 22.1667V7.27004C14.9709 7.69785 11.8978 9.38982 9.73832 12.0021C7.57888 14.6143 6.49514 17.9508 6.70738 21.3334C6.91961 24.716 8.41189 27.8909 10.8809 30.2127C13.3499 32.5346 16.6104 33.8292 19.9997 33.8334C23.2474 33.8333 26.3834 32.6481 28.8193 30.5C31.2551 28.352 32.8234 25.3889 33.2297 22.1667H18.333ZM35.7463 18.8334C35.3642 15.2299 33.758 11.8664 31.1957 9.30402C28.6334 6.74168 25.2698 5.13547 21.6663 4.75337V18.8334H35.7463Z" fill="white"/>
</svg>
