<svg width="40" height="41" viewBox="0 0 40 41" fill="none" xmlns="http://www.w3.org/2000/svg">
<path d="M19.9997 37.1667C10.7947 37.1667 3.33301 29.705 3.33301 20.5C3.33301 11.295 10.7947 3.83337 19.9997 3.83337C29.2047 3.83337 36.6663 11.295 36.6663 20.5C36.6663 29.705 29.2047 37.1667 19.9997 37.1667ZM19.9997 33.8334C23.5359 33.8334 26.9273 32.4286 29.4278 29.9281C31.9283 27.4276 33.333 24.0363 33.333 20.5C33.333 16.9638 31.9283 13.5724 29.4278 11.072C26.9273 8.57147 23.5359 7.16671 19.9997 7.16671C16.4635 7.16671 13.0721 8.57147 10.5716 11.072C8.0711 13.5724 6.66634 16.9638 6.66634 20.5C6.66634 24.0363 8.0711 27.4276 10.5716 29.9281C13.0721 32.4286 16.4635 33.8334 19.9997 33.8334V33.8334ZM18.333 27.1667H13.333V13.8334H18.333V10.5H21.6663V13.8334H23.333C24.1068 13.8334 24.8653 14.0489 25.5236 14.4557C26.1818 14.8625 26.7137 15.4445 27.0598 16.1367C27.4058 16.8288 27.5523 17.6036 27.4828 18.3742C27.4133 19.1449 27.1306 19.881 26.6663 20.5C27.1306 21.1191 27.4133 21.8552 27.4828 22.6259C27.5523 23.3965 27.4058 24.1713 27.0598 24.8634C26.7137 25.5555 26.1818 26.1376 25.5236 26.5444C24.8653 26.9512 24.1068 27.1667 23.333 27.1667H21.6663V30.5H18.333V27.1667ZM16.6663 22.1667V23.8334H23.333C23.554 23.8334 23.766 23.7456 23.9223 23.5893C24.0785 23.433 24.1663 23.2211 24.1663 23C24.1663 22.779 24.0785 22.5671 23.9223 22.4108C23.766 22.2545 23.554 22.1667 23.333 22.1667H16.6663ZM16.6663 17.1667V18.8334H23.333C23.554 18.8334 23.766 18.7456 23.9223 18.5893C24.0785 18.433 24.1663 18.2211 24.1663 18C24.1663 17.779 24.0785 17.5671 23.9223 17.4108C23.766 17.2545 23.554 17.1667 23.333 17.1667H16.6663Z" fill="white"/>
</svg>
