<svg width="40" height="40" viewBox="0 0 40 40" fill="none" xmlns="http://www.w3.org/2000/svg">
<path d="M19.9997 36.6667C10.7947 36.6667 3.33301 29.205 3.33301 20C3.33301 10.795 10.7947 3.33337 19.9997 3.33337C29.2047 3.33337 36.6663 10.795 36.6663 20C36.6663 29.205 29.2047 36.6667 19.9997 36.6667ZM19.9997 33.3334C23.5359 33.3334 26.9273 31.9286 29.4278 29.4281C31.9283 26.9276 33.333 23.5363 33.333 20C33.333 16.4638 31.9283 13.0724 29.4278 10.572C26.9273 8.07147 23.5359 6.66671 19.9997 6.66671C16.4635 6.66671 13.0721 8.07147 10.5716 10.572C8.0711 13.0724 6.66634 16.4638 6.66634 20C6.66634 23.5363 8.0711 26.9276 10.5716 29.4281C13.0721 31.9286 16.4635 33.3334 19.9997 33.3334V33.3334ZM14.9997 13.3334H24.9997L29.1663 19.1667L19.9997 28.3334L10.833 19.1667L14.9997 13.3334ZM16.7163 16.6667L15.183 18.8167L19.9997 23.6334L24.8163 18.8167L23.283 16.6667H16.7163V16.6667Z" fill="white"/>
</svg>
