<svg width="40" height="40" viewBox="0 0 40 40" fill="none" xmlns="http://www.w3.org/2000/svg">
<path d="M20.0003 6.66663C30.1253 6.66663 38.3337 11.1433 38.3337 16.6666V23.3333C38.3337 28.8566 30.1253 33.3333 20.0003 33.3333C10.0553 33.3333 1.96033 29.015 1.67533 23.6283L1.66699 23.3333V16.6666C1.66699 11.1433 9.87533 6.66663 20.0003 6.66663ZM20.0003 26.6666C13.8003 26.6666 8.31699 24.9883 5.00033 22.4166V23.3333C5.00033 26.47 11.472 30 20.0003 30C28.3503 30 34.7303 26.6166 34.992 23.53L35.0003 23.3333L35.002 22.4166C31.6853 24.9866 26.202 26.6666 20.0003 26.6666ZM20.0003 9.99996C11.472 9.99996 5.00033 13.53 5.00033 16.6666C5.00033 19.8033 11.472 23.3333 20.0003 23.3333C28.5287 23.3333 35.0003 19.8033 35.0003 16.6666C35.0003 13.53 28.5287 9.99996 20.0003 9.99996Z" fill="white"/>
</svg>
