<svg width="30" height="30" viewBox="0 0 30 30" fill="none" xmlns="http://www.w3.org/2000/svg">
<circle cx="15" cy="15" r="15" fill="#CEDDF1"/>
<path d="M14.9994 9.16666C11.7764 9.16666 9.16602 11.7771 9.16602 15C9.16535 16.2246 9.55032 17.4183 10.2663 18.4117C10.9823 19.4052 11.9929 20.1479 13.1548 20.5347C13.4465 20.5854 13.5556 20.4104 13.5556 20.257C13.5556 20.1187 13.548 19.6597 13.548 19.1708C12.0827 19.4409 11.7035 18.8138 11.5868 18.4854C11.5209 18.3174 11.2368 17.8 10.9889 17.6612C10.7848 17.5521 10.4931 17.282 10.9813 17.275C11.441 17.2674 11.7688 17.6979 11.8785 17.8729C12.4035 18.7549 13.2423 18.507 13.5772 18.3542C13.6285 17.975 13.7813 17.7201 13.9493 17.5742C12.6514 17.4284 11.2952 16.925 11.2952 14.6937C11.2952 14.0591 11.5209 13.5347 11.8931 13.1257C11.8348 12.9799 11.6306 12.382 11.9514 11.5799C11.9514 11.5799 12.4397 11.4271 13.5556 12.1784C14.0305 12.0466 14.5211 11.9803 15.0139 11.9812C15.5098 11.9812 16.0056 12.0466 16.4723 12.1778C17.5876 11.4195 18.0764 11.5805 18.0764 11.5805C18.3973 12.3826 18.1931 12.9805 18.1348 13.1263C18.5063 13.5347 18.7327 14.0521 18.7327 14.6937C18.7327 16.9326 17.3694 17.4284 16.0715 17.5742C16.2827 17.7562 16.4653 18.1062 16.4653 18.6534C16.4653 19.4333 16.4577 20.0604 16.4577 20.2576C16.4577 20.4104 16.5673 20.5924 16.859 20.5341C18.0169 20.1431 19.0231 19.3989 19.736 18.4062C20.4488 17.4134 20.8324 16.2221 20.8327 15C20.8327 11.7771 18.2223 9.16666 14.9994 9.16666Z" fill="black"/>
</svg>
