<svg width="18" height="18" viewBox="0 0 18 18" fill="none" xmlns="http://www.w3.org/2000/svg">
<path d="M8.99984 17.3334C4.39734 17.3334 0.666504 13.6025 0.666504 9.00002C0.666504 4.39752 4.39734 0.666687 8.99984 0.666687C13.6023 0.666687 17.3332 4.39752 17.3332 9.00002C17.3332 13.6025 13.6023 17.3334 8.99984 17.3334ZM14.2957 12.2934V12.2059C14.2957 11.4375 14.2957 11.0867 13.7523 10.7759C13.5777 10.6769 13.3983 10.5865 13.2148 10.505C12.909 10.3659 12.7065 10.275 12.4332 9.87502C12.4005 9.82752 12.3683 9.77974 12.3365 9.73169C12.049 9.29419 11.8415 8.97919 11.0515 9.10419C9.49734 9.35085 9.38234 9.62419 9.314 10.0859L9.30317 10.1617C9.20234 10.8367 9.184 11.0634 9.46567 11.3592C10.5198 12.465 11.1515 13.2625 11.3432 13.7292C11.4365 13.9567 11.6765 14.6459 11.5115 15.3275C12.523 14.9246 13.4234 14.2854 14.1373 13.4634C14.229 13.1517 14.2957 12.7634 14.2957 12.2934V12.2934ZM8.99984 2.19419C7.069 2.19419 5.32484 2.99919 4.0865 4.29085C4.234 4.39335 4.36234 4.53752 4.45067 4.73585C4.62067 5.11669 4.62067 5.50919 4.62067 5.85669C4.62067 6.13002 4.62067 6.39002 4.70817 6.57752C4.82817 6.83419 5.3465 6.94419 5.804 7.03919C5.96817 7.07419 6.1365 7.10919 6.28984 7.15169C6.7115 7.26835 7.03817 7.64752 7.299 7.95169C7.40734 8.07752 7.56817 8.26335 7.649 8.31002C7.69067 8.28002 7.82484 8.13419 7.89067 7.89502C7.94234 7.71169 7.92734 7.55002 7.85317 7.46169C7.3865 6.91169 7.41234 5.85335 7.5565 5.46252C7.78317 4.84669 8.4915 4.89252 9.00984 4.92585C9.20317 4.93835 9.38484 4.95085 9.5215 4.93335C10.0398 4.86835 10.1998 4.07919 10.3123 3.92502C10.5557 3.59169 11.3007 3.08919 11.7623 2.77919C10.8928 2.39251 9.95152 2.19319 8.99984 2.19419V2.19419Z" fill="#4478BB"/>
</svg>
