<svg width="170" height="42" viewBox="0 0 170 42" fill="none" xmlns="http://www.w3.org/2000/svg">
<path d="M105.551 12.8967L105.768 11.295L106.088 9.80503L106.626 9.05793L106.944 7.46262L107.591 6.18551L108.449 5.86194L109.843 5.75659C109.843 5.75659 112.098 6.07587 112.422 6.07587C112.741 6.07587 115.295 6.18659 115.295 6.18659L117.335 5.86301L118.408 6.50156L118.942 8.41937L120.23 11.0865C120.23 11.0865 120.551 12.3603 120.77 12.6818C120.982 13.0011 122.057 17.1355 122.379 17.3462C122.701 17.5591 126.115 19.3726 126.115 19.3726L129.014 18.8383L129.441 17.1344L130.84 16.6001L132.982 17.9815C132.982 17.9815 135.126 23.4189 135.346 23.7393C135.55 24.0607 135.646 27.2308 135.646 27.2308V29.0433L137.148 30.6408C137.148 30.6408 136.404 29.5905 137.472 30.6408C139.083 32.2393 150.224 22.4611 137.357 12.1485L135.553 12.0443L133.682 12.0658L131.945 11.0585L131.595 10.4898L131.575 8.65801L133.402 8.25704L134.216 8.00335L134.896 8.1861L136.475 9.99638L137.544 11.28L138.653 12.2926L142.815 17.3494L144.03 20.7937L143.161 26.7965L140.044 31.0149L135.033 32.3059L129.07 33.0005H111.923L100.269 32.6124L99.7849 30.8515L100.692 29.4894L103.221 28.2521L104.687 28.8057L105.039 28.2285L106.794 23.4308L105.703 19.593L105.75 18.69L106.371 17.3043L105.551 12.8967Z" fill="white"/>
<path d="M91.766 25.5507V31.1902C88.5938 32.7661 85.5857 33.5476 82.5932 33.5476C74.2966 33.5476 69.309 28.6746 69.309 22.5622C69.309 15.9531 74.9896 10.4716 82.28 10.4716C84.101 10.4716 85.4267 10.7855 86.8488 11.2553C87.8832 11.5724 88.5139 11.9615 89.1514 11.9615C89.7039 11.9615 89.862 11.0187 89.9428 10.4716H90.7367L91.4481 18.0762H90.4961C90.1009 16.5808 89.3886 15.3457 88.4391 14.4792C86.9312 12.986 84.8711 12.1991 82.5182 12.1991C77.5274 12.1991 74.5946 16.1089 74.5946 22.0096C74.5946 27.8071 78.1616 31.819 82.9131 31.819C84.3381 31.819 85.5857 31.5019 87.1701 30.7978V25.0035C87.1701 23.1115 86.8488 22.402 84.1826 22.402V21.5344H94.2174V22.402C91.6861 22.4041 91.766 23.191 91.766 25.5507ZM64.1572 16.2702L64.1583 33.1563H62.8323L45.8191 15.7219C45.8974 16.1927 45.8974 16.583 45.8974 17.056V27.6512C45.8974 30.9536 45.8974 32.134 48.9106 32.134V33.0004H40.9305V32.134C43.9219 32.134 43.9209 30.7214 43.9209 27.6512V15.5596C43.9209 13.7729 43.9209 11.8067 40.7727 11.8067V10.9435H48.272L62.2764 25.2357C62.2003 24.839 62.2003 24.6057 62.2003 24.0554V16.2691C62.2003 13.144 62.2764 11.8056 59.2686 11.8056V10.9435H67.2455V11.8067C64.3149 11.8067 64.1572 13.0688 64.1572 16.2702ZM25.5 32.9994V32.1329C27.4037 32.1329 28.7503 31.9771 28.7503 29.2207V14.7167C28.7503 11.8831 27.718 11.8067 25.5 11.8067V10.9435H36.7316V11.8067C34.4309 11.8067 33.4965 11.8831 33.4965 14.7167V29.2207C33.4965 31.9771 34.6712 32.1329 36.7316 32.1329V32.9994H25.5Z" fill="#CACACA"/>
<path d="M136.025 10.9435C135.861 10.6285 135.558 10.4726 135.329 10.4726C135.091 10.1587 134.774 9.7663 134.46 9.7663C134.695 9.7663 135.014 9.52765 135.409 9.52765C135.558 9.91791 135.861 10.1587 135.942 10.4726L136.025 10.9435ZM144.5 22.7986C144.5 19.336 143.076 15.8745 140.535 13.3794C139.426 12.2818 138.159 11.7293 137.207 10.6285C136.735 10.1587 136.338 9.68566 136.025 9.05465C135.626 8.66228 135.41 8.42683 134.936 8.18821L135.171 8.89664H135.093C134.697 8.89664 134.3 8.66228 133.982 8.42683L134.298 8.10759C134.224 7.95494 133.982 7.95494 133.823 7.95494C132.56 7.71737 131.368 8.42683 130.102 8.66228V8.81819C130.896 9.05574 131.05 9.99856 131.526 10.4737H132.002C132.163 10.4737 132.399 10.6296 132.562 10.6296C132.562 10.4737 132.4 10.1598 132.4 10.1598C132.562 9.99856 132.717 9.99856 132.877 10.1598C133.274 10.3941 133.826 9.99855 134.226 10.6296C133.749 10.6296 133.274 10.6296 132.877 10.8671C132.877 10.9446 133.115 11.1015 133.036 11.2574C132.64 11.1015 132.164 11.2574 132.002 10.9446L131.927 11.0219C132.439 11.5977 133.093 12.0322 133.826 12.2829C134.854 12.442 135.706 11.9637 136.738 12.2023C140.379 13.9341 142.922 17.9987 142.922 22.0923C142.922 27.8909 139.596 30.2494 137.451 30.2494C137.053 30.2494 136.427 30.014 136.174 29.7764C136.425 28.91 136.582 27.9672 136.582 26.5514C136.582 23.1931 135.253 19.5779 133.431 17.6859C132.563 16.8237 131.611 16.1143 130.58 16.1143C130.104 16.1143 129.627 16.1143 129.31 16.5087C128.915 16.8237 128.677 17.4494 128.755 17.8428C128.124 18.3158 127.092 18.5513 126.299 18.5513C125.427 18.5513 124.342 18.2374 123.312 17.4494V16.2723C123.072 16.1948 122.284 15.724 122.679 15.3489C122.915 15.4294 123.072 15.5595 123.153 15.6423C123.073 15.1155 123.073 14.4834 122.679 14.0148C122.52 14.0148 122.284 14.0148 122.046 13.8546C121.808 13.617 121.57 13.2998 121.57 12.9075C121.808 13.2998 122.199 13.1472 122.439 13.3794C122.045 12.4409 122.199 12.0443 121.489 10.6285C121.326 9.91791 120.618 9.52765 120.139 9.05465C119.899 8.89664 119.822 8.66228 119.506 8.66228C119.191 8.58164 119.191 8.18714 119.191 7.95494C119.269 7.95494 119.506 8.10759 119.663 8.18714C119.191 7.08633 118.873 5.91028 117.842 5.30075L117.61 5.43405H116.342C116.493 5.30075 116.812 5.22551 117.053 5.06425C116.811 4.82883 116.659 4.7482 116.177 4.7482C115.94 4.82883 115.623 5.06425 115.308 5.06425H115.229C115.229 4.82883 115.156 4.51493 115.623 4.35906C115.155 4.28057 114.774 4.28057 114.221 4.35906C114.143 4.7482 113.903 4.98685 113.903 5.30075C113.664 5.43405 113.589 5.67056 113.348 5.91028C113.348 5.43405 113.589 4.98685 113.664 4.51493C113.348 4.59555 112.955 4.82883 112.792 4.82883C112.163 4.51493 111.369 4.19995 111.051 4.19995C111.525 4.51493 111.286 5.06425 111.368 5.43405L111.051 5.29968C110.97 4.98685 110.577 4.7482 110.497 4.35906C110.021 4.35906 109.704 4.51493 109.304 4.7482V4.82883C109.545 4.82883 109.861 5.06425 110.021 5.29968C109.466 5.29968 109.071 5.06425 108.517 5.06425L108.434 4.98685C108.201 5.06425 107.959 5.29968 107.806 5.43405C107.25 5.91028 106.854 6.30266 106.612 7.00571C106.772 7.00571 107.01 7.00571 107.091 7.08633C106.772 7.16589 106.612 7.55826 106.297 7.64104V8.8171C106.06 9.05465 105.742 9.28901 105.584 9.7663C105.19 11.0197 105.108 12.4398 105.108 14.0126C105.029 14.3233 104.887 14.4018 104.735 14.4813V15.7218C104.735 15.7218 105.19 15.2682 105.428 15.1134V16.1121C105.109 16.1121 104.889 16.5066 104.889 16.7399C104.889 17.0538 104.957 17.3709 104.957 17.6837C104.957 17.8407 104.957 17.8407 105.03 17.9976C105.03 17.8407 105.19 17.6837 105.428 17.6085C105.428 17.6085 105.585 17.4473 105.901 17.4473C105.661 17.6837 105.585 17.9976 105.428 18.3147L105.19 18.5502L105.109 18.7856C105.428 20.4379 105.901 21.8569 106.536 23.4275C105.901 24.4498 105.191 26.3945 104.736 28.2801C104.339 27.8909 103.782 27.8092 103.309 27.8092C102.833 27.8909 102.362 28.0478 102.041 28.5176C101.567 28.2801 100.932 28.3585 100.616 28.6767C99.9031 29.3023 99.9031 29.6195 99.9031 30.0914C99.745 30.2484 99.4271 30.6418 99.4271 31.1912C99.4271 31.8963 99.5053 32.3736 99.9031 33.0004H111.924C111.847 32.766 111.687 32.4489 111.529 32.2941C111.288 31.8222 111.453 31.1923 111.453 30.7214C111.687 30.2494 111.925 29.7743 112.243 29.3862C112.321 29.1465 112.243 29.1465 112.321 29.0691L112.876 28.91C113.195 28.91 113.432 28.6767 113.829 28.6767C114.067 29.0691 114.067 28.4392 114.463 28.2801C115.311 28.1284 116.181 28.2801 116.661 28.91C116.661 29.0691 116.735 29.0691 116.735 29.1475H116.342C115.864 28.91 115.31 28.6767 114.776 28.91C114.776 29.1475 114.699 29.1475 114.699 29.3862V29.7743C115.013 29.7743 115.23 30.0914 115.546 30.2483C115.704 30.013 116.179 29.7743 116.493 29.7743C116.893 29.7743 117.448 30.014 117.448 30.6418V31.5051C117.764 31.8222 118.159 31.8974 118.561 32.0597C118.399 32.3747 118.159 32.3747 117.927 32.3747H117.287C117.209 32.2952 117.053 32.2952 117.053 32.0597C116.812 32.3747 116.659 32.6854 116.493 33.0014H125.742C125.585 32.6854 125.425 32.45 125.357 32.2952C125.21 31.8233 125.21 31.1933 125.21 30.7224L126.061 29.54C126.536 29.54 126.937 29.3862 127.805 29.3023C127.961 29.0691 127.805 28.91 128.516 28.91C129.067 28.91 129.468 29.0691 129.624 29.1475C129.705 29.3034 129.705 29.3034 129.624 29.4636C129.468 29.6205 129.15 29.3034 128.913 29.3873C128.754 29.541 128.993 29.6205 128.993 29.7764C129.152 29.9333 128.282 29.6195 128.282 29.6195C128.282 29.6195 128.123 30.0914 128.04 30.2494L128.516 30.7214C128.676 30.9546 128.281 31.1923 128.281 31.4287C128.122 31.3492 127.804 31.1094 127.804 31.1912C127.645 31.8211 127.804 32.3736 127.724 33.0004H128.598L128.676 31.6663C128.752 30.8773 129.704 29.4625 130.261 29.4625C130.577 29.4625 130.814 29.6195 131.05 29.7753C131.209 30.0914 131.609 30.2483 131.609 30.4043C131.609 30.5633 131.368 30.6418 130.971 30.6418C130.814 30.6418 130.814 30.4043 130.579 30.2494L130.103 30.7203C130.103 30.7203 130.658 31.1912 130.658 31.504C130.658 31.8963 130.58 32.0586 130.343 32.293L129.864 31.3481C129.626 31.3481 129.231 31.82 129.231 32.0576C129.231 32.3725 129.07 32.5295 129.07 32.9993H133.985C134.541 33.0004 135.017 32.8424 135.561 32.5295H136.497C138.474 32.5295 140.065 31.977 141.488 30.5623C143.391 28.6756 144.501 25.6871 144.5 22.7986ZM127.331 30.013L126.536 30.0903C126.855 30.2473 126.855 30.6407 126.855 30.7203C126.855 30.9535 126.695 31.1912 126.536 31.3481C126.38 31.1912 126.38 30.9535 126.222 30.7203C126.062 30.7203 125.984 31.1083 125.984 31.2707C125.984 31.9781 126.298 32.5306 126.536 32.9993H127.248C127.171 32.3725 127.011 31.82 127.011 31.1083C127.011 30.7203 127.248 30.2473 127.331 30.013ZM116.893 30.9535C116.893 30.6407 116.659 30.5633 116.342 30.5633C116.179 30.5633 115.785 30.7998 115.785 30.9535C115.785 31.2707 115.625 32.9993 115.625 32.9993H116.179C116.418 32.293 116.893 31.3481 116.893 30.9535ZM115.156 30.8751C115.088 30.8751 115.229 31.0321 114.46 30.2473C114.301 30.2473 114.064 30.7193 114.064 30.8751C114.064 31.5029 114.222 32.3725 114.46 32.9993H115.087C115.087 32.293 115.156 31.5029 115.156 30.8751ZM113.826 32.9993C113.429 32.293 113.348 31.1901 113.348 30.9535C113.348 30.5633 113.348 30.013 113.591 29.6184L112.72 29.7743C112.481 30.0914 112.399 30.2483 112.399 30.4043L112.796 30.2483C112.873 30.2483 112.956 30.4043 113.03 30.5633C112.957 30.9535 112.481 30.9535 112.32 31.1094C112.08 31.8963 112.796 32.3736 112.874 33.0004H113.826V32.9993ZM133.667 9.2901H132.796C132.638 9.05465 132.4 9.2901 132.245 9.2901C132.082 9.2901 132.002 9.2901 131.687 9.05465C132.163 9.05465 132.399 8.81709 132.796 8.66228C133.114 8.89664 133.43 8.9751 133.667 9.2901ZM131.765 18.3137C131.209 18.1567 130.897 17.9203 130.417 17.9203C130.262 17.9203 129.55 18.1567 129.469 18.3137C129.231 17.9976 129.626 17.3709 129.945 17.2129C130.262 17.0538 130.417 17.1344 130.579 17.2129C130.579 17.6837 131.132 17.4473 131.447 17.6085C131.61 17.8407 131.687 17.9976 131.765 18.3137ZM131.687 19.4962C131.21 19.4962 131.132 19.4166 130.816 19.4166C130.417 19.4166 129.945 19.5757 129.705 19.966C129.549 19.6521 129.624 19.4962 129.705 19.2596C129.945 19.0264 130.342 18.7061 130.657 18.7061C131.21 18.705 131.687 19.0984 131.687 19.4962ZM133.509 21.2226C132.875 20.8314 131.926 20.6002 131.369 20.6002C131.051 20.6002 130.103 20.9862 129.784 21.3022L129.626 20.6002C130.103 20.5164 130.103 20.1261 130.418 20.1261C130.659 20.1261 130.973 20.0423 131.211 20.0423C131.448 20.0423 131.611 19.8885 131.688 19.8885C132.082 19.8885 131.927 20.282 132.164 20.282C132.4 20.282 132.562 20.1251 132.717 20.1251C133.114 20.1251 133.43 20.7528 133.509 21.2226ZM133.749 22.9556C133.192 22.9556 132.638 22.7986 132.562 22.5643C132.4 22.4041 132.562 22.0913 132.164 22.0913C132.003 22.0913 131.766 22.3245 131.766 22.3245C131.61 22.4041 131.133 22.0913 131.133 22.3245C131.133 22.719 130.817 22.8781 130.418 22.8781C130.263 22.8781 130.104 22.8781 129.946 22.7997V22.0127C130.972 22.0127 130.898 21.6956 131.37 21.6956C131.688 21.6956 131.927 21.8569 132.164 21.8569C132.562 21.8569 132.322 21.6956 132.717 21.6956C133.114 21.6956 133.274 22.0127 133.51 22.0923C133.509 22.3235 133.749 22.6385 133.749 22.9556ZM133.034 24.682C132.794 24.6067 132.244 24.5294 132.244 24.2917C132.244 23.9789 132.082 23.8994 131.685 23.8994C131.368 23.8994 131.131 23.9789 130.657 24.1326C130.657 24.1326 130.416 23.8241 130.342 23.5059C130.498 23.4275 131.132 23.2695 131.447 23.2695C132.002 23.2695 132.56 23.2695 132.56 23.5059C132.562 23.8231 133.034 23.8983 133.034 24.682ZM119.191 12.3581L119.032 13.145L118.398 13.2998L118.795 11.5734C118.954 11.8852 119.191 12.2012 119.191 12.3581ZM134.539 27.4136C134.539 27.8887 134.539 28.0457 134.298 28.4381L133.823 27.7307C133.982 27.4931 133.982 27.1803 134.224 26.788L134.539 27.4136ZM132.638 26.3934C132.082 26.3934 132.399 25.3141 131.21 25.3141C130.972 25.3141 130.817 25.6882 130.499 25.7656L130.58 25.2367C130.58 25.0755 130.658 24.7616 130.972 24.6067C131.61 24.6067 131.447 24.8422 131.926 25.0056C132.164 25.0744 132.321 25.2367 132.638 25.2367V26.3934ZM127.645 21.9332C126.937 21.5387 126.535 20.8314 125.902 20.1251C126.535 20.1251 126.694 20.7528 127.17 20.8303C127.33 20.9862 127.486 21.0678 127.645 21.3011V21.9332ZM120.852 16.1121C120.378 16.1121 120.139 15.8745 119.899 15.4273C119.899 15.1898 119.822 14.8748 119.899 14.4813C120.062 14.7952 120.062 14.951 120.219 15.1134C120.537 14.951 120.537 15.3467 120.618 15.4273C120.697 15.6402 120.852 15.8745 120.852 16.1121ZM133.983 29.5378C133.824 29.7743 133.824 29.7743 133.749 30.0119C133.749 29.6173 133.273 29.3841 132.955 28.6745L133.274 28.1263C133.51 28.2779 133.826 28.5144 133.826 28.9079C133.826 28.9079 133.75 29.1454 133.826 29.3002C133.824 29.3852 133.983 29.3852 133.983 29.5378ZM132.399 27.2577C132.399 27.5738 132.321 27.6501 132.244 28.0446C131.685 27.9651 131.685 27.3372 131.609 27.2577C131.209 26.7869 130.657 27.1803 130.262 27.1803C130.103 26.7084 130.342 26.7084 130.342 26.3934C130.579 26.3934 130.816 26.2364 131.05 26.3934C131.446 26.2364 131.685 26.6288 132.081 26.6288C132.164 26.788 132.321 27.1803 132.399 27.2577ZM128.359 24.0564C128.359 24.3713 128.2 24.6067 128.283 24.9238C128.124 24.4498 127.807 23.9789 127.647 23.5059C127.647 23.4275 127.567 23.4275 127.726 23.349L128.123 23.4264C128.2 23.5834 128.359 23.8231 128.359 24.0564ZM121.411 17.8407C121.326 18.1567 121.015 17.8407 120.935 17.8407H120.221C120.139 17.6837 120.063 17.6084 120.063 17.4473C120.379 17.372 120.618 17.2129 120.853 17.372C121.015 17.6085 121.169 17.8407 121.411 17.8407ZM123.152 19.651C122.913 19.8885 122.283 19.9649 121.808 19.5757L122.442 19.2586C122.678 19.4962 122.994 19.5757 123.152 19.651ZM127.248 24.1316C127.248 24.6057 127.171 25.1561 127.171 25.6872C126.937 25.6872 126.937 25.5506 126.937 25.2357C126.855 24.7605 126.694 24.3703 126.536 23.8983C126.378 23.2684 125.984 22.718 125.665 22.0106C125.587 21.6935 125.21 21.5387 124.894 21.3022C125.285 21.3022 125.665 21.3022 125.984 21.6161C125.984 21.773 126.061 21.8558 126.298 22.0902C126.855 22.0902 126.694 22.7976 127.171 23.1125C126.937 23.3479 126.855 23.5038 126.695 23.6586C126.937 23.8231 127.171 23.8983 127.248 24.1316ZM124.184 21.7741C124.184 22.0116 124.025 22.0913 123.865 22.245C123.865 22.245 123.545 21.8569 123.545 21.6945C123.545 21.3817 123.545 21.2237 123.629 20.9872C123.865 21.2226 124.184 21.5387 124.184 21.7741ZM131.61 28.9079L131.447 29.1454C131.053 28.9079 130.817 28.8336 130.343 28.8336C130.343 28.5154 130.103 28.1274 129.946 28.1274C129.469 28.1274 129.551 28.4381 129.152 28.4381L129.864 27.7307C129.946 27.5738 129.946 27.5738 130.104 27.5738C130.344 27.7307 130.418 27.8071 130.659 27.8071C130.659 27.9651 130.659 28.0457 130.58 28.2779C130.818 28.437 130.973 28.2026 131.135 28.437C131.369 28.5154 131.61 28.595 131.61 28.9079ZM125.21 23.5048C125.21 23.6596 124.976 23.8231 124.894 23.8231C124.894 23.8231 124.501 23.4264 124.422 23.0318C124.341 22.719 124.657 22.1686 124.657 22.1686L124.894 22.3245C124.976 22.4041 124.894 22.6395 124.976 22.8781C125.21 23.0318 125.357 23.349 125.21 23.5048ZM119.032 15.8745C118.08 15.3467 117.053 14.951 115.863 14.8748C115.863 15.1134 115.863 15.3467 115.785 15.4273C116.733 15.8745 117.61 16.2701 118.398 16.9753V17.6837C117.609 16.8979 116.733 16.1121 115.701 15.8745C115.623 16.0325 115.308 16.1927 115.229 16.5066C114.696 16.1121 114.063 15.7229 113.428 15.6402C113.192 15.6402 113.029 14.7952 113.029 14.7952C113.428 14.6382 113.664 14.4018 113.825 14.0126H114.141C114.38 14.0126 114.38 13.8524 114.38 13.617C114.38 13.1461 113.348 13.1461 112.872 13.1461C112.317 13.1461 111.921 13.1461 111.606 13.3794C111.449 13.3794 111.524 13.617 111.524 13.775L111.762 14.0137C111.921 14.0137 112.079 13.8535 112.24 13.8535C112.162 14.3243 112.317 14.5598 112.795 14.7963L112.719 15.5584C111.762 15.5584 111.127 15.9573 110.417 16.2712C110.18 16.1132 110.022 15.8755 109.861 15.6413C108.911 15.9573 107.25 17.214 107.25 17.214V16.6593C107.959 16.0325 108.911 15.7218 109.626 15.3467V14.7952C109.305 14.6382 108.993 14.7952 108.677 14.7952C107.986 14.8797 107.329 15.1425 106.773 15.5573C106.773 15.3467 106.692 15.0317 106.692 15.0317C107.567 14.5587 108.677 14.1652 109.707 14.3233V14.0126C109.626 13.8524 109.626 13.617 109.467 13.617C108.992 13.1461 108.518 12.4398 108.518 11.9626L108.834 11.8067C108.675 11.3369 108.518 10.1587 108.834 9.7663C108.358 9.52765 107.883 9.1321 107.724 8.8171C107.565 8.42582 107.407 8.18714 107.327 7.71737C107.566 7.24544 107.724 7.08633 107.959 6.61441C108.118 6.61441 108.357 6.53916 108.434 6.38006C108.834 6.30266 109.073 5.91028 109.545 6.14679C109.861 6.14679 110.18 6.30266 110.417 6.38006C110.417 6.53916 110.417 6.61441 110.577 6.77674C111.051 6.77674 111.051 7.24544 111.285 7.64104C111.524 7.71737 111.761 7.71737 111.921 7.71737C112.398 7.87539 112.792 7.87539 112.954 8.10759C113.588 7.71737 114.22 7.64104 114.931 7.71737C115.01 7.48087 115.155 7.16589 115.228 6.77674C115.307 7.00571 115.307 6.77674 115.463 6.77674C115.783 6.53916 116.175 6.14679 116.731 6.30266C117.05 6.53916 117.609 6.38006 117.925 6.77674C118.154 7.08633 118.316 7.55826 118.556 7.95494C118.316 8.42582 118.556 9.05465 118.079 9.2901L117.609 9.7663C117.445 9.7663 117.445 9.91792 117.207 9.91792C117.445 10.4726 117.286 11.2563 117.05 11.8067C117.207 11.7293 117.443 11.7293 117.443 11.4949V12.0443C117.443 12.4409 117.206 12.8268 116.889 13.145C116.731 13.6159 116.339 14.2427 115.782 14.3222V14.4802C116.968 14.4802 117.924 14.7941 119.029 15.3456V15.8745H119.032ZM122.283 20.8314L121.886 20.9872C121.015 20.9872 120.618 20.7539 120.221 20.4368C120.538 20.4368 120.935 20.0423 120.935 20.0423C121.326 20.4368 121.885 20.7528 122.283 20.8314ZM120.063 19.0254C119.585 19.0254 119.033 19.2586 118.796 18.7845C118.955 18.705 119.113 18.4728 119.269 18.3137L120.063 19.0254ZM126.536 26.3934C126.536 26.788 126.061 27.2588 125.903 27.5748C126.062 27.1813 126.062 26.3934 125.903 26.3934C125.743 26.316 125.427 26.3934 125.427 26.2364C125.427 26.0011 125.508 25.6882 125.508 25.5517C125.508 25.2367 125.287 25.0755 125.287 24.9238C125.287 24.4498 125.825 24.3713 125.984 24.0564C126.062 24.3713 126.062 24.682 126.062 25.0744C126.062 25.2357 126.299 25.6872 126.062 26.0806C126.061 26.315 126.536 26.1559 126.536 26.3934ZM124.737 25.5506C124.737 26 124.424 26.3923 124.342 26.8664C124.342 26.3934 124.264 26 123.944 25.6872C123.944 25.5506 124.185 25.5506 124.027 25.313C124.027 25.313 123.546 25.0733 123.546 24.7594C123.546 24.4476 123.866 24.2133 124.027 23.9768C124.027 23.8973 124.342 24.1305 124.342 24.6046C124.342 24.6798 124.342 24.9217 124.264 25.0733C124.184 25.3141 124.737 25.3141 124.737 25.5506ZM118.159 19.9649C117.764 20.0412 117.448 19.651 117.053 19.4951C116.893 19.0243 116.893 18.5491 116.733 18.3137C117.053 18.5491 117.762 18.5491 117.61 19.2575C117.61 19.4962 117.927 19.651 118.159 19.9649ZM120.379 22.1686C120.063 22.1686 119.506 22.1686 119.191 21.9321C118.716 21.6935 118.561 21.5387 118.317 21.3011C118.636 21.0678 119.032 21.0678 119.191 20.9862C119.506 21.3011 119.822 21.8558 120.379 22.1686ZM107.011 9.99746L106.458 10.1587L106.535 9.7663C106.692 9.52765 106.773 9.2901 107.011 9.05465V9.99746ZM117.209 20.9862C116.893 21.0678 116.342 21.2226 116.178 20.8303C115.703 20.1251 115.941 19.4951 116.178 18.9425C116.342 19.4155 116.418 19.8875 116.493 20.282C116.576 20.6002 117.053 20.7528 117.209 20.9862ZM114.934 16.6593C114.855 17.1333 114.697 17.8407 114.222 18.1556C114.222 17.8407 114.064 17.6837 113.903 17.4473L113.827 17.6837C113.827 17.8407 113.666 18.1556 113.666 18.4728C113.511 18.5491 113.195 18.705 112.874 18.5491V18.3137C112.798 18.1556 112.798 17.8407 112.798 17.6837L112.721 17.6085C112.483 17.6837 112.483 17.8407 112.483 17.9976C112.4 18.1556 112.243 18.3137 112.243 18.5491C111.924 18.5491 111.765 18.4728 111.527 18.3137V17.6085C111.527 17.4473 111.527 17.4473 111.453 17.4473L111.053 17.8407C110.737 17.6085 110.657 16.9753 110.657 16.5818C111.925 15.8745 113.512 16.1121 114.463 16.5066C114.617 16.5818 114.775 16.5819 114.934 16.6593ZM119.032 23.0318H118.795C117.926 23.349 117.208 22.7986 116.493 22.3245C116.892 22.1686 117.446 22.0913 117.926 22.0913L118.158 22.5632C118.398 22.6385 118.796 22.876 119.032 23.0318ZM107.17 11.1004L106.773 11.5723C106.854 12.3571 106.535 12.9064 106.535 13.6159L106.14 12.3571C106.22 12.0432 106.298 11.7282 106.535 11.3358L107.17 11.1004ZM115.31 21.3011C114.934 21.0678 114.222 20.9862 114.381 20.5164C114.537 20.1261 114.775 20.0423 114.934 19.8885C115.012 20.4368 115.087 20.8314 115.31 21.3011ZM122.678 29.3852H122.595C122.441 29.1454 122.361 28.9089 122.2 28.9089C122.442 28.0457 121.964 27.3383 121.808 26.6288V26.3934C122.048 26.788 122.679 27.1803 122.596 27.5738C122.678 28.2779 122.678 28.9079 122.678 29.3852ZM120.852 26.3934C120.459 26.3934 120.139 26.3934 119.899 26.0011C119.822 26.0011 119.662 25.7656 119.584 25.9215C119.191 26.2364 118.795 25.6882 118.317 25.7656C118.086 26.0111 117.78 26.1762 117.446 26.2364V26.1569C117.446 25.9215 117.609 25.6882 117.926 25.5517C118.398 25.6882 118.795 24.682 119.268 25.2367C119.505 25.3141 119.743 25.3141 119.898 25.3141C120.459 25.5506 120.618 26 120.852 26.3934ZM113.589 20.0412C113.589 20.6002 113.51 21.3011 112.955 21.5387L112.796 20.7539C113.03 20.6002 113.271 20.4368 113.589 20.0412ZM116.257 23.5048C116.102 23.6596 115.625 23.8209 115.31 23.8209C114.855 23.4264 114.537 22.9556 114.064 22.3235L115.31 22.5632C115.545 22.719 116.022 23.2684 116.257 23.5048ZM121.015 27.9651C120.697 27.7296 120.221 27.7296 120.063 27.3372C119.744 27.2577 119.506 27.2577 119.113 27.2577C118.796 27.3372 118.399 27.3372 118.082 27.3372C118.001 27.3372 118.082 27.2577 117.927 27.1803C117.448 27.3372 116.971 27.3372 116.493 27.8071L116.893 26.8664C117.209 26.8664 117.448 26.7083 117.61 26.7083C117.927 26.6288 118.159 26.6288 118.399 26.6288V26.7083C119.269 26.7083 120.302 26.6288 120.935 27.3383L121.015 27.9651ZM111.923 21.3011C111.45 20.8303 111.051 20.4357 111.051 19.9649C111.286 19.9649 111.525 19.9649 111.762 20.1251C111.764 20.5164 111.923 20.8314 111.923 21.3011ZM110.417 19.0243L110.18 20.0412C109.944 19.5746 109.704 19.0984 109.625 18.5491L110.417 19.0243ZM121.808 29.6184C121.678 29.9254 121.572 30.2411 121.49 30.5633C121.326 30.0914 121.169 29.3852 120.618 29.3852C120.537 29.068 120.459 28.9089 120.139 28.6756L119.506 28.5961C119.584 28.9089 120.063 28.9089 119.744 29.3852C120.063 29.6184 120.302 29.6184 120.459 30.013C120.618 30.2484 120.459 30.5634 120.537 30.7203L120.062 30.9535C120.062 30.5633 120.137 29.7732 119.584 29.6184C119.112 29.7743 119.032 29.1465 118.716 28.9089C118.559 28.9089 118.559 28.5165 118.317 28.6756C117.927 28.9089 117.446 28.6756 117.053 28.9089L117.446 28.279C117.763 28.0457 118.08 28.1273 118.398 28.0457L119.032 27.9662C119.662 27.9662 120.219 28.279 120.852 28.5165C121.169 28.6756 121.326 28.9089 121.326 29.3013C121.49 29.3852 121.808 29.3852 121.808 29.6184ZM115.467 25.9204H115.308C115.229 25.9204 114.696 25.6872 114.536 25.5506C114.46 25.313 114.46 25.0744 114.46 25.0744H115.087L115.467 25.9204ZM109.388 20.2809C108.911 20.1251 108.358 19.651 108.118 19.2586C107.975 18.9635 107.895 18.6421 107.883 18.3147C108.202 18.3147 108.435 18.5502 108.519 18.7061V18.7856C108.912 19.2586 109.305 19.651 109.388 20.2809ZM113.193 23.0318C113.113 23.5048 112.873 23.6596 112.481 24.2155C112.242 24.3724 111.764 24.4498 111.287 24.6831C111.368 24.4498 111.607 24.3724 111.764 24.1326C111.923 23.8994 112.242 23.5059 112.32 23.2695C112.72 23.0318 112.873 23.0318 113.193 23.0318ZM119.032 30.7203L118.795 30.9535C118.559 30.7203 118.716 30.0903 118.317 30.013C117.927 30.013 117.61 29.6184 117.446 29.5389L117.763 29.3852C117.763 29.3852 117.926 29.3013 118.08 29.3852C118.239 29.5389 118.398 29.6184 118.398 29.7732C118.559 30.013 118.795 29.7732 118.954 30.013C119.032 30.2473 119.113 30.5623 119.032 30.7203ZM111.764 22.4041C111.525 22.876 111.287 23.349 110.816 23.5048C110.578 23.5048 110.181 23.6596 109.705 23.5048C109.945 23.3479 110.181 23.2684 110.498 23.0318L111.127 22.4041H111.764ZM113.348 26C113.03 26.2354 112.796 26.2354 112.399 26.1558L111.923 25.5506H113.113L113.348 26ZM107.566 20.0412C107.17 20.4357 106.773 20.6002 106.612 21.0678C106.612 20.8303 106.535 20.5991 106.457 20.4357C106.534 20.1251 106.772 19.9649 106.854 19.8875C107.092 19.9649 107.25 19.9649 107.566 20.0412ZM108.519 21.2226C108.519 21.5387 108.358 21.9321 107.959 22.3235L107.643 22.5632C107.643 22.0913 107.883 21.6935 107.883 21.3011C108.118 21.2226 108.358 21.0678 108.519 21.2226ZM109.626 22.1686L109.305 23.349C108.912 23.6596 108.358 23.5059 107.883 23.5059C108.519 23.349 108.993 22.6395 109.305 22.1697C109.388 22.0913 109.467 22.1686 109.626 22.1686ZM110.022 26.1558C110.022 26.3934 109.945 27.3383 109.945 27.3383C109.784 26.788 109.388 26.2354 108.912 26.2354C108.677 26.0011 108.436 25.7656 108.358 25.5517C108.118 25.3141 107.883 25.5517 107.566 25.3141C107.25 25.3141 106.855 25.3141 106.535 25.5517V25.3141L107.092 24.682C107.644 24.7605 108.358 24.682 108.52 25.0744C108.912 25.3141 109.307 25.5506 109.389 25.6872V25.9204C109.545 26 109.863 26.0806 110.022 26.1558ZM109.626 28.595L109.073 29.1454C108.912 28.9079 109.073 28.5154 108.836 28.2779C108.836 28.1263 108.993 28.0446 108.911 27.9651C108.836 27.8071 107.883 27.4932 107.883 27.4932C107.566 27.2577 107.17 27.0212 106.855 26.7083C106.535 26.6288 106.297 26.788 105.9 26.8653V26.7083C106.06 26.3934 106.06 26.0011 106.535 26.0011C106.773 26.0011 107.092 26.0011 107.25 26.2354C107.566 26.2354 107.725 26.5503 107.959 26.6288C108.357 27.0212 108.675 27.1813 108.911 27.3383C108.911 27.5738 108.992 27.7307 109.149 27.8081C109.626 27.8071 109.467 28.2779 109.626 28.595ZM108.435 29.7732L108.202 30.5623L107.643 29.1454C107.01 28.5154 106.297 28.4381 105.898 28.1274C105.583 28.0457 105.583 28.279 105.426 28.1274C105.426 27.9662 105.426 27.7307 105.659 27.4932H106.138L106.61 27.7307C106.854 27.9662 107.406 27.9662 107.406 28.4381C107.406 28.5154 107.325 28.595 107.565 28.9089L108.357 29.1465L108.435 29.7732ZM106.22 30.5623C106.22 31.1901 105.19 32.0576 105.19 32.0576C105.19 31.6653 105.428 31.1901 105.428 30.7203C105.428 30.7203 105.109 30.4032 104.813 30.4032C104.582 30.5623 104.582 30.7203 104.499 30.9535C104.264 31.4276 103.782 31.8963 103.708 32.3725L103.63 32.293C103.63 31.504 103.708 30.1677 104.182 29.6184C104.582 29.1465 104.889 29.1465 105.346 29.068L105.745 29.1454L105.428 29.6173C105.745 29.7732 106.22 30.0903 106.22 30.5623ZM103.47 30.0903C103.47 30.4032 103.391 30.7203 103.23 30.9535C103.153 30.6407 102.916 30.2483 102.518 30.2483C102.201 30.8762 102.118 31.1094 102.439 32.0586C102.201 32.2941 102.041 32.3736 101.726 32.5306C101.567 32.2134 101.567 31.6653 101.567 31.3481C101.567 30.7988 101.646 30.2484 101.806 29.7732C102.041 29.5378 102.201 29.1454 102.439 28.9079H103.309C102.918 28.9079 102.918 29.3002 102.918 29.5378C103.153 29.6184 103.47 29.698 103.47 30.0903ZM101.407 30.9535C101.328 30.9535 101.092 30.7203 100.853 30.7203C100.615 31.1912 100.853 31.504 100.853 32.0576C100.853 32.293 100.775 32.5295 100.775 32.5295C100.616 32.5295 100.298 32.2124 100.219 31.8953V30.6397L100.932 29.7722C101.407 30.0903 101.567 30.5623 101.407 30.9535ZM117.762 9.05465C117.926 8.66228 117.926 7.95494 117.609 7.55826C117.445 7.24544 117.052 7.08633 116.657 6.77674L116.101 7.08633C115.784 7.24544 115.623 7.55826 115.623 7.95494C116.177 8.18714 116.733 8.8171 116.97 9.2901H117.208C117.445 9.05465 117.61 9.2901 117.762 9.05465ZM115.087 9.52765C115.087 9.2901 115.012 9.2901 114.933 9.2901C114.533 9.2901 114.533 8.66228 114.221 8.81819C114.062 8.81819 113.903 8.66228 113.664 8.81819C113.664 8.89774 113.664 8.89774 113.825 8.89774C114.22 8.89774 114.062 9.44919 114.38 9.52874H115.087V9.52765ZM116.342 10.4726C116.342 10.4726 116.493 10.4726 116.342 10.393L114.617 10.1587C114.46 10.393 114.062 10.393 114.062 10.6285H113.903C114.064 11.2563 114.064 11.9626 114.064 12.6753C114.381 12.7516 114.697 12.9075 114.697 13.3794C115.012 13.5396 115.31 13.617 115.625 13.8524C115.785 13.775 115.864 13.5396 115.941 13.2998C115.625 12.9075 114.934 13.1461 114.934 12.4409L114.46 12.2818C114.46 11.8067 114.46 11.3369 114.381 11.0197L114.46 10.9435C114.46 11.0197 114.536 11.1004 114.697 11.2563C115.012 11.2563 115.31 11.3369 115.625 11.1004C115.785 11.0197 115.785 10.6285 115.941 10.6285C116.102 10.6285 116.257 10.6285 116.342 10.4726ZM112.399 8.8171C112.242 8.66119 111.764 8.89664 111.525 8.97401C111.211 9.05356 110.97 9.28901 110.97 9.52656H111.846C111.923 9.2901 112.242 8.9751 112.399 8.8171ZM110.656 7.95494C110.578 7.16589 109.705 7.08633 109.305 6.77674H108.993C108.358 7.00571 108.201 7.64104 108.118 8.18714C108.358 8.89664 108.834 8.42582 109.149 8.89664C109.467 8.66228 110.257 8.10759 110.656 7.95494ZM115.31 15.1898V14.7952H114.537L114.46 14.8748L115.31 15.1898ZM111.764 10.6285C111.764 10.4726 111.607 10.3167 111.369 10.1587H109.467C109.467 10.4726 109.705 10.6285 109.944 10.6285C109.944 10.9435 110.18 11.0197 110.256 11.1004C110.497 11.2563 110.577 11.2563 110.815 11.1004C111.051 11.2563 111.127 10.9435 111.21 11.1004C111.21 11.5723 111.21 11.8067 111.127 12.2001C111.051 12.7506 110.577 12.6742 110.18 12.9064C110.18 13.145 109.944 13.5385 110.18 13.7739C110.417 13.617 110.577 13.5385 110.97 13.3783C110.97 13.145 111.211 12.9064 111.525 12.7506C111.525 12.0443 111.764 11.3369 111.764 10.6285ZM111.128 14.7952C110.97 14.4813 110.578 14.7952 110.181 14.6382C110.181 14.7952 110.181 14.951 110.418 15.1134C110.656 14.8748 111.051 14.7952 111.128 14.7952Z" fill="#CACACA"/>
</svg>
