<svg width="30" height="30" viewBox="0 0 30 30" fill="none" xmlns="http://www.w3.org/2000/svg">
<circle cx="15" cy="15" r="15" fill="#CEDDF1"/>
<path d="M12.0482 10.9167C12.048 11.2261 11.925 11.5228 11.7061 11.7415C11.4872 11.9601 11.1903 12.0829 10.8809 12.0828C10.5715 12.0826 10.2748 11.9595 10.0561 11.7406C9.83746 11.5217 9.71469 11.2249 9.71484 10.9155C9.715 10.6061 9.83806 10.3094 10.057 10.0907C10.2759 9.87203 10.5727 9.74927 10.8821 9.74942C11.1915 9.74958 11.4882 9.87264 11.7069 10.0915C11.9256 10.3104 12.0483 10.6073 12.0482 10.9167V10.9167ZM12.0832 12.9467H9.74984V20.25H12.0832V12.9467ZM15.7698 12.9467H13.4482V20.25H15.7465V16.4175C15.7465 14.2825 18.529 14.0842 18.529 16.4175V20.25H20.8332V15.6242C20.8332 12.025 16.7148 12.1592 15.7465 13.9267L15.7698 12.9467V12.9467Z" fill="black"/>
</svg>
