<svg width="247" height="40" viewBox="0 0 247 40" fill="none" xmlns="http://www.w3.org/2000/svg">
<path d="M19.2676 6.89771C10.2179 12.2189 6.05581 15.9187 0.000488282 23.5924C6.93785 32.9766 12.1351 36.8116 24.784 39.9672C22.4722 37.7946 17.4768 31.7498 15.9898 24.952C14.5028 18.1541 17.5554 10.0834 19.2676 6.89771Z" fill="#045599"/>
<path d="M80.0068 16.9145C72.3313 6.67804 66.7534 3.1788 55.0635 -0.00012207C57.5018 2.53907 63.2131 9.18194 64.0774 15.8549C64.9968 22.9526 62.4719 30.2103 60.8196 33.2693C69.2784 28.41 73.5311 24.9112 80.0068 16.9145Z" fill="#F47F1F"/>
<path d="M47.1889 29.9702C50.0349 18.8583 49.635 13.5189 43.0517 5.45801L53.1449 6.29774C57.9326 10.7768 58.9132 14.61 58.5613 22.5526L47.1889 29.9702Z" fill="#F47F1F"/>
<path d="M45.0707 29.0556C39.2203 30.8265 33.143 29.6044 27.5224 25.0919L24.8042 32.1897C29.3126 37.4088 32.5729 39.3315 40.4138 39.9872C47.7089 40.2871 53.7649 35.2487 55.9636 30.7101C58.3628 25.7579 59.517 21.65 58.4617 15.175C55.5846 22.5026 51.5529 27.0364 45.0707 29.0556Z" fill="#4478BB"/>
<path d="M36.6346 10.3457C43.0229 6.34807 49.9896 6.07961 56.6813 10.0327C53.1922 4.56965 48.8906 1.35758 43.63 0.369701C37.6453 -0.769231 32.0902 0.869084 26.9811 5.31415C22.584 9.13973 19.8077 17.0661 21.1792 23.9682C21.9883 28.4918 24.123 32.7055 29.7593 37.0041C28.0137 32.7083 27.8005 28.4906 27.8005 26.7274C28.0624 19.952 31.2335 13.8941 36.6346 10.3457Z" fill="#045599"/>
<path d="M97.7382 4.18881L97.7382 6.16867L94.2877 6.16867C93.9013 6.16867 93.5972 6.19025 93.3754 6.23341C93.1572 6.27657 92.9819 6.36648 92.8495 6.50315C92.7172 6.63981 92.6313 6.81064 92.5919 7.01564C92.5526 7.21705 92.5329 7.50117 92.5329 7.86801L92.5329 9.29221L97.5021 9.29221L97.5021 11.3206L92.5329 11.3206L92.5329 12.9498C92.5329 13.1944 92.5401 13.3994 92.5544 13.5648C92.5723 13.7267 92.6063 13.8759 92.6563 14.0126C92.7064 14.1457 92.769 14.2518 92.8442 14.3309C92.9229 14.4064 93.0302 14.4711 93.1661 14.5251C93.3021 14.579 93.4577 14.615 93.633 14.633C93.8119 14.651 94.0301 14.66 94.2877 14.66L97.7382 14.66L97.7382 16.6344C96.4181 16.6992 95.2858 16.7315 94.3414 16.7315C93.955 16.7315 93.6348 16.7261 93.3808 16.7153C93.1304 16.7081 92.837 16.683 92.5007 16.6398C92.1644 16.5931 91.889 16.5301 91.6743 16.451C91.4597 16.3719 91.2361 16.2568 91.0035 16.1057C90.771 15.9547 90.5885 15.7731 90.4562 15.5609C90.3238 15.3451 90.2147 15.0771 90.1288 14.7571C90.0429 14.437 90 14.0719 90 13.6619L90 7.1613C90 6.7513 90.0429 6.38626 90.1288 6.06617C90.2147 5.74609 90.3238 5.47995 90.4562 5.26776C90.5885 5.05197 90.771 4.87035 91.0035 4.72289C91.2396 4.57184 91.4632 4.45675 91.6743 4.37763C91.889 4.29491 92.1644 4.23197 92.5007 4.18881C92.837 4.14566 93.1304 4.12048 93.3808 4.11329C93.6312 4.1025 93.9514 4.0971 94.3414 4.0971C95.3824 4.0971 96.5147 4.12767 97.7382 4.18881Z" fill="#045599"/>
<path d="M103.945 5.65078L107.916 13.349L107.916 4.12947L110.197 4.12947L110.197 14.9135C110.197 16.1903 109.685 16.8286 108.662 16.8286C108.19 16.8286 107.791 16.7063 107.465 16.4618C107.143 16.2172 106.823 15.7874 106.505 15.1724L102.539 7.44722L102.539 16.6992L100.258 16.6992L100.258 5.90973C100.258 4.63658 100.77 4 101.793 4C102.24 4 102.634 4.12767 102.974 4.38302C103.313 4.63478 103.637 5.05736 103.945 5.65078Z" fill="#045599"/>
<path d="M123.037 4.12947L119.469 15.1293C119.276 15.7263 119.022 16.1597 118.707 16.4294C118.396 16.6956 118.007 16.8286 117.542 16.8286C117.067 16.8286 116.675 16.6992 116.367 16.4402C116.063 16.1777 115.811 15.7407 115.61 15.1293L112.026 4.12947L114.73 4.12947L117.564 13.8292L120.429 4.12947L123.037 4.12947Z" fill="#045599"/>
<path d="M130.814 16.6722C130.32 16.7765 129.748 16.8286 129.097 16.8286C128.446 16.8286 127.872 16.7765 127.374 16.6722C126.877 16.5679 126.442 16.4024 126.07 16.1759C125.698 15.9457 125.387 15.6652 125.137 15.3343C124.886 14.9998 124.682 14.588 124.525 14.0989C124.371 13.6062 124.26 13.0649 124.192 12.4751C124.128 11.8817 124.095 11.1947 124.095 10.4143C124.095 9.63388 124.128 8.94875 124.192 8.35893C124.26 7.76551 124.371 7.22424 124.525 6.73512C124.682 6.2424 124.886 5.83061 125.137 5.49973C125.387 5.16526 125.698 4.88473 126.07 4.65815C126.442 4.42798 126.877 4.26074 127.374 4.15645C127.872 4.05215 128.446 4 129.097 4C129.748 4 130.32 4.05215 130.814 4.15645C131.311 4.26074 131.746 4.42798 132.118 4.65815C132.49 4.88473 132.801 5.16526 133.052 5.49973C133.302 5.83061 133.504 6.2406 133.658 6.72972C133.816 7.21884 133.927 7.76011 133.991 8.35353C134.059 8.94695 134.093 9.63388 134.093 10.4143C134.093 11.1947 134.059 11.8817 133.991 12.4751C133.927 13.0685 133.816 13.6098 133.658 14.0989C133.504 14.588 133.302 14.9998 133.052 15.3343C132.801 15.6652 132.49 15.9457 132.118 16.1759C131.746 16.4024 131.311 16.5679 130.814 16.6722ZM128.389 14.6546C128.6 14.7013 128.836 14.7247 129.097 14.7247C129.358 14.7247 129.594 14.7013 129.805 14.6546C130.016 14.6078 130.201 14.5503 130.358 14.4819C130.515 14.4136 130.655 14.3111 130.777 14.1744C130.898 14.0342 130.998 13.9011 131.077 13.7752C131.159 13.6493 131.229 13.4785 131.286 13.2627C131.344 13.0433 131.387 12.8491 131.415 12.6801C131.447 12.5075 131.471 12.2773 131.485 11.9896C131.499 11.6983 131.508 11.4501 131.512 11.2451C131.515 11.0365 131.517 10.7596 131.517 10.4143C131.517 10.069 131.515 9.79392 131.512 9.58892C131.508 9.38033 131.499 9.13217 131.485 8.84445C131.471 8.55314 131.447 8.32296 131.415 8.15393C131.387 7.9813 131.344 7.78529 131.286 7.5659C131.229 7.34652 131.159 7.17389 131.077 7.04801C130.998 6.92214 130.898 6.79086 130.777 6.6542C130.655 6.51753 130.515 6.41503 130.358 6.3467C130.201 6.27477 130.016 6.21543 129.805 6.16867C129.594 6.12192 129.358 6.09854 129.097 6.09854C128.836 6.09854 128.6 6.12192 128.389 6.16867C128.177 6.21543 127.991 6.27477 127.83 6.3467C127.673 6.41503 127.533 6.51753 127.412 6.6542C127.294 6.79086 127.194 6.92214 127.111 7.04801C127.029 7.17389 126.959 7.34652 126.902 7.5659C126.845 7.78529 126.8 7.9813 126.768 8.15393C126.739 8.32296 126.718 8.55314 126.704 8.84445C126.689 9.13217 126.68 9.38033 126.677 9.58892C126.673 9.79392 126.671 10.069 126.671 10.4143C126.671 10.7596 126.673 11.0365 126.677 11.2451C126.68 11.4501 126.689 11.6983 126.704 11.9896C126.718 12.2773 126.739 12.5075 126.768 12.6801C126.8 12.8491 126.845 13.0433 126.902 13.2627C126.959 13.4785 127.029 13.6493 127.111 13.7752C127.194 13.9011 127.294 14.0342 127.412 14.1744C127.533 14.3111 127.673 14.4136 127.83 14.4819C127.991 14.5503 128.177 14.6078 128.389 14.6546Z" fill="#045599"/>
<path d="M141.458 11.8547L141.458 16.6992L138.92 16.6992L138.92 11.8547L134.895 4.12947L137.627 4.12947L140.208 9.34076L142.859 4.12947L145.494 4.12947L141.458 11.8547Z" fill="#045599"/>
<path d="M151.55 6.07696C151.367 6.07696 151.212 6.07876 151.083 6.08236C150.958 6.08595 150.799 6.09674 150.605 6.11473C150.416 6.13271 150.255 6.15968 150.122 6.19565C149.99 6.22802 149.849 6.27657 149.698 6.34131C149.548 6.40244 149.427 6.47797 149.334 6.56788C149.241 6.65779 149.164 6.77288 149.103 6.91314C149.042 7.04981 149.012 7.20446 149.012 7.37709C149.012 7.5749 149.031 7.74932 149.071 7.90038C149.114 8.05143 149.178 8.1827 149.264 8.29419C149.353 8.40568 149.453 8.50279 149.564 8.5855C149.679 8.66463 149.82 8.73835 149.988 8.80669C150.16 8.87142 150.332 8.92897 150.503 8.97932C150.675 9.02967 150.881 9.08721 151.121 9.15195C151.149 9.15914 151.171 9.16454 151.185 9.16813C151.199 9.17173 151.219 9.17712 151.244 9.18432C151.269 9.19151 151.29 9.19691 151.308 9.2005C151.927 9.36954 152.442 9.55655 152.854 9.76155C153.269 9.96295 153.621 10.2147 153.911 10.5168C154.201 10.8189 154.41 11.1768 154.539 11.5904C154.668 12.0004 154.732 12.4895 154.732 13.0577C154.732 13.7411 154.63 14.3273 154.426 14.8164C154.226 15.3019 153.924 15.6921 153.519 15.987C153.115 16.2784 152.632 16.4924 152.07 16.629C151.509 16.7621 150.849 16.8286 150.09 16.8286C148.877 16.8286 147.674 16.6992 146.479 16.4402L146.726 14.428C147.999 14.615 149.09 14.7085 149.999 14.7085C150.35 14.7085 150.646 14.6869 150.89 14.6438C151.133 14.597 151.351 14.5179 151.544 14.4064C151.738 14.2913 151.881 14.1313 151.974 13.9263C152.07 13.7177 152.119 13.4587 152.119 13.1494C152.119 12.9876 152.097 12.8383 152.054 12.7017C152.011 12.565 151.968 12.4499 151.925 12.3564C151.883 12.2629 151.795 12.1694 151.663 12.0759C151.534 11.9788 151.437 11.9068 151.373 11.8601C151.312 11.8133 151.18 11.7522 150.976 11.6767C150.775 11.5976 150.641 11.5472 150.573 11.5256C150.505 11.504 150.344 11.4537 150.09 11.3746C150.069 11.3674 150.053 11.362 150.042 11.3584C149.691 11.2505 149.389 11.1498 149.135 11.0563C148.881 10.9628 148.622 10.8531 148.357 10.7272C148.096 10.6013 147.874 10.4719 147.691 10.3388C147.513 10.2021 147.341 10.0421 147.176 9.85866C147.015 9.67524 146.886 9.47563 146.79 9.25984C146.693 9.04405 146.616 8.7977 146.559 8.52077C146.505 8.24024 146.479 7.93274 146.479 7.59827C146.479 6.92573 146.575 6.35569 146.768 5.88815C146.962 5.42061 147.253 5.05017 147.643 4.77684C148.037 4.49991 148.5 4.3021 149.033 4.18342C149.57 4.06114 150.21 4 150.954 4C152.135 4 153.328 4.13127 154.533 4.39381L154.303 6.35209C153.154 6.16867 152.237 6.07696 151.55 6.07696Z" fill="#045599"/>
<path d="M171.35 4.12947L167.782 15.1293C167.589 15.7263 167.335 16.1597 167.02 16.4294C166.709 16.6956 166.32 16.8286 165.855 16.8286C165.379 16.8286 164.988 16.6992 164.68 16.4402C164.376 16.1777 164.124 15.7407 163.923 15.1293L160.339 4.12947L163.043 4.12947L165.877 13.8292L168.742 4.12947L171.35 4.12947Z" fill="#045599"/>
<path d="M173.155 16.6992L173.155 4.12947L175.699 4.12947L175.699 16.6992L173.155 16.6992Z" fill="#045599"/>
<path d="M182.955 6.07696C182.773 6.07696 182.617 6.07876 182.488 6.08236C182.363 6.08595 182.204 6.09674 182.011 6.11473C181.821 6.13271 181.66 6.15968 181.528 6.19565C181.395 6.22802 181.254 6.27657 181.104 6.34131C180.953 6.40244 180.832 6.47797 180.739 6.56788C180.646 6.65779 180.569 6.77288 180.508 6.91314C180.447 7.04981 180.417 7.20446 180.417 7.37709C180.417 7.5749 180.436 7.74932 180.476 7.90038C180.519 8.05143 180.583 8.1827 180.669 8.29419C180.758 8.40568 180.859 8.50279 180.969 8.5855C181.084 8.66463 181.225 8.73835 181.393 8.80669C181.565 8.87142 181.737 8.92897 181.909 8.97932C182.08 9.02967 182.286 9.08721 182.526 9.15195C182.554 9.15914 182.576 9.16454 182.59 9.16813C182.604 9.17173 182.624 9.17712 182.649 9.18432C182.674 9.19151 182.696 9.19691 182.714 9.2005C183.332 9.36954 183.848 9.55655 184.259 9.76155C184.674 9.96295 185.026 10.2147 185.316 10.5168C185.606 10.8189 185.815 11.1768 185.944 11.5904C186.073 12.0004 186.137 12.4895 186.137 13.0577C186.137 13.7411 186.035 14.3273 185.831 14.8164C185.631 15.3019 185.329 15.6921 184.924 15.987C184.52 16.2784 184.037 16.4924 183.476 16.629C182.914 16.7621 182.254 16.8286 181.495 16.8286C180.283 16.8286 179.079 16.6992 177.884 16.4402L178.131 14.428C179.404 14.615 180.495 14.7085 181.404 14.7085C181.755 14.7085 182.052 14.6869 182.295 14.6438C182.538 14.597 182.756 14.5179 182.95 14.4064C183.143 14.2913 183.286 14.1313 183.379 13.9263C183.476 13.7177 183.524 13.4587 183.524 13.1494C183.524 12.9876 183.502 12.8383 183.459 12.7017C183.416 12.565 183.374 12.4499 183.331 12.3564C183.288 12.2629 183.2 12.1694 183.068 12.0759C182.939 11.9788 182.842 11.9068 182.778 11.8601C182.717 11.8133 182.585 11.7522 182.381 11.6767C182.18 11.5976 182.046 11.5472 181.978 11.5256C181.91 11.504 181.749 11.4537 181.495 11.3746C181.474 11.3674 181.458 11.362 181.447 11.3584C181.096 11.2505 180.794 11.1498 180.54 11.0563C180.286 10.9628 180.027 10.8531 179.762 10.7272C179.501 10.6013 179.279 10.4719 179.097 10.3388C178.918 10.2021 178.746 10.0421 178.581 9.85866C178.42 9.67524 178.292 9.47563 178.195 9.25984C178.098 9.04405 178.022 8.7977 177.964 8.52077C177.911 8.24024 177.884 7.93274 177.884 7.59827C177.884 6.92573 177.98 6.35569 178.174 5.88815C178.367 5.42061 178.658 5.05017 179.048 4.77684C179.442 4.49991 179.905 4.3021 180.438 4.18342C180.975 4.06114 181.615 4 182.359 4C183.54 4 184.733 4.13127 185.939 4.39381L185.708 6.35209C184.56 6.16867 183.642 6.07696 182.955 6.07696Z" fill="#045599"/>
<path d="M188.264 16.6992L188.264 4.12947L190.807 4.12947L190.807 16.6992L188.264 16.6992Z" fill="#045599"/>
<path d="M199.878 16.6722C199.384 16.7765 198.811 16.8286 198.16 16.8286C197.509 16.8286 196.935 16.7765 196.438 16.6722C195.94 16.5679 195.506 16.4024 195.134 16.1759C194.762 15.9457 194.45 15.6652 194.2 15.3343C193.95 14.9998 193.746 14.588 193.588 14.0989C193.434 13.6062 193.323 13.0649 193.255 12.4751C193.191 11.8817 193.159 11.1947 193.159 10.4143C193.159 9.63388 193.191 8.94875 193.255 8.35893C193.323 7.76551 193.434 7.22424 193.588 6.73512C193.746 6.2424 193.95 5.83061 194.2 5.49973C194.45 5.16526 194.762 4.88473 195.134 4.65815C195.506 4.42798 195.94 4.26074 196.438 4.15645C196.935 4.05215 197.509 4 198.16 4C198.811 4 199.384 4.05215 199.878 4.15645C200.375 4.26074 200.809 4.42798 201.182 4.65815C201.554 4.88473 201.865 5.16526 202.115 5.49973C202.366 5.83061 202.568 6.2406 202.722 6.72972C202.879 7.21884 202.99 7.76011 203.054 8.35353C203.122 8.94695 203.156 9.63388 203.156 10.4143C203.156 11.1947 203.122 11.8817 203.054 12.4751C202.99 13.0685 202.879 13.6098 202.722 14.0989C202.568 14.588 202.366 14.9998 202.115 15.3343C201.865 15.6652 201.554 15.9457 201.182 16.1759C200.809 16.4024 200.375 16.5679 199.878 16.6722ZM197.452 14.6546C197.663 14.7013 197.899 14.7247 198.16 14.7247C198.421 14.7247 198.658 14.7013 198.869 14.6546C199.08 14.6078 199.264 14.5503 199.421 14.4819C199.579 14.4136 199.718 14.3111 199.84 14.1744C199.962 14.0342 200.062 13.9011 200.14 13.7752C200.223 13.6493 200.292 13.4785 200.35 13.2627C200.407 13.0433 200.45 12.8491 200.479 12.6801C200.511 12.5075 200.534 12.2773 200.548 11.9896C200.563 11.6983 200.572 11.4501 200.575 11.2451C200.579 11.0365 200.58 10.7596 200.58 10.4143C200.58 10.069 200.579 9.79392 200.575 9.58892C200.572 9.38033 200.563 9.13217 200.548 8.84445C200.534 8.55314 200.511 8.32296 200.479 8.15393C200.45 7.9813 200.407 7.78529 200.35 7.5659C200.292 7.34652 200.223 7.17389 200.14 7.04801C200.062 6.92214 199.962 6.79086 199.84 6.6542C199.718 6.51753 199.579 6.41503 199.421 6.3467C199.264 6.27477 199.08 6.21543 198.869 6.16867C198.658 6.12192 198.421 6.09854 198.16 6.09854C197.899 6.09854 197.663 6.12192 197.452 6.16867C197.241 6.21543 197.055 6.27477 196.894 6.3467C196.736 6.41503 196.597 6.51753 196.475 6.6542C196.357 6.79086 196.257 6.92214 196.175 7.04801C196.092 7.17389 196.023 7.34652 195.965 7.5659C195.908 7.78529 195.864 7.9813 195.831 8.15393C195.803 8.32296 195.781 8.55314 195.767 8.84445C195.753 9.13217 195.744 9.38033 195.74 9.58892C195.737 9.79392 195.735 10.069 195.735 10.4143C195.735 10.7596 195.737 11.0365 195.74 11.2451C195.744 11.4501 195.753 11.6983 195.767 11.9896C195.781 12.2773 195.803 12.5075 195.831 12.6801C195.864 12.8491 195.908 13.0433 195.965 13.2627C196.023 13.4785 196.092 13.6493 196.175 13.7752C196.257 13.9011 196.357 14.0342 196.475 14.1744C196.597 14.3111 196.736 14.4136 196.894 14.4819C197.055 14.5503 197.241 14.6078 197.452 14.6546Z" fill="#045599"/>
<path d="M209.217 5.65078L213.188 13.349L213.188 4.12947L215.469 4.12947L215.469 14.9135C215.469 16.1903 214.957 16.8286 213.934 16.8286C213.462 16.8286 213.063 16.7063 212.737 16.4618C212.415 16.2172 212.095 15.7874 211.777 15.1724L207.811 7.44722L207.811 16.6992L205.53 16.6992L205.53 5.90973C205.53 4.63658 206.042 4 207.065 4C207.512 4 207.906 4.12767 208.246 4.38302C208.585 4.63478 208.909 5.05736 209.217 5.65078Z" fill="#045599"/>
<path d="M93.7305 26.5442C93.3685 26.5442 92.9726 26.5729 92.5425 26.6305L92.5425 35.111C92.9475 35.1721 93.3434 35.2027 93.7305 35.2027C94.1927 35.2027 94.5995 35.1613 94.9506 35.0786C95.3054 34.9959 95.5993 34.8988 95.8322 34.7873C96.0687 34.6722 96.2658 34.496 96.4235 34.2586C96.5847 34.0212 96.7066 33.8091 96.789 33.622C96.8714 33.4314 96.9323 33.1545 96.9717 32.7913C97.0147 32.428 97.0398 32.1295 97.047 31.8957C97.0542 31.662 97.0578 31.3203 97.0578 30.8707C97.0578 30.4212 97.0542 30.0795 97.047 29.8457C97.0398 29.612 97.0147 29.3153 96.9717 28.9556C96.9323 28.5924 96.8714 28.3154 96.789 28.1248C96.7066 27.9342 96.5847 27.722 96.4235 27.4882C96.2658 27.2509 96.0687 27.0765 95.8322 26.965C95.5993 26.8499 95.3054 26.751 94.9506 26.6683C94.5995 26.5855 94.1927 26.5442 93.7305 26.5442ZM90 36.9398L90 24.8125C91.2327 24.5751 92.5927 24.4564 94.0799 24.4564C94.5995 24.4564 95.0743 24.4834 95.5043 24.5373C95.9343 24.5913 96.3213 24.6704 96.6654 24.7747C97.013 24.8754 97.3229 25.0085 97.5953 25.1739C97.8712 25.3394 98.1113 25.5228 98.3156 25.7242C98.5198 25.9256 98.6954 26.1647 98.8423 26.4417C98.9928 26.7186 99.1165 27.0081 99.2132 27.3102C99.3136 27.6087 99.3924 27.9522 99.4497 28.3406C99.5071 28.729 99.5465 29.1228 99.568 29.5221C99.5931 29.9213 99.6056 30.3708 99.6056 30.8707C99.6056 31.3706 99.5931 31.8202 99.568 32.2194C99.5465 32.6186 99.5071 33.0124 99.4497 33.4009C99.3924 33.7893 99.3136 34.1345 99.2132 34.4366C99.1165 34.7351 98.9928 35.0229 98.8423 35.2998C98.6954 35.5767 98.5198 35.8159 98.3156 36.0173C98.1113 36.2187 97.8712 36.4021 97.5953 36.5675C97.3229 36.733 97.013 36.8679 96.6654 36.9722C96.3213 37.0729 95.9343 37.1502 95.5043 37.2041C95.0743 37.2581 94.5995 37.285 94.0799 37.285C92.5999 37.285 91.2399 37.17 90 36.9398Z" fill="#045599"/>
<path d="M101.969 37.1556L101.969 24.5859L104.516 24.5859L104.516 37.1556L101.969 37.1556Z" fill="#045599"/>
<path d="M111.882 32.0899L111.882 30.1209L116.332 30.1209L116.332 34.8305C116.332 35.0858 116.309 35.3178 116.263 35.5264C116.216 35.735 116.155 35.9184 116.08 36.0766C116.005 36.2313 115.901 36.3715 115.768 36.4974C115.635 36.6197 115.499 36.724 115.36 36.8103C115.223 36.893 115.051 36.965 114.843 37.0261C114.639 37.0836 114.444 37.1286 114.258 37.161C114.075 37.1969 113.849 37.2239 113.58 37.2419C113.312 37.2599 113.066 37.2707 112.844 37.2743C112.625 37.2814 112.36 37.285 112.048 37.285C111.453 37.285 110.921 37.2437 110.452 37.161C109.982 37.0782 109.565 36.9578 109.199 36.7995C108.838 36.6377 108.524 36.4255 108.259 36.1629C107.997 35.9004 107.775 35.6037 107.592 35.2728C107.413 34.9383 107.268 34.5445 107.157 34.0914C107.049 33.6346 106.972 33.1491 106.926 32.6348C106.879 32.1169 106.856 31.5289 106.856 30.8707C106.856 30.2054 106.879 29.6138 106.926 29.0959C106.972 28.5744 107.049 28.0853 107.157 27.6285C107.268 27.1718 107.413 26.7779 107.592 26.4471C107.775 26.1162 107.997 25.8213 108.259 25.5623C108.524 25.3034 108.839 25.0948 109.205 24.9365C109.57 24.7783 109.986 24.6596 110.452 24.5805C110.921 24.4978 111.453 24.4564 112.048 24.4564C113.521 24.4564 114.856 24.5805 116.053 24.8287L115.833 26.7977C114.876 26.6503 113.77 26.5765 112.516 26.5765C112.219 26.5765 111.946 26.5927 111.699 26.6251C111.452 26.6575 111.231 26.7132 111.038 26.7923C110.848 26.8679 110.676 26.9488 110.522 27.0351C110.371 27.1178 110.242 27.2329 110.135 27.3804C110.027 27.5278 109.932 27.6645 109.85 27.7904C109.771 27.9162 109.707 28.0853 109.656 28.2975C109.61 28.5061 109.57 28.6895 109.538 28.8477C109.509 29.006 109.488 29.2164 109.474 29.4789C109.463 29.7414 109.456 29.9644 109.452 30.1478C109.449 30.3277 109.447 30.5686 109.447 30.8707C109.447 31.1764 109.449 31.421 109.452 31.6044C109.456 31.7842 109.463 32.0072 109.474 32.2734C109.488 32.5359 109.509 32.7463 109.538 32.9045C109.57 33.0628 109.61 33.248 109.656 33.4602C109.707 33.6688 109.771 33.836 109.85 33.9619C109.929 34.0842 110.022 34.2208 110.129 34.3719C110.24 34.5194 110.371 34.6344 110.522 34.7172C110.672 34.7999 110.842 34.8808 111.032 34.9599C111.226 35.0355 111.445 35.0894 111.688 35.1218C111.935 35.1541 112.208 35.1703 112.505 35.1703C112.824 35.1703 113.08 35.1487 113.274 35.1056C113.471 35.0588 113.616 34.9833 113.709 34.879C113.802 34.7747 113.862 34.665 113.887 34.5499C113.915 34.4348 113.93 34.2766 113.93 34.0752L113.93 32.0899L111.882 32.0899Z" fill="#045599"/>
<path d="M118.765 37.1556L118.765 24.5859L121.312 24.5859L121.312 37.1556L118.765 37.1556Z" fill="#045599"/>
<path d="M131.789 24.5859L131.789 26.6467L128.709 26.6467L128.709 37.1556L126.156 37.1556L126.156 26.6467L123.092 26.6467L123.092 24.5859L131.789 24.5859Z" fill="#045599"/>
<path d="M134.14 37.1556L131.517 37.1556L135.242 26.2097C135.45 25.6055 135.722 25.1631 136.059 24.8826C136.396 24.5985 136.81 24.4564 137.3 24.4564C138.268 24.4564 138.949 25.0408 139.343 26.2097L143.004 37.1556L140.305 37.1556L139.348 34.0428L135.075 34.0428L134.14 37.1556ZM135.661 32.0845L138.752 32.0845L137.193 27.0027L135.661 32.0845Z" fill="#045599"/>
<path d="M152.165 35.1164L152.165 37.1016C150.814 37.1592 149.746 37.1879 148.961 37.1879C148.574 37.1879 148.254 37.1825 147.999 37.1718C147.748 37.1646 147.455 37.1394 147.118 37.0962C146.781 37.0495 146.505 36.9865 146.29 36.9074C146.075 36.8283 145.851 36.7132 145.618 36.5622C145.385 36.4111 145.202 36.2295 145.07 36.0173C144.937 35.8015 144.828 35.5336 144.742 35.2135C144.656 34.8934 144.613 34.5283 144.613 34.1183L144.613 24.5859L147.161 24.5859L147.161 33.4062C147.161 33.7767 147.18 34.0644 147.22 34.2694C147.259 34.4744 147.345 34.6452 147.478 34.7819C147.61 34.9186 147.786 35.0085 148.005 35.0516C148.223 35.0948 148.526 35.1164 148.913 35.1164L152.165 35.1164Z" fill="#045599"/>
<path d="M165.973 24.6452L165.973 26.6251L162.517 26.6251C162.13 26.6251 161.825 26.6467 161.603 26.6898C161.384 26.733 161.209 26.8229 161.076 26.9596C160.944 27.0962 160.858 27.2671 160.818 27.4721C160.779 27.6735 160.759 27.9576 160.759 28.3244L160.759 29.7486L165.737 29.7486L165.737 31.777L160.759 31.777L160.759 33.4062C160.759 33.6508 160.766 33.8558 160.781 34.0212C160.799 34.1831 160.833 34.3323 160.883 34.469C160.933 34.6021 160.996 34.7082 161.071 34.7873C161.15 34.8628 161.257 34.9276 161.393 34.9815C161.53 35.0355 161.685 35.0714 161.861 35.0894C162.04 35.1074 162.259 35.1164 162.517 35.1164L165.973 35.1164L165.973 37.0908C164.651 37.1556 163.517 37.1879 162.571 37.1879C162.184 37.1879 161.863 37.1825 161.608 37.1718C161.358 37.1646 161.064 37.1394 160.727 37.0962C160.39 37.0495 160.114 36.9865 159.899 36.9074C159.684 36.8283 159.46 36.7132 159.227 36.5622C158.994 36.4111 158.811 36.2295 158.679 36.0173C158.546 35.8015 158.437 35.5336 158.351 35.2135C158.265 34.8934 158.222 34.5283 158.222 34.1183L158.222 27.6177C158.222 27.2077 158.265 26.8427 158.351 26.5226C158.437 26.2025 158.546 25.9364 158.679 25.7242C158.811 25.5084 158.994 25.3268 159.227 25.1793C159.464 25.0283 159.688 24.9132 159.899 24.834C160.114 24.7513 160.39 24.6884 160.727 24.6452C161.064 24.6021 161.358 24.5769 161.608 24.5697C161.859 24.5589 162.18 24.5535 162.571 24.5535C163.613 24.5535 164.748 24.5841 165.973 24.6452Z" fill="#045599"/>
<path d="M173.263 28.6427L175.768 24.5859L178.514 24.5859L174.628 30.6873L178.751 37.1556L175.821 37.1556L173.15 32.8452L170.554 37.1556L167.732 37.1556L171.806 30.7574L167.882 24.5859L170.79 24.5859L173.263 28.6427Z" fill="#045599"/>
<path d="M187.805 34.933L188.036 36.9074C187.104 37.1592 186.013 37.285 184.763 37.285C184.067 37.285 183.456 37.2311 182.93 37.1232C182.406 37.0153 181.951 36.8445 181.564 36.6107C181.181 36.3733 180.862 36.0892 180.608 35.7583C180.353 35.4239 180.149 35.0085 179.995 34.5122C179.841 34.0159 179.731 33.4782 179.667 32.8991C179.606 32.3201 179.575 31.644 179.575 30.8707C179.575 30.2953 179.592 29.7756 179.624 29.3117C179.66 28.8477 179.719 28.4071 179.801 27.99C179.884 27.5692 179.989 27.1987 180.118 26.8786C180.251 26.555 180.414 26.2583 180.608 25.9885C180.805 25.7188 181.034 25.4922 181.296 25.3088C181.557 25.1218 181.858 24.9635 182.199 24.834C182.539 24.7046 182.921 24.6093 183.344 24.5481C183.77 24.487 184.243 24.4564 184.763 24.4564C186.002 24.4564 187.094 24.5841 188.036 24.8394L187.81 26.8085C186.932 26.6647 186.072 26.5927 185.23 26.5927C184.933 26.5927 184.66 26.6089 184.413 26.6413C184.166 26.6736 183.946 26.7294 183.752 26.8085C183.562 26.884 183.392 26.9632 183.241 27.0459C183.091 27.1286 182.96 27.2437 182.849 27.3911C182.741 27.5386 182.648 27.6753 182.569 27.8011C182.491 27.9234 182.426 28.0907 182.376 28.3029C182.329 28.5114 182.29 28.6949 182.258 28.8531C182.229 29.0078 182.208 29.2182 182.193 29.4843C182.182 29.7468 182.175 29.968 182.172 30.1478C182.168 30.3241 182.166 30.565 182.166 30.8707C182.166 31.3167 182.17 31.6602 182.177 31.9011C182.184 32.1421 182.208 32.4406 182.247 32.7966C182.286 33.1491 182.344 33.4206 182.419 33.6112C182.498 33.7983 182.611 34.0069 182.758 34.237C182.905 34.4636 183.086 34.6326 183.301 34.7441C183.516 34.8556 183.784 34.9509 184.107 35.0301C184.433 35.1092 184.807 35.1487 185.23 35.1487C186.087 35.1487 186.945 35.0768 187.805 34.933Z" fill="#045599"/>
<path d="M197.075 29.6893L197.075 24.5859L199.634 24.5859L199.634 37.1556L197.075 37.1556L197.075 31.777L192.56 31.777L192.56 37.1556L190.012 37.1556L190.012 24.5859L192.56 24.5859L192.56 29.6893L197.075 29.6893Z" fill="#045599"/>
<path d="M204.053 37.1556L201.43 37.1556L205.155 26.2097C205.363 25.6055 205.635 25.1631 205.972 24.8826C206.309 24.5985 206.723 24.4564 207.214 24.4564C208.182 24.4564 208.862 25.0408 209.257 26.2097L212.917 37.1556L210.219 37.1556L209.262 34.0428L204.989 34.0428L204.053 37.1556ZM205.575 32.0845L208.665 32.0845L207.106 27.0027L205.575 32.0845Z" fill="#045599"/>
<path d="M218.257 26.1072L222.234 33.8055L222.234 24.5859L224.519 24.5859L224.519 35.3699C224.519 36.6467 224.007 37.285 222.982 37.285C222.509 37.285 222.109 37.1628 221.783 36.9182C221.46 36.6736 221.14 36.2439 220.821 35.6289L216.848 27.9036L216.848 37.1556L214.564 37.1556L214.564 26.3661C214.564 25.093 215.076 24.4564 216.101 24.4564C216.549 24.4564 216.943 24.5841 217.284 24.8394C217.624 25.0912 217.949 25.5138 218.257 26.1072Z" fill="#045599"/>
<path d="M231.903 32.0899L231.903 30.1209L236.354 30.1209L236.354 34.8305C236.354 35.0858 236.331 35.3178 236.284 35.5264C236.238 35.735 236.177 35.9184 236.102 36.0766C236.026 36.2313 235.922 36.3715 235.79 36.4974C235.657 36.6197 235.521 36.724 235.381 36.8103C235.245 36.893 235.073 36.965 234.865 37.0261C234.661 37.0836 234.466 37.1286 234.279 37.161C234.097 37.1969 233.871 37.2239 233.602 37.2419C233.333 37.2599 233.088 37.2707 232.866 37.2743C232.647 37.2814 232.382 37.285 232.07 37.285C231.475 37.285 230.943 37.2437 230.474 37.161C230.004 37.0782 229.587 36.9578 229.221 36.7995C228.859 36.6377 228.546 36.4255 228.281 36.1629C228.019 35.9004 227.797 35.6037 227.614 35.2728C227.435 34.9383 227.29 34.5445 227.179 34.0914C227.071 33.6346 226.994 33.1491 226.947 32.6348C226.901 32.1169 226.878 31.5289 226.878 30.8707C226.878 30.2054 226.901 29.6138 226.947 29.0959C226.994 28.5744 227.071 28.0853 227.179 27.6285C227.29 27.1718 227.435 26.7779 227.614 26.4471C227.797 26.1162 228.019 25.8213 228.281 25.5623C228.546 25.3034 228.861 25.0948 229.227 24.9365C229.592 24.7783 230.008 24.6596 230.474 24.5805C230.943 24.4978 231.475 24.4564 232.07 24.4564C233.543 24.4564 234.878 24.5805 236.075 24.8287L235.854 26.7977C234.897 26.6503 233.792 26.5765 232.538 26.5765C232.24 26.5765 231.968 26.5927 231.721 26.6251C231.473 26.6575 231.253 26.7132 231.06 26.7923C230.87 26.8679 230.698 26.9488 230.544 27.0351C230.393 27.1178 230.264 27.2329 230.156 27.3804C230.049 27.5278 229.954 27.6645 229.872 27.7904C229.793 27.9162 229.728 28.0853 229.678 28.2975C229.632 28.5061 229.592 28.6895 229.56 28.8477C229.531 29.006 229.51 29.2164 229.495 29.4789C229.485 29.7414 229.477 29.9644 229.474 30.1478C229.47 30.3277 229.468 30.5686 229.468 30.8707C229.468 31.1764 229.47 31.421 229.474 31.6044C229.477 31.7842 229.485 32.0072 229.495 32.2734C229.51 32.5359 229.531 32.7463 229.56 32.9045C229.592 33.0628 229.632 33.248 229.678 33.4602C229.728 33.6688 229.793 33.836 229.872 33.9619C229.95 34.0842 230.044 34.2208 230.151 34.3719C230.262 34.5194 230.393 34.6344 230.544 34.7172C230.694 34.7999 230.864 34.8808 231.054 34.9599C231.248 35.0355 231.466 35.0894 231.71 35.1218C231.957 35.1541 232.23 35.1703 232.527 35.1703C232.846 35.1703 233.102 35.1487 233.296 35.1056C233.493 35.0588 233.638 34.9833 233.731 34.879C233.824 34.7747 233.883 34.665 233.908 34.5499C233.937 34.4348 233.951 34.2766 233.951 34.0752L233.951 32.0899L231.903 32.0899Z" fill="#045599"/>
<path d="M246.489 24.6452L246.489 26.6251L243.033 26.6251C242.646 26.6251 242.341 26.6467 242.119 26.6898C241.9 26.733 241.725 26.8229 241.592 26.9596C241.46 27.0962 241.374 27.2671 241.334 27.4721C241.295 27.6735 241.275 27.9576 241.275 28.3244L241.275 29.7486L246.253 29.7486L246.253 31.777L241.275 31.777L241.275 33.4062C241.275 33.6508 241.282 33.8558 241.297 34.0212C241.315 34.1831 241.349 34.3323 241.399 34.469C241.449 34.6021 241.512 34.7082 241.587 34.7873C241.666 34.8628 241.773 34.9276 241.909 34.9815C242.046 35.0355 242.201 35.0714 242.377 35.0894C242.556 35.1074 242.775 35.1164 243.033 35.1164L246.489 35.1164L246.489 37.0908C245.167 37.1556 244.033 37.1879 243.087 37.1879C242.7 37.1879 242.379 37.1825 242.124 37.1718C241.874 37.1646 241.58 37.1394 241.243 37.0962C240.906 37.0495 240.63 36.9865 240.415 36.9074C240.2 36.8283 239.976 36.7132 239.743 36.5622C239.51 36.4111 239.327 36.2295 239.195 36.0173C239.062 35.8015 238.953 35.5336 238.867 35.2135C238.781 34.8934 238.738 34.5283 238.738 34.1183L238.738 27.6177C238.738 27.2077 238.781 26.8427 238.867 26.5226C238.953 26.2025 239.062 25.9364 239.195 25.7242C239.327 25.5084 239.51 25.3268 239.743 25.1793C239.98 25.0283 240.204 24.9132 240.415 24.834C240.63 24.7513 240.906 24.6884 241.243 24.6452C241.58 24.6021 241.874 24.5769 242.124 24.5697C242.375 24.5589 242.696 24.5535 243.087 24.5535C244.129 24.5535 245.264 24.5841 246.489 24.6452Z" fill="#045599"/>
</svg>
