<svg width="270" height="270" viewBox="0 0 270 270" fill="none" xmlns="http://www.w3.org/2000/svg">
<path d="M135 0L251.913 67.5V202.5L135 270L18.0866 202.5V67.5L135 0Z" fill="#F47F1F"/>
<path d="M83.3457 128.152C85.0577 128.152 86.4177 128.432 87.4257 128.992C88.4337 129.536 89.1537 130.432 89.5857 131.68C90.0337 132.928 90.2577 134.608 90.2577 136.72C90.2577 138.832 90.0337 140.512 89.5857 141.76C89.1537 143.008 88.4337 143.912 87.4257 144.472C86.4177 145.016 85.0577 145.288 83.3457 145.288C82.2097 145.288 81.2657 145.24 80.5137 145.144C79.7777 145.048 79.0577 144.888 78.3537 144.664L78.6177 142.432C79.3057 142.528 80.0017 142.592 80.7057 142.624C81.4097 142.656 82.2897 142.672 83.3457 142.672C84.3217 142.672 85.0897 142.496 85.6497 142.144C86.2097 141.776 86.6017 141.16 86.8257 140.296C87.0657 139.432 87.1777 138.24 87.1617 136.72C87.1777 135.2 87.0657 134.008 86.8257 133.144C86.6017 132.28 86.2097 131.672 85.6497 131.32C85.0897 130.952 84.3217 130.768 83.3457 130.768C82.6737 130.768 82.0897 130.776 81.5937 130.792C81.0977 130.808 80.6257 130.824 80.1777 130.84C79.7457 130.856 79.2737 130.888 78.7617 130.936L78.4977 128.68C78.9777 128.552 79.4417 128.456 79.8897 128.392C80.3537 128.312 80.8577 128.256 81.4017 128.224C81.9617 128.176 82.6097 128.152 83.3457 128.152ZM89.4897 135.256V137.368L80.2257 137.344V135.256H89.4897ZM110.296 128.44C111.048 128.44 111.432 128.824 111.448 129.592L112.096 145H109.24L108.688 130.816H108.208L105.112 141.928C104.984 142.584 104.576 142.912 103.888 142.912H101.776C101.088 142.912 100.672 142.584 100.528 141.928L97.4082 130.816H96.9762L96.4482 145H93.5922L94.2162 129.592C94.2482 128.824 94.6322 128.44 95.3682 128.44H98.3682C99.0082 128.44 99.4082 128.768 99.5682 129.424L102.112 138.496C102.224 138.88 102.312 139.264 102.376 139.648C102.456 140.032 102.544 140.416 102.64 140.8H103C103.096 140.416 103.184 140.032 103.264 139.648C103.344 139.264 103.432 138.872 103.528 138.472L106.072 129.424C106.216 128.768 106.624 128.44 107.296 128.44H110.296ZM129.145 128.44V145H126.265V134.224C126.265 133.872 126.281 133.52 126.313 133.168C126.345 132.816 126.385 132.472 126.433 132.136H126.289C126.177 132.472 126.041 132.816 125.881 133.168C125.721 133.504 125.561 133.832 125.401 134.152L118.993 145H116.017V128.44H118.897V139.072C118.897 139.424 118.881 139.784 118.849 140.152C118.817 140.52 118.785 140.88 118.753 141.232H118.849C118.993 140.896 119.145 140.56 119.305 140.224C119.481 139.872 119.657 139.536 119.833 139.216L126.169 128.44H129.145ZM140.116 128.44V145H137.116V128.44H140.116ZM145.252 128.44V130.888H131.98V128.44H145.252ZM151.319 128.392C152.151 128.392 152.999 128.392 153.863 128.392C154.743 128.392 155.599 128.408 156.431 128.44C157.279 128.472 158.087 128.52 158.855 128.584L158.711 130.816H152.231C151.783 130.816 151.455 130.928 151.247 131.152C151.039 131.376 150.935 131.728 150.935 132.208V141.232C150.935 141.712 151.039 142.064 151.247 142.288C151.455 142.512 151.783 142.624 152.231 142.624H158.711L158.855 144.856C158.087 144.92 157.279 144.968 156.431 145C155.599 145.016 154.743 145.024 153.863 145.024C152.999 145.04 152.151 145.048 151.319 145.048C150.295 145.048 149.471 144.768 148.847 144.208C148.239 143.632 147.935 142.864 147.935 141.904V131.536C147.935 130.576 148.239 129.816 148.847 129.256C149.471 128.68 150.295 128.392 151.319 128.392ZM148.343 135.232H157.799V137.44H148.343V135.232ZM165.294 128.44V145H162.27V128.44H165.294ZM172.182 134.992V137.344H165.102V134.992H172.182ZM174.918 128.44V145H171.918V128.44H174.918ZM185.9 128.44V145H182.9V128.44H185.9ZM191.036 128.44V130.888H177.764V128.44H191.036Z" fill="white"/>
</svg>
