<svg width="270" height="270" viewBox="0 0 270 270" fill="none" xmlns="http://www.w3.org/2000/svg">
<path d="M135 0L251.913 67.5V202.5L135 270L18.0866 202.5V67.5L135 0Z" fill="#F47F1F"/>
<path d="M76.1464 128.44V145H73.2664V134.224C73.2664 133.872 73.2824 133.52 73.3144 133.168C73.3464 132.816 73.3864 132.472 73.4344 132.136H73.2904C73.1784 132.472 73.0424 132.816 72.8824 133.168C72.7224 133.504 72.5624 133.832 72.4024 134.152L65.9944 145H63.0184V128.44H65.8984V139.072C65.8984 139.424 65.8824 139.784 65.8504 140.152C65.8184 140.52 65.7864 140.88 65.7544 141.232H65.8504C65.9944 140.896 66.1464 140.56 66.3064 140.224C66.4824 139.872 66.6584 139.536 66.8344 139.216L73.1704 128.44H76.1464ZM83.3974 128.44V145H80.3734V128.44H83.3974ZM90.2854 134.992V137.344H83.2054V134.992H90.2854ZM93.0214 128.44V145H90.0214V128.44H93.0214ZM103.14 128.248C104.564 128.248 105.692 128.376 106.524 128.632C107.356 128.872 107.956 129.304 108.324 129.928C108.692 130.552 108.876 131.432 108.876 132.568C108.876 133.752 108.652 134.656 108.204 135.28C107.756 135.904 107.02 136.264 105.996 136.36V136.456C107.26 136.568 108.14 137 108.636 137.752C109.148 138.504 109.404 139.544 109.404 140.872C109.404 142.008 109.212 142.888 108.828 143.512C108.46 144.136 107.868 144.576 107.052 144.832C106.252 145.072 105.204 145.192 103.908 145.192C102.9 145.192 102.02 145.184 101.268 145.168C100.532 145.168 99.8437 145.152 99.2037 145.12C98.5797 145.088 97.9317 145.048 97.2597 145L97.6197 142.816C97.9877 142.832 98.6917 142.848 99.7317 142.864C100.788 142.88 102.012 142.888 103.404 142.888C104.172 142.888 104.772 142.824 105.204 142.696C105.636 142.552 105.94 142.296 106.116 141.928C106.292 141.544 106.38 141.008 106.38 140.32C106.38 139.552 106.284 138.968 106.092 138.568C105.916 138.152 105.604 137.864 105.156 137.704C104.708 137.528 104.084 137.44 103.284 137.44H97.5957V135.4H103.26C103.948 135.4 104.484 135.336 104.868 135.208C105.268 135.064 105.556 134.816 105.732 134.464C105.908 134.112 105.996 133.608 105.996 132.952C105.996 132.296 105.9 131.792 105.708 131.44C105.532 131.088 105.228 130.856 104.796 130.744C104.364 130.616 103.764 130.552 102.996 130.552C102.148 130.552 101.396 130.552 100.74 130.552C100.084 130.552 99.4997 130.56 98.9877 130.576C98.4757 130.576 98.0197 130.592 97.6197 130.624L97.2597 128.44C97.8677 128.376 98.4517 128.336 99.0117 128.32C99.5717 128.288 100.18 128.272 100.836 128.272C101.492 128.256 102.26 128.248 103.14 128.248ZM100.188 128.44V145H97.2597V128.44H100.188ZM116.167 128.392C116.999 128.392 117.847 128.392 118.711 128.392C119.591 128.392 120.447 128.408 121.279 128.44C122.127 128.472 122.935 128.52 123.703 128.584L123.559 130.816H117.079C116.631 130.816 116.303 130.928 116.095 131.152C115.887 131.376 115.783 131.728 115.783 132.208V141.232C115.783 141.712 115.887 142.064 116.095 142.288C116.303 142.512 116.631 142.624 117.079 142.624H123.559L123.703 144.856C122.935 144.92 122.127 144.968 121.279 145C120.447 145.016 119.591 145.024 118.711 145.024C117.847 145.04 116.999 145.048 116.167 145.048C115.143 145.048 114.319 144.768 113.695 144.208C113.087 143.632 112.783 142.864 112.783 141.904V131.536C112.783 130.576 113.087 129.816 113.695 129.256C114.319 128.68 115.143 128.392 116.167 128.392ZM113.191 135.232H122.647V137.44H113.191V135.232ZM133.169 128.152C133.921 128.152 134.561 128.176 135.089 128.224C135.617 128.256 136.105 128.312 136.553 128.392C137.001 128.456 137.465 128.552 137.945 128.68L137.681 130.912C137.185 130.88 136.721 130.856 136.289 130.84C135.857 130.808 135.393 130.784 134.897 130.768C134.417 130.752 133.841 130.744 133.169 130.744C132.241 130.744 131.513 130.928 130.985 131.296C130.457 131.664 130.081 132.28 129.857 133.144C129.649 134.008 129.545 135.2 129.545 136.72C129.545 138.24 129.649 139.432 129.857 140.296C130.081 141.16 130.457 141.776 130.985 142.144C131.513 142.512 132.241 142.696 133.169 142.696C134.241 142.696 135.137 142.68 135.857 142.648C136.593 142.6 137.313 142.536 138.017 142.456L138.281 144.664C137.561 144.888 136.817 145.048 136.049 145.144C135.281 145.24 134.321 145.288 133.169 145.288C131.505 145.288 130.177 145.016 129.185 144.472C128.193 143.912 127.473 143.008 127.025 141.76C126.593 140.512 126.377 138.832 126.377 136.72C126.377 134.608 126.593 132.928 127.025 131.68C127.473 130.432 128.193 129.536 129.185 128.992C130.177 128.432 131.505 128.152 133.169 128.152ZM148.123 128.44V145H145.123V128.44H148.123ZM153.259 128.44V130.888H139.987V128.44H153.259ZM162.092 128.128C163.372 128.128 164.452 128.272 165.332 128.56C166.212 128.832 166.916 129.296 167.444 129.952C167.972 130.608 168.356 131.488 168.596 132.592C168.852 133.696 168.98 135.072 168.98 136.72C168.98 138.352 168.852 139.728 168.596 140.848C168.356 141.952 167.972 142.832 167.444 143.488C166.916 144.144 166.212 144.616 165.332 144.904C164.452 145.176 163.372 145.312 162.092 145.312C160.844 145.312 159.78 145.176 158.9 144.904C158.02 144.616 157.308 144.144 156.764 143.488C156.22 142.832 155.828 141.952 155.588 140.848C155.348 139.728 155.228 138.352 155.228 136.72C155.228 135.072 155.348 133.696 155.588 132.592C155.828 131.488 156.22 130.608 156.764 129.952C157.308 129.296 158.02 128.832 158.9 128.56C159.78 128.272 160.844 128.128 162.092 128.128ZM162.092 130.576C161.148 130.576 160.404 130.768 159.86 131.152C159.332 131.52 158.956 132.152 158.732 133.048C158.508 133.928 158.396 135.152 158.396 136.72C158.396 138.288 158.508 139.52 158.732 140.416C158.956 141.296 159.332 141.928 159.86 142.312C160.404 142.68 161.148 142.864 162.092 142.864C163.052 142.864 163.796 142.68 164.324 142.312C164.868 141.928 165.252 141.296 165.476 140.416C165.7 139.52 165.812 138.288 165.812 136.72C165.812 135.152 165.7 133.928 165.476 133.048C165.252 132.152 164.868 131.52 164.324 131.152C163.796 130.768 163.052 130.576 162.092 130.576ZM178.693 128.224C180.133 128.224 181.269 128.384 182.101 128.704C182.949 129.008 183.549 129.544 183.901 130.312C184.253 131.064 184.429 132.136 184.429 133.528C184.429 134.92 184.253 136 183.901 136.768C183.565 137.536 183.005 138.072 182.221 138.376C181.437 138.68 180.381 138.832 179.053 138.832C178.333 138.832 177.637 138.808 176.965 138.76C176.309 138.712 175.693 138.648 175.117 138.568C174.557 138.488 174.077 138.408 173.677 138.328C173.277 138.232 172.997 138.152 172.837 138.088L172.909 136.48C173.821 136.48 174.757 136.48 175.717 136.48C176.693 136.48 177.661 136.48 178.621 136.48C179.325 136.464 179.877 136.376 180.277 136.216C180.693 136.056 180.981 135.768 181.141 135.352C181.317 134.92 181.405 134.312 181.405 133.528C181.405 132.744 181.317 132.144 181.141 131.728C180.981 131.296 180.693 131 180.277 130.84C179.877 130.664 179.325 130.576 178.621 130.576C177.213 130.576 176.005 130.584 174.997 130.6C173.989 130.616 173.301 130.64 172.933 130.672L172.597 128.44C173.237 128.376 173.837 128.328 174.397 128.296C174.973 128.264 175.589 128.248 176.245 128.248C176.917 128.232 177.733 128.224 178.693 128.224ZM175.597 128.44V145H172.597V128.44H175.597ZM193.559 134.824C194.999 134.824 196.143 134.992 196.991 135.328C197.839 135.648 198.439 136.184 198.791 136.936C199.143 137.688 199.319 138.72 199.319 140.032C199.319 141.392 199.135 142.448 198.767 143.2C198.415 143.936 197.855 144.456 197.087 144.76C196.319 145.048 195.303 145.192 194.039 145.192C193.079 145.192 192.247 145.184 191.543 145.168C190.839 145.168 190.191 145.152 189.599 145.12C189.007 145.088 188.383 145.048 187.727 145L188.063 142.768C188.431 142.784 189.103 142.8 190.079 142.816C191.055 142.832 192.215 142.84 193.559 142.84C194.295 142.84 194.855 142.768 195.239 142.624C195.639 142.464 195.919 142.176 196.079 141.76C196.239 141.328 196.319 140.728 196.319 139.96C196.319 139.224 196.247 138.64 196.103 138.208C195.959 137.776 195.687 137.472 195.287 137.296C194.903 137.104 194.327 137.008 193.559 137.008H188.039V134.824H193.559ZM190.679 128.44V145H187.655V128.44H190.679ZM204.959 128.44V145H201.959V128.44H204.959Z" fill="white"/>
</svg>
