<svg width="270" height="270" viewBox="0 0 270 270" fill="none" xmlns="http://www.w3.org/2000/svg">
<path d="M135 0L251.913 67.5V202.5L135 270L18.0866 202.5V67.5L135 0Z" fill="#F47F1F"/>
<path d="M76.1451 128.44C75.8091 129.464 75.5051 130.384 75.2331 131.2C74.9611 132 74.6811 132.704 74.3931 133.312C74.1211 133.92 73.8251 134.432 73.5051 134.848C73.1851 135.264 72.8091 135.592 72.3771 135.832C71.9451 136.072 71.4251 136.232 70.8171 136.312V136.408C71.4571 136.488 72.0091 136.648 72.4731 136.888C72.9371 137.128 73.3371 137.472 73.6731 137.92C74.0251 138.368 74.3451 138.92 74.6331 139.576C74.9371 140.232 75.2411 141.008 75.5451 141.904C75.8491 142.8 76.2011 143.832 76.6011 145H73.4331C73.0011 143.656 72.6171 142.512 72.2811 141.568C71.9611 140.608 71.6251 139.832 71.2731 139.24C70.9371 138.632 70.5371 138.184 70.0731 137.896C69.6251 137.608 69.0491 137.464 68.3451 137.464L68.3211 135.28C68.9931 135.28 69.5531 135.128 70.0011 134.824C70.4651 134.52 70.8651 134.08 71.2011 133.504C71.5371 132.912 71.8491 132.192 72.1371 131.344C72.4251 130.496 72.7451 129.528 73.0971 128.44H76.1451ZM67.0731 128.44V133.336C67.0731 133.848 67.0331 134.36 66.9531 134.872C66.8891 135.368 66.7851 135.856 66.6411 136.336C66.7531 136.8 66.8491 137.28 66.9291 137.776C67.0251 138.256 67.0731 138.72 67.0731 139.168V145H64.0731V128.44H67.0731ZM69.3291 135.28V137.464H66.2571V135.28H69.3291ZM86.7782 128.44C87.0342 128.44 87.2582 128.512 87.4502 128.656C87.6422 128.8 87.7782 128.992 87.8582 129.232L92.8742 145H89.8022L86.0102 132.232C85.9462 131.976 85.8822 131.72 85.8182 131.464C85.7542 131.208 85.6982 130.96 85.6502 130.72H84.9782C84.9302 130.96 84.8742 131.208 84.8102 131.464C84.7462 131.72 84.6742 131.976 84.5942 132.232L80.8262 145H77.7542L82.7702 129.232C82.8342 128.992 82.9622 128.8 83.1542 128.656C83.3622 128.512 83.5942 128.44 83.8502 128.44H86.7782ZM89.5622 137.92V140.272H81.0422V137.92H89.5622ZM101.413 128.152C102.165 128.152 102.805 128.176 103.333 128.224C103.861 128.256 104.349 128.312 104.797 128.392C105.245 128.456 105.709 128.552 106.189 128.68L105.925 130.912C105.429 130.88 104.965 130.856 104.533 130.84C104.101 130.808 103.637 130.784 103.141 130.768C102.661 130.752 102.085 130.744 101.413 130.744C100.485 130.744 99.7566 130.928 99.2286 131.296C98.7006 131.664 98.3246 132.28 98.1006 133.144C97.8926 134.008 97.7886 135.2 97.7886 136.72C97.7886 138.24 97.8926 139.432 98.1006 140.296C98.3246 141.16 98.7006 141.776 99.2286 142.144C99.7566 142.512 100.485 142.696 101.413 142.696C102.485 142.696 103.381 142.68 104.101 142.648C104.837 142.6 105.557 142.536 106.261 142.456L106.525 144.664C105.805 144.888 105.061 145.048 104.293 145.144C103.525 145.24 102.565 145.288 101.413 145.288C99.7486 145.288 98.4206 145.016 97.4286 144.472C96.4366 143.912 95.7166 143.008 95.2686 141.76C94.8366 140.512 94.6206 138.832 94.6206 136.72C94.6206 134.608 94.8366 132.928 95.2686 131.68C95.7166 130.432 96.4366 129.536 97.4286 128.992C98.4206 128.432 99.7486 128.152 101.413 128.152ZM116.366 128.44V145H113.366V128.44H116.366ZM121.502 128.44V130.888H108.23V128.44H121.502ZM130.335 128.128C131.615 128.128 132.695 128.272 133.575 128.56C134.455 128.832 135.159 129.296 135.687 129.952C136.215 130.608 136.599 131.488 136.839 132.592C137.095 133.696 137.223 135.072 137.223 136.72C137.223 138.352 137.095 139.728 136.839 140.848C136.599 141.952 136.215 142.832 135.687 143.488C135.159 144.144 134.455 144.616 133.575 144.904C132.695 145.176 131.615 145.312 130.335 145.312C129.087 145.312 128.023 145.176 127.143 144.904C126.263 144.616 125.551 144.144 125.007 143.488C124.463 142.832 124.071 141.952 123.831 140.848C123.591 139.728 123.471 138.352 123.471 136.72C123.471 135.072 123.591 133.696 123.831 132.592C124.071 131.488 124.463 130.608 125.007 129.952C125.551 129.296 126.263 128.832 127.143 128.56C128.023 128.272 129.087 128.128 130.335 128.128ZM130.335 130.576C129.391 130.576 128.647 130.768 128.103 131.152C127.575 131.52 127.199 132.152 126.975 133.048C126.751 133.928 126.639 135.152 126.639 136.72C126.639 138.288 126.751 139.52 126.975 140.416C127.199 141.296 127.575 141.928 128.103 142.312C128.647 142.68 129.391 142.864 130.335 142.864C131.295 142.864 132.039 142.68 132.567 142.312C133.111 141.928 133.495 141.296 133.719 140.416C133.943 139.52 134.055 138.288 134.055 136.72C134.055 135.152 133.943 133.928 133.719 133.048C133.495 132.152 133.111 131.52 132.567 131.152C132.039 130.768 131.295 130.576 130.335 130.576ZM152.996 128.44V145H149.996V130.648H147.284C146.756 130.648 146.372 130.768 146.132 131.008C145.892 131.248 145.756 131.64 145.724 132.184C145.644 133.336 145.54 134.4 145.412 135.376C145.3 136.352 145.156 137.264 144.98 138.112C144.804 138.96 144.588 139.768 144.332 140.536C144.076 141.304 143.772 142.056 143.42 142.792C143.068 143.512 142.644 144.248 142.148 145H139.532C140.316 143.64 140.932 142.232 141.38 140.776C141.828 139.304 142.164 137.808 142.388 136.288C142.628 134.768 142.804 133.24 142.916 131.704C142.964 130.696 143.3 129.904 143.924 129.328C144.564 128.736 145.412 128.44 146.468 128.44H152.996ZM141.332 144.832L141.068 148.624H138.932V144.832H141.332ZM155.108 142.792V145H138.932V142.792H155.108ZM155.108 144.832V148.624H152.972L152.732 144.832H155.108ZM171.206 128.44V145H168.326V134.224C168.326 133.872 168.342 133.52 168.374 133.168C168.406 132.816 168.446 132.472 168.494 132.136H168.35C168.238 132.472 168.102 132.816 167.942 133.168C167.782 133.504 167.622 133.832 167.462 134.152L161.054 145H158.078V128.44H160.958V139.072C160.958 139.424 160.942 139.784 160.91 140.152C160.878 140.52 160.846 140.88 160.814 141.232H160.91C161.054 140.896 161.206 140.56 161.366 140.224C161.542 139.872 161.718 139.536 161.894 139.216L168.23 128.44H171.206ZM182.705 128.44C182.961 128.44 183.185 128.512 183.377 128.656C183.569 128.8 183.705 128.992 183.785 129.232L188.801 145H185.729L181.937 132.232C181.873 131.976 181.809 131.72 181.745 131.464C181.681 131.208 181.625 130.96 181.577 130.72H180.905C180.857 130.96 180.801 131.208 180.737 131.464C180.673 131.72 180.601 131.976 180.521 132.232L176.753 145H173.681L178.697 129.232C178.761 128.992 178.889 128.8 179.081 128.656C179.289 128.512 179.521 128.44 179.777 128.44H182.705ZM185.489 137.92V140.272H176.969V137.92H185.489ZM194.289 128.44V145H191.265V128.44H194.289ZM201.177 134.992V137.344H194.097V134.992H201.177ZM203.913 128.44V145H200.913V128.44H203.913Z" fill="white"/>
</svg>
