<svg width="773" height="197" viewBox="0 0 773 197" fill="none" xmlns="http://www.w3.org/2000/svg">
<path d="M0 127C0 121.477 4.47715 117 10 117H160C165.523 117 170 121.477 170 127V187C170 192.523 165.523 197 160 197H10C4.47715 197 0 192.523 0 187V127Z" fill="#4478BB"/>
<path d="M35.5517 154.456V150.494H36.2328C36.4615 150.311 36.6753 150.054 36.8742 149.723C37.073 149.392 37.2421 148.937 37.3813 148.361C37.5205 147.784 37.6166 147.038 37.6696 146.124L37.9381 141.818H44.4459V150.494H45.5794V154.446H43.8095V152H37.3216V154.456H35.5517ZM38.3805 150.494H42.676V143.364H39.5986L39.4395 146.124C39.3964 146.816 39.3268 147.436 39.2307 147.983C39.1346 148.53 39.0136 149.012 38.8678 149.43C38.7219 149.844 38.5595 150.199 38.3805 150.494ZM50.6632 152.149C49.8976 152.149 49.2364 151.99 48.6795 151.672C48.126 151.35 47.7001 150.896 47.4018 150.31C47.1035 149.72 46.9544 149.025 46.9544 148.227C46.9544 147.441 47.1035 146.752 47.4018 146.158C47.7035 145.562 48.1244 145.098 48.6646 144.766C49.2049 144.432 49.8396 144.264 50.5687 144.264C51.0394 144.264 51.4835 144.34 51.9011 144.493C52.3221 144.642 52.6933 144.874 53.0148 145.189C53.3396 145.504 53.5948 145.905 53.7804 146.392C53.966 146.876 54.0588 147.453 54.0588 148.122V148.674H47.7996V147.461H52.3337C52.3303 147.116 52.2558 146.81 52.1099 146.541C51.9641 146.269 51.7603 146.056 51.4984 145.9C51.2399 145.744 50.9383 145.666 50.5936 145.666C50.2257 145.666 49.9026 145.756 49.6241 145.935C49.3457 146.11 49.1286 146.342 48.9729 146.631C48.8204 146.916 48.7425 147.229 48.7392 147.57V148.629C48.7392 149.073 48.8204 149.455 48.9828 149.773C49.1452 150.088 49.3723 150.33 49.6639 150.499C49.9556 150.664 50.297 150.747 50.6881 150.747C50.9499 150.747 51.1869 150.711 51.399 150.638C51.6111 150.562 51.7951 150.451 51.9509 150.305C52.1066 150.159 52.2243 149.978 52.3038 149.763L53.9842 149.952C53.8782 150.396 53.676 150.784 53.3777 151.115C53.0827 151.443 52.7049 151.698 52.2442 151.881C51.7835 152.06 51.2565 152.149 50.6632 152.149ZM55.8614 152V144.364H62.3095V152H60.5744V145.84H57.5815V152H55.8614ZM66.6376 152.154C66.1537 152.154 65.7179 152.068 65.3301 151.896C64.9456 151.72 64.6407 151.461 64.4153 151.12C64.1933 150.779 64.0822 150.358 64.0822 149.857C64.0822 149.426 64.1618 149.07 64.3209 148.788C64.48 148.507 64.6971 148.281 64.9721 148.112C65.2472 147.943 65.5571 147.816 65.9018 147.729C66.2498 147.64 66.6095 147.575 66.9807 147.536C67.4281 147.489 67.791 147.448 68.0694 147.411C68.3479 147.371 68.55 147.312 68.676 147.232C68.8052 147.149 68.8699 147.022 68.8699 146.849V146.82C68.8699 146.445 68.7588 146.155 68.5368 145.95C68.3147 145.744 67.9949 145.641 67.5773 145.641C67.1364 145.641 66.7868 145.737 66.5283 145.93C66.273 146.122 66.1007 146.349 66.0112 146.611L64.3308 146.372C64.4634 145.908 64.6821 145.52 64.9871 145.209C65.292 144.894 65.6649 144.659 66.1057 144.503C66.5465 144.344 67.0337 144.264 67.5673 144.264C67.9352 144.264 68.3015 144.307 68.666 144.393C69.0306 144.48 69.3637 144.622 69.6653 144.821C69.9669 145.017 70.2089 145.283 70.3912 145.621C70.5768 145.96 70.6696 146.382 70.6696 146.889V152H68.9395V150.951H68.8798C68.7704 151.163 68.6163 151.362 68.4175 151.548C68.2219 151.73 67.975 151.877 67.6767 151.99C67.3817 152.099 67.0354 152.154 66.6376 152.154ZM67.105 150.832C67.4662 150.832 67.7794 150.76 68.0446 150.618C68.3097 150.472 68.5136 150.28 68.6561 150.041C68.8019 149.803 68.8748 149.542 68.8748 149.261V148.361C68.8185 148.407 68.7224 148.45 68.5865 148.49C68.4539 148.53 68.3048 148.565 68.139 148.594C67.9733 148.624 67.8093 148.651 67.6469 148.674C67.4845 148.697 67.3436 148.717 67.2243 148.734C66.9558 148.77 66.7155 148.83 66.5034 148.913C66.2913 148.996 66.1239 149.112 66.0013 149.261C65.8786 149.406 65.8173 149.595 65.8173 149.827C65.8173 150.159 65.9383 150.409 66.1802 150.578C66.4222 150.747 66.7304 150.832 67.105 150.832ZM72.3367 149.907H74.1215C74.138 150.192 74.2656 150.412 74.5043 150.568C74.7429 150.724 75.0528 150.802 75.434 150.802C75.8217 150.802 76.1482 150.717 76.4134 150.548C76.6818 150.376 76.8161 150.116 76.8161 149.768C76.8161 149.562 76.7647 149.382 76.6619 149.226C76.5592 149.067 76.415 148.944 76.2294 148.858C76.0438 148.772 75.8251 148.729 75.5732 148.729H74.4048V147.451H75.5732C75.9477 147.451 76.2311 147.365 76.4233 147.192C76.6189 147.02 76.7166 146.803 76.7166 146.541C76.7166 146.259 76.6139 146.031 76.4084 145.855C76.2062 145.679 75.9262 145.592 75.5682 145.592C75.2102 145.592 74.9119 145.673 74.6733 145.835C74.438 145.998 74.3154 146.206 74.3054 146.462H72.5306C72.5372 146.018 72.6698 145.631 72.9283 145.303C73.1901 144.975 73.5414 144.72 73.9823 144.538C74.4264 144.355 74.9269 144.264 75.4837 144.264C76.0803 144.264 76.5957 144.354 77.0298 144.533C77.464 144.712 77.7988 144.962 78.0341 145.283C78.2694 145.602 78.3871 145.976 78.3871 146.407C78.3871 146.821 78.2578 147.164 77.9993 147.436C77.7408 147.705 77.3928 147.897 76.9553 148.013V148.092C77.2569 148.109 77.5287 148.195 77.7706 148.351C78.0126 148.503 78.2048 148.71 78.3473 148.972C78.4898 149.234 78.5611 149.537 78.5611 149.882C78.5611 150.349 78.4269 150.754 78.1584 151.095C77.8899 151.433 77.5204 151.693 77.0497 151.876C76.5824 152.058 76.0471 152.149 75.4439 152.149C74.8573 152.149 74.3319 152.061 73.8679 151.886C73.4072 151.707 73.041 151.45 72.7692 151.115C72.4974 150.78 72.3532 150.378 72.3367 149.907ZM81.9931 149.564L85.0506 144.364H86.9V152H85.16V146.795L82.1124 152H80.258V144.364H81.9931V149.564ZM88.1731 145.84V144.364H94.8549V145.84H92.3841V152H90.644V145.84H88.1731ZM99.5845 152.149C98.8388 152.149 98.1925 151.985 97.6456 151.657C97.0987 151.329 96.6745 150.87 96.3729 150.28C96.0746 149.69 95.9254 149 95.9254 148.212C95.9254 147.423 96.0746 146.732 96.3729 146.138C96.6745 145.545 97.0987 145.085 97.6456 144.756C98.1925 144.428 98.8388 144.264 99.5845 144.264C100.33 144.264 100.977 144.428 101.523 144.756C102.07 145.085 102.493 145.545 102.791 146.138C103.093 146.732 103.244 147.423 103.244 148.212C103.244 149 103.093 149.69 102.791 150.28C102.493 150.87 102.07 151.329 101.523 151.657C100.977 151.985 100.33 152.149 99.5845 152.149ZM99.5945 150.707C99.9988 150.707 100.337 150.596 100.609 150.374C100.88 150.149 101.083 149.847 101.215 149.469C101.351 149.092 101.419 148.671 101.419 148.207C101.419 147.739 101.351 147.317 101.215 146.939C101.083 146.558 100.88 146.254 100.609 146.029C100.337 145.804 99.9988 145.691 99.5945 145.691C99.1802 145.691 98.8355 145.804 98.5604 146.029C98.2886 146.254 98.0847 146.558 97.9489 146.939C97.8163 147.317 97.75 147.739 97.75 148.207C97.75 148.671 97.8163 149.092 97.9489 149.469C98.0847 149.847 98.2886 150.149 98.5604 150.374C98.8355 150.596 99.1802 150.707 99.5945 150.707ZM105.051 154.864V144.364H106.821V145.626H106.925C107.018 145.441 107.149 145.244 107.318 145.035C107.487 144.823 107.716 144.642 108.004 144.493C108.293 144.34 108.66 144.264 109.108 144.264C109.698 144.264 110.23 144.415 110.704 144.717C111.181 145.015 111.559 145.457 111.837 146.044C112.119 146.627 112.26 147.343 112.26 148.192C112.26 149.03 112.122 149.743 111.847 150.33C111.572 150.916 111.198 151.364 110.724 151.672C110.25 151.98 109.713 152.134 109.113 152.134C108.675 152.134 108.312 152.061 108.024 151.915C107.736 151.77 107.504 151.594 107.328 151.388C107.156 151.18 107.022 150.982 106.925 150.797H106.851V154.864H105.051ZM106.816 148.182C106.816 148.676 106.886 149.108 107.025 149.479C107.167 149.851 107.371 150.141 107.636 150.349C107.905 150.555 108.23 150.658 108.611 150.658C109.009 150.658 109.342 150.552 109.61 150.339C109.879 150.124 110.081 149.831 110.217 149.46C110.356 149.085 110.425 148.659 110.425 148.182C110.425 147.708 110.357 147.287 110.222 146.919C110.086 146.551 109.884 146.263 109.615 146.054C109.347 145.845 109.012 145.741 108.611 145.741C108.226 145.741 107.9 145.842 107.631 146.044C107.363 146.246 107.159 146.53 107.02 146.894C106.884 147.259 106.816 147.688 106.816 148.182ZM115.816 149.564L118.874 144.364H120.723V152H118.983V146.795L115.936 152H114.081V144.364H115.816V149.564ZM124.586 149.564L127.644 144.364H129.493V152H127.753V146.795L124.706 152H122.851V144.364H124.586V149.564ZM127.152 141.739H128.499C128.499 142.319 128.289 142.789 127.868 143.151C127.45 143.509 126.883 143.688 126.167 143.688C125.458 143.688 124.893 143.509 124.472 143.151C124.054 142.789 123.847 142.319 123.851 141.739H125.188C125.188 141.977 125.261 142.191 125.407 142.38C125.556 142.566 125.809 142.658 126.167 142.658C126.519 142.658 126.769 142.566 126.918 142.38C127.071 142.194 127.148 141.981 127.152 141.739ZM133.735 150.608L133.67 151.155C133.623 151.572 133.541 151.997 133.421 152.428C133.305 152.862 133.183 153.261 133.053 153.626C132.924 153.99 132.82 154.277 132.74 154.486H131.527C131.574 154.284 131.637 154.009 131.716 153.661C131.799 153.313 131.878 152.921 131.955 152.487C132.031 152.053 132.082 151.612 132.109 151.165L132.144 150.608H133.735ZM14.8332 172V164.364H16.6329V167.446H17.2891L19.586 164.364H21.7536L18.9248 168.112L21.7834 172H19.6059L17.5128 169.121H16.6329V172H14.8332ZM22.5569 172L22.5469 170.518H22.8104C23.0093 170.518 23.1767 170.474 23.3126 170.384C23.4484 170.295 23.5611 170.146 23.6506 169.937C23.7401 169.725 23.8097 169.44 23.8594 169.082C23.9091 168.724 23.9439 168.278 23.9638 167.744L24.0981 164.364H29.6662V172H27.9262V165.84H25.7337L25.6144 168.301C25.5846 168.937 25.5133 169.489 25.4006 169.957C25.2912 170.421 25.1355 170.804 24.9333 171.105C24.7344 171.407 24.4842 171.632 24.1826 171.781C23.881 171.927 23.5247 172 23.1137 172H22.5569ZM33.4935 169.564L36.551 164.364H38.4004V172H36.6604V166.795L33.6128 172H31.7584V164.364H33.4935V169.564ZM40.5286 174.864V164.364H42.2985V165.626H42.4029C42.4957 165.441 42.6266 165.244 42.7957 165.035C42.9647 164.823 43.1934 164.642 43.4817 164.493C43.7701 164.34 44.138 164.264 44.5854 164.264C45.1754 164.264 45.7074 164.415 46.1813 164.717C46.6586 165.015 47.0364 165.457 47.3148 166.044C47.5966 166.627 47.7374 167.343 47.7374 168.192C47.7374 169.03 47.5999 169.743 47.3248 170.33C47.0497 170.916 46.6752 171.364 46.2012 171.672C45.7273 171.98 45.1903 172.134 44.5904 172.134C44.1529 172.134 43.79 172.061 43.5016 171.915C43.2133 171.77 42.9813 171.594 42.8056 171.388C42.6333 171.18 42.499 170.982 42.4029 170.797H42.3283V174.864H40.5286ZM42.2935 168.182C42.2935 168.676 42.3631 169.108 42.5023 169.479C42.6449 169.851 42.8487 170.141 43.1139 170.349C43.3823 170.555 43.7071 170.658 44.0883 170.658C44.486 170.658 44.8191 170.552 45.0876 170.339C45.356 170.124 45.5582 169.831 45.6941 169.46C45.8333 169.085 45.9029 168.659 45.9029 168.182C45.9029 167.708 45.835 167.287 45.6991 166.919C45.5632 166.551 45.361 166.263 45.0925 166.054C44.8241 165.845 44.4893 165.741 44.0883 165.741C43.7038 165.741 43.3773 165.842 43.1089 166.044C42.8404 166.246 42.6366 166.53 42.4974 166.894C42.3615 167.259 42.2935 167.688 42.2935 168.182ZM51.2937 169.564L54.3512 164.364H56.2007V172H54.4606V166.795L51.413 172H49.5586V164.364H51.2937V169.564ZM63.5739 167.436V168.913H59.5071V167.436H63.5739ZM60.0639 164.364V172H58.3289V164.364H60.0639ZM64.7522 164.364V172H63.022V164.364H64.7522ZM71.9041 164.364V165.84H68.6129V172H66.853V164.364H71.9041ZM76.6437 172.149C75.8979 172.149 75.2516 171.985 74.7047 171.657C74.1579 171.329 73.7336 170.87 73.432 170.28C73.1337 169.69 72.9846 169 72.9846 168.212C72.9846 167.423 73.1337 166.732 73.432 166.138C73.7336 165.545 74.1579 165.085 74.7047 164.756C75.2516 164.428 75.8979 164.264 76.6437 164.264C77.3894 164.264 78.0357 164.428 78.5826 164.756C79.1294 165.085 79.552 165.545 79.8503 166.138C80.1519 166.732 80.3027 167.423 80.3027 168.212C80.3027 169 80.1519 169.69 79.8503 170.28C79.552 170.87 79.1294 171.329 78.5826 171.657C78.0357 171.985 77.3894 172.149 76.6437 172.149ZM76.6536 170.707C77.058 170.707 77.396 170.596 77.6678 170.374C77.9396 170.149 78.1418 169.847 78.2743 169.469C78.4102 169.092 78.4782 168.671 78.4782 168.207C78.4782 167.739 78.4102 167.317 78.2743 166.939C78.1418 166.558 77.9396 166.254 77.6678 166.029C77.396 165.804 77.058 165.691 76.6536 165.691C76.2393 165.691 75.8946 165.804 75.6195 166.029C75.3477 166.254 75.1439 166.558 75.008 166.939C74.8754 167.317 74.8091 167.739 74.8091 168.207C74.8091 168.671 74.8754 169.092 75.008 169.469C75.1439 169.847 75.3477 170.149 75.6195 170.374C75.8946 170.596 76.2393 170.707 76.6536 170.707ZM82.1103 172V164.364H85.3169C86.2218 164.364 86.936 164.544 87.4597 164.906C87.9867 165.267 88.2502 165.771 88.2502 166.417C88.2502 166.844 88.101 167.194 87.8027 167.466C87.5078 167.734 87.1051 167.915 86.5946 168.008C86.9957 168.041 87.347 168.142 87.6486 168.311C87.9535 168.48 88.1922 168.702 88.3645 168.977C88.5369 169.252 88.623 169.569 88.623 169.927C88.623 170.348 88.512 170.714 88.29 171.026C88.0712 171.334 87.7514 171.574 87.3304 171.746C86.9128 171.915 86.4057 172 85.8091 172H82.1103ZM83.7956 170.583H85.8091C86.1406 170.583 86.4007 170.505 86.5897 170.349C86.7786 170.19 86.873 169.975 86.873 169.703C86.873 169.388 86.7786 169.141 86.5897 168.962C86.4007 168.78 86.1406 168.689 85.8091 168.689H83.7956V170.583ZM83.7956 167.526H85.3517C85.597 167.526 85.8075 167.491 85.9831 167.421C86.1588 167.348 86.293 167.247 86.3858 167.118C86.4786 166.985 86.525 166.828 86.525 166.646C86.525 166.384 86.4173 166.178 86.2019 166.029C85.9898 165.88 85.6948 165.805 85.3169 165.805H83.7956V167.526ZM91.6063 166.849H93.8585C94.8329 166.849 95.5869 167.086 96.1206 167.56C96.6542 168.034 96.9226 168.656 96.926 169.425C96.9226 169.925 96.8 170.369 96.5581 170.757C96.3194 171.145 95.9714 171.45 95.514 171.672C95.0599 171.891 94.5081 172 93.8585 172H90.3883V164.364H92.1234V170.523H93.8585C94.2496 170.523 94.5711 170.424 94.823 170.225C95.0749 170.023 95.2008 169.764 95.2008 169.45C95.2008 169.118 95.0749 168.848 94.823 168.639C94.5711 168.43 94.2496 168.326 93.8585 168.326H91.6063V166.849ZM97.8755 172V164.364H99.6752V172H97.8755ZM103.546 169.564L106.604 164.364H108.453V172H106.713V166.795L103.665 172H101.811V164.364H103.546V169.564ZM106.111 161.739H107.459C107.459 162.319 107.248 162.789 106.827 163.151C106.41 163.509 105.843 163.688 105.127 163.688C104.418 163.688 103.853 163.509 103.432 163.151C103.014 162.789 102.807 162.319 102.81 161.739H104.148C104.148 161.977 104.22 162.191 104.366 162.38C104.515 162.566 104.769 162.658 105.127 162.658C105.478 162.658 105.729 162.566 105.878 162.38C106.03 162.194 106.108 161.981 106.111 161.739ZM120.782 164.364V170.658H121.95V174.456H120.19V172H114.334V164.364H116.069V170.523H119.062V164.364H120.782ZM127.004 172.149C126.239 172.149 125.577 171.99 125.021 171.672C124.467 171.35 124.041 170.896 123.743 170.31C123.445 169.72 123.295 169.025 123.295 168.227C123.295 167.441 123.445 166.752 123.743 166.158C124.044 165.562 124.465 165.098 125.006 164.766C125.546 164.432 126.181 164.264 126.91 164.264C127.38 164.264 127.825 164.34 128.242 164.493C128.663 164.642 129.034 164.874 129.356 165.189C129.681 165.504 129.936 165.905 130.121 166.392C130.307 166.876 130.4 167.453 130.4 168.122V168.674H124.141V167.461H128.675C128.671 167.116 128.597 166.81 128.451 166.541C128.305 166.269 128.101 166.056 127.839 165.9C127.581 165.744 127.279 165.666 126.935 165.666C126.567 165.666 126.244 165.756 125.965 165.935C125.687 166.11 125.47 166.342 125.314 166.631C125.161 166.916 125.084 167.229 125.08 167.57V168.629C125.08 169.073 125.161 169.455 125.324 169.773C125.486 170.088 125.713 170.33 126.005 170.499C126.297 170.664 126.638 170.747 127.029 170.747C127.291 170.747 127.528 170.711 127.74 170.638C127.952 170.562 128.136 170.451 128.292 170.305C128.448 170.159 128.565 169.978 128.645 169.763L130.325 169.952C130.219 170.396 130.017 170.784 129.719 171.115C129.424 171.443 129.046 171.698 128.585 171.881C128.124 172.06 127.598 172.149 127.004 172.149ZM137.447 167.436V168.913H133.381V167.436H137.447ZM133.937 164.364V172H132.202V164.364H133.937ZM138.626 164.364V172H136.896V164.364H138.626ZM139.871 165.84V164.364H146.553V165.84H144.082V172H142.342V165.84H139.871ZM148.266 174.864V164.364H150.036V165.626H150.141C150.233 165.441 150.364 165.244 150.533 165.035C150.702 164.823 150.931 164.642 151.219 164.493C151.508 164.34 151.876 164.264 152.323 164.264C152.913 164.264 153.445 164.415 153.919 164.717C154.396 165.015 154.774 165.457 155.052 166.044C155.334 166.627 155.475 167.343 155.475 168.192C155.475 169.03 155.338 169.743 155.062 170.33C154.787 170.916 154.413 171.364 153.939 171.672C153.465 171.98 152.928 172.134 152.328 172.134C151.891 172.134 151.528 172.061 151.239 171.915C150.951 171.77 150.719 171.594 150.543 171.388C150.371 171.18 150.237 170.982 150.141 170.797H150.066V174.864H148.266ZM150.031 168.182C150.031 168.676 150.101 169.108 150.24 169.479C150.383 169.851 150.586 170.141 150.851 170.349C151.12 170.555 151.445 170.658 151.826 170.658C152.224 170.658 152.557 170.552 152.825 170.339C153.094 170.124 153.296 169.831 153.432 169.46C153.571 169.085 153.641 168.659 153.641 168.182C153.641 167.708 153.573 167.287 153.437 166.919C153.301 166.551 153.099 166.263 152.83 166.054C152.562 165.845 152.227 165.741 151.826 165.741C151.441 165.741 151.115 165.842 150.847 166.044C150.578 166.246 150.374 166.53 150.235 166.894C150.099 167.259 150.031 167.688 150.031 168.182Z" fill="white"/>
<path d="M201 127C201 121.477 205.477 117 211 117H361C366.523 117 371 121.477 371 127V187C371 192.523 366.523 197 361 197H211C205.477 197 201 192.523 201 187V127Z" fill="#F47F1F"/>
<path d="M269.877 162V151.818H276.425V153.364H271.722V155.751H273.685C274.464 155.751 275.132 155.878 275.689 156.134C276.249 156.385 276.678 156.742 276.977 157.202C277.275 157.663 277.424 158.205 277.424 158.828C277.424 159.455 277.275 160.006 276.977 160.484C276.678 160.958 276.249 161.329 275.689 161.597C275.132 161.866 274.464 162 273.685 162H269.877ZM271.722 160.489H273.685C274.096 160.489 274.444 160.411 274.73 160.255C275.015 160.099 275.23 159.894 275.376 159.638C275.525 159.383 275.6 159.107 275.6 158.808C275.6 158.377 275.434 158.011 275.102 157.71C274.774 157.405 274.302 157.252 273.685 157.252H271.722V160.489ZM281.435 162.154C280.951 162.154 280.516 162.068 280.128 161.896C279.743 161.72 279.438 161.461 279.213 161.12C278.991 160.779 278.88 160.358 278.88 159.857C278.88 159.426 278.959 159.07 279.119 158.788C279.278 158.507 279.495 158.281 279.77 158.112C280.045 157.943 280.355 157.816 280.699 157.729C281.048 157.64 281.407 157.575 281.778 157.536C282.226 157.489 282.589 157.448 282.867 157.411C283.146 157.371 283.348 157.312 283.474 157.232C283.603 157.149 283.668 157.022 283.668 156.849V156.82C283.668 156.445 283.556 156.155 283.334 155.95C283.112 155.744 282.793 155.641 282.375 155.641C281.934 155.641 281.584 155.737 281.326 155.93C281.071 156.122 280.898 156.349 280.809 156.611L279.128 156.372C279.261 155.908 279.48 155.52 279.785 155.209C280.09 154.894 280.463 154.659 280.903 154.503C281.344 154.344 281.831 154.264 282.365 154.264C282.733 154.264 283.099 154.307 283.464 154.393C283.828 154.48 284.161 154.622 284.463 154.821C284.765 155.017 285.007 155.283 285.189 155.621C285.374 155.96 285.467 156.382 285.467 156.889V162H283.737V160.951H283.677C283.568 161.163 283.414 161.362 283.215 161.548C283.02 161.73 282.773 161.877 282.474 161.99C282.179 162.099 281.833 162.154 281.435 162.154ZM281.903 160.832C282.264 160.832 282.577 160.76 282.842 160.618C283.107 160.472 283.311 160.28 283.454 160.041C283.6 159.803 283.673 159.542 283.673 159.261V158.361C283.616 158.407 283.52 158.45 283.384 158.49C283.252 158.53 283.102 158.565 282.937 158.594C282.771 158.624 282.607 158.651 282.445 158.674C282.282 158.697 282.141 158.717 282.022 158.734C281.753 158.77 281.513 158.83 281.301 158.913C281.089 158.996 280.922 159.112 280.799 159.261C280.676 159.406 280.615 159.595 280.615 159.827C280.615 160.159 280.736 160.409 280.978 160.578C281.22 160.747 281.528 160.832 281.903 160.832ZM292.802 157.436V158.913H288.735V157.436H292.802ZM289.292 154.364V162H287.557V154.364H289.292ZM293.98 154.364V162H292.25V154.364H293.98ZM296.081 162V154.364H297.881V157.446H298.537L300.834 154.364H303.001L300.173 158.112L303.031 162H300.854L298.761 159.121H297.881V162H296.081Z" fill="white"/>
<path d="M402 127C402 121.477 406.477 117 412 117H562C567.523 117 572 121.477 572 127V187C572 192.523 567.523 197 562 197H412C406.477 197 402 192.523 402 187V127Z" fill="#4478BB"/>
<path d="M441.581 152H439.612L443.197 141.818H445.474L449.063 152H447.095L444.375 143.906H444.296L441.581 152ZM441.646 148.008H447.015V149.489H441.646V148.008ZM453.838 154.595V141.818H455.642V154.595H453.838ZM453.838 152.149C453.278 152.149 452.765 152.055 452.301 151.866C451.837 151.677 451.436 151.408 451.098 151.06C450.764 150.712 450.503 150.298 450.318 149.817C450.135 149.334 450.044 148.798 450.044 148.212C450.044 147.625 450.135 147.09 450.318 146.606C450.503 146.122 450.764 145.706 451.098 145.358C451.436 145.007 451.837 144.737 452.301 144.548C452.765 144.359 453.278 144.264 453.838 144.264H454.22V152.149H453.838ZM453.838 150.697H454.061V145.716H453.838C453.519 145.716 453.238 145.782 452.992 145.915C452.751 146.044 452.547 146.225 452.381 146.457C452.219 146.685 452.094 146.951 452.008 147.252C451.925 147.55 451.884 147.87 451.884 148.212C451.884 148.666 451.958 149.082 452.108 149.46C452.257 149.834 452.475 150.134 452.764 150.359C453.055 150.585 453.413 150.697 453.838 150.697ZM455.642 152.149H455.26V144.264H455.642C456.202 144.264 456.715 144.359 457.179 144.548C457.643 144.737 458.042 145.007 458.377 145.358C458.715 145.706 458.975 146.122 459.157 146.606C459.343 147.09 459.436 147.625 459.436 148.212C459.436 148.798 459.343 149.334 459.157 149.817C458.975 150.298 458.715 150.712 458.377 151.06C458.042 151.408 457.643 151.677 457.179 151.866C456.715 152.055 456.202 152.149 455.642 152.149ZM455.642 150.697C455.964 150.697 456.246 150.633 456.488 150.504C456.729 150.374 456.932 150.195 457.094 149.967C457.26 149.738 457.384 149.474 457.467 149.176C457.55 148.875 457.591 148.553 457.591 148.212C457.591 147.758 457.518 147.342 457.372 146.964C457.227 146.586 457.008 146.284 456.716 146.059C456.428 145.83 456.07 145.716 455.642 145.716H455.419V150.697H455.642ZM464.7 154.595V141.818H466.504V154.595H464.7ZM464.7 152.149C464.14 152.149 463.627 152.055 463.163 151.866C462.699 151.677 462.298 151.408 461.96 151.06C461.626 150.712 461.365 150.298 461.18 149.817C460.998 149.334 460.906 148.798 460.906 148.212C460.906 147.625 460.998 147.09 461.18 146.606C461.365 146.122 461.626 145.706 461.96 145.358C462.298 145.007 462.699 144.737 463.163 144.548C463.627 144.359 464.14 144.264 464.7 144.264H465.082V152.149H464.7ZM464.7 150.697H464.923V145.716H464.7C464.382 145.716 464.1 145.782 463.855 145.915C463.613 146.044 463.409 146.225 463.243 146.457C463.081 146.685 462.956 146.951 462.87 147.252C462.787 147.55 462.746 147.87 462.746 148.212C462.746 148.666 462.82 149.082 462.97 149.46C463.119 149.834 463.337 150.134 463.626 150.359C463.917 150.585 464.275 150.697 464.7 150.697ZM466.504 152.149H466.122V144.264H466.504C467.065 144.264 467.577 144.359 468.041 144.548C468.505 144.737 468.904 145.007 469.239 145.358C469.577 145.706 469.837 146.122 470.019 146.606C470.205 147.09 470.298 147.625 470.298 148.212C470.298 148.798 470.205 149.334 470.019 149.817C469.837 150.298 469.577 150.712 469.239 151.06C468.904 151.408 468.505 151.677 468.041 151.866C467.577 152.055 467.065 152.149 466.504 152.149ZM466.504 150.697C466.826 150.697 467.108 150.633 467.35 150.504C467.591 150.374 467.794 150.195 467.956 149.967C468.122 149.738 468.246 149.474 468.329 149.176C468.412 148.875 468.453 148.553 468.453 148.212C468.453 147.758 468.38 147.342 468.234 146.964C468.089 146.586 467.87 146.284 467.578 146.059C467.29 145.83 466.932 145.716 466.504 145.716H466.281V150.697H466.504ZM473.832 149.564L476.889 144.364H478.739V152H476.999V146.795L473.951 152H472.097V144.364H473.832V149.564ZM486.112 147.436V148.913H482.045V147.436H486.112ZM482.602 144.364V152H480.867V144.364H482.602ZM487.29 144.364V152H485.56V144.364H487.29ZM491.588 152.154C491.104 152.154 490.669 152.068 490.281 151.896C489.896 151.72 489.591 151.461 489.366 151.12C489.144 150.779 489.033 150.358 489.033 149.857C489.033 149.426 489.112 149.07 489.272 148.788C489.431 148.507 489.648 148.281 489.923 148.112C490.198 147.943 490.508 147.816 490.853 147.729C491.201 147.64 491.56 147.575 491.931 147.536C492.379 147.489 492.742 147.448 493.02 147.411C493.299 147.371 493.501 147.312 493.627 147.232C493.756 147.149 493.821 147.022 493.821 146.849V146.82C493.821 146.445 493.71 146.155 493.487 145.95C493.265 145.744 492.946 145.641 492.528 145.641C492.087 145.641 491.737 145.737 491.479 145.93C491.224 146.122 491.051 146.349 490.962 146.611L489.282 146.372C489.414 145.908 489.633 145.52 489.938 145.209C490.243 144.894 490.616 144.659 491.056 144.503C491.497 144.344 491.984 144.264 492.518 144.264C492.886 144.264 493.252 144.307 493.617 144.393C493.981 144.48 494.314 144.622 494.616 144.821C494.918 145.017 495.16 145.283 495.342 145.621C495.527 145.96 495.62 146.382 495.62 146.889V152H493.89V150.951H493.831C493.721 151.163 493.567 151.362 493.368 151.548C493.173 151.73 492.926 151.877 492.627 151.99C492.332 152.099 491.986 152.154 491.588 152.154ZM492.056 150.832C492.417 150.832 492.73 150.76 492.995 150.618C493.26 150.472 493.464 150.28 493.607 150.041C493.753 149.803 493.826 149.542 493.826 149.261V148.361C493.769 148.407 493.673 148.45 493.537 148.49C493.405 148.53 493.255 148.565 493.09 148.594C492.924 148.624 492.76 148.651 492.598 148.674C492.435 148.697 492.294 148.717 492.175 148.734C491.907 148.77 491.666 148.83 491.454 148.913C491.242 148.996 491.075 149.112 490.952 149.261C490.829 149.406 490.768 149.595 490.768 149.827C490.768 150.159 490.889 150.409 491.131 150.578C491.373 150.747 491.681 150.832 492.056 150.832ZM497.213 152L500.032 148.058L497.238 144.364H499.316L501.488 147.441H501.916V144.364H503.716V147.441H504.133L506.306 144.364H508.384L505.605 148.058L508.409 152H506.286L504.113 148.918H503.716V152H501.916V148.918H501.518L499.336 152H497.213ZM515.28 147.436V148.913H511.213V147.436H515.28ZM511.77 144.364V152H510.035V144.364H511.77ZM516.458 144.364V152H514.728V144.364H516.458ZM521.89 152.149C521.144 152.149 520.498 151.985 519.951 151.657C519.404 151.329 518.98 150.87 518.678 150.28C518.38 149.69 518.231 149 518.231 148.212C518.231 147.423 518.38 146.732 518.678 146.138C518.98 145.545 519.404 145.085 519.951 144.756C520.498 144.428 521.144 144.264 521.89 144.264C522.636 144.264 523.282 144.428 523.829 144.756C524.376 145.085 524.798 145.545 525.097 146.138C525.398 146.732 525.549 147.423 525.549 148.212C525.549 149 525.398 149.69 525.097 150.28C524.798 150.87 524.376 151.329 523.829 151.657C523.282 151.985 522.636 152.149 521.89 152.149ZM521.9 150.707C522.304 150.707 522.642 150.596 522.914 150.374C523.186 150.149 523.388 149.847 523.521 149.469C523.657 149.092 523.724 148.671 523.724 148.207C523.724 147.739 523.657 147.317 523.521 146.939C523.388 146.558 523.186 146.254 522.914 146.029C522.642 145.804 522.304 145.691 521.9 145.691C521.486 145.691 521.141 145.804 520.866 146.029C520.594 146.254 520.39 146.558 520.254 146.939C520.122 147.317 520.055 147.739 520.055 148.207C520.055 148.671 520.122 149.092 520.254 149.469C520.39 149.847 520.594 150.149 520.866 150.374C521.141 150.596 521.486 150.707 521.9 150.707ZM530.737 152.149C529.972 152.149 529.31 151.99 528.754 151.672C528.2 151.35 527.774 150.896 527.476 150.31C527.178 149.72 527.028 149.025 527.028 148.227C527.028 147.441 527.178 146.752 527.476 146.158C527.778 145.562 528.198 145.098 528.739 144.766C529.279 144.432 529.914 144.264 530.643 144.264C531.113 144.264 531.558 144.34 531.975 144.493C532.396 144.642 532.767 144.874 533.089 145.189C533.414 145.504 533.669 145.905 533.854 146.392C534.04 146.876 534.133 147.453 534.133 148.122V148.674H527.874V147.461H532.408C532.404 147.116 532.33 146.81 532.184 146.541C532.038 146.269 531.834 146.056 531.572 145.9C531.314 145.744 531.012 145.666 530.668 145.666C530.3 145.666 529.977 145.756 529.698 145.935C529.42 146.11 529.203 146.342 529.047 146.631C528.894 146.916 528.817 147.229 528.813 147.57V148.629C528.813 149.073 528.894 149.455 529.057 149.773C529.219 150.088 529.446 150.33 529.738 150.499C530.03 150.664 530.371 150.747 530.762 150.747C531.024 150.747 531.261 150.711 531.473 150.638C531.685 150.562 531.869 150.451 532.025 150.305C532.181 150.159 532.298 149.978 532.378 149.763L534.058 149.952C533.952 150.396 533.75 150.784 533.452 151.115C533.157 151.443 532.779 151.698 532.318 151.881C531.858 152.06 531.331 152.149 530.737 152.149ZM440.464 172V164.364H446.912V172H445.177V165.84H442.184V172H440.464ZM449.043 174.864V164.364H450.813V165.626H450.917C451.01 165.441 451.141 165.244 451.31 165.035C451.479 164.823 451.708 164.642 451.996 164.493C452.284 164.34 452.652 164.264 453.1 164.264C453.69 164.264 454.222 164.415 454.696 164.717C455.173 165.015 455.551 165.457 455.829 166.044C456.111 166.627 456.252 167.343 456.252 168.192C456.252 169.03 456.114 169.743 455.839 170.33C455.564 170.916 455.19 171.364 454.716 171.672C454.242 171.98 453.705 172.134 453.105 172.134C452.667 172.134 452.304 172.061 452.016 171.915C451.728 171.77 451.496 171.594 451.32 171.388C451.148 171.18 451.013 170.982 450.917 170.797H450.843V174.864H449.043ZM450.808 168.182C450.808 168.676 450.878 169.108 451.017 169.479C451.159 169.851 451.363 170.141 451.628 170.349C451.897 170.555 452.221 170.658 452.603 170.658C453 170.658 453.333 170.552 453.602 170.339C453.87 170.124 454.073 169.831 454.208 169.46C454.348 169.085 454.417 168.659 454.417 168.182C454.417 167.708 454.349 167.287 454.213 166.919C454.078 166.551 453.875 166.263 453.607 166.054C453.338 165.845 453.004 165.741 452.603 165.741C452.218 165.741 451.892 165.842 451.623 166.044C451.355 166.246 451.151 166.53 451.012 166.894C450.876 167.259 450.808 167.688 450.808 168.182ZM461.454 172.149C460.688 172.149 460.027 171.99 459.47 171.672C458.917 171.35 458.491 170.896 458.192 170.31C457.894 169.72 457.745 169.025 457.745 168.227C457.745 167.441 457.894 166.752 458.192 166.158C458.494 165.562 458.915 165.098 459.455 164.766C459.995 164.432 460.63 164.264 461.359 164.264C461.83 164.264 462.274 164.34 462.692 164.493C463.113 164.642 463.484 164.874 463.805 165.189C464.13 165.504 464.385 165.905 464.571 166.392C464.756 166.876 464.849 167.453 464.849 168.122V168.674H458.59V167.461H463.124C463.121 167.116 463.046 166.81 462.9 166.541C462.755 166.269 462.551 166.056 462.289 165.9C462.03 165.744 461.729 165.666 461.384 165.666C461.016 165.666 460.693 165.756 460.415 165.935C460.136 166.11 459.919 166.342 459.763 166.631C459.611 166.916 459.533 167.229 459.53 167.57V168.629C459.53 169.073 459.611 169.455 459.773 169.773C459.936 170.088 460.163 170.33 460.454 170.499C460.746 170.664 461.087 170.747 461.479 170.747C461.74 170.747 461.977 170.711 462.189 170.638C462.402 170.562 462.586 170.451 462.741 170.305C462.897 170.159 463.015 169.978 463.094 169.763L464.775 169.952C464.669 170.396 464.466 170.784 464.168 171.115C463.873 171.443 463.495 171.698 463.035 171.881C462.574 172.06 462.047 172.149 461.454 172.149ZM465.976 174.217V170.518H466.582C466.745 170.393 466.881 170.222 466.99 170.006C467.099 169.788 467.189 169.531 467.258 169.236C467.331 168.937 467.391 168.604 467.437 168.237C467.484 167.865 467.525 167.466 467.562 167.038L467.78 164.364H473.299V170.518H474.482V174.217H472.742V172H467.746V174.217H465.976ZM468.432 170.518H471.579V165.815H469.341L469.222 167.038C469.156 167.847 469.068 168.54 468.959 169.116C468.849 169.693 468.674 170.161 468.432 170.518ZM476.106 172V164.364H482.554V172H480.819V165.84H477.826V172H476.106ZM484.684 174.864V164.364H486.454V165.626H486.559C486.652 165.441 486.782 165.244 486.952 165.035C487.121 164.823 487.349 164.642 487.638 164.493C487.926 164.34 488.294 164.264 488.741 164.264C489.331 164.264 489.863 164.415 490.337 164.717C490.814 165.015 491.192 165.457 491.471 166.044C491.752 166.627 491.893 167.343 491.893 168.192C491.893 169.03 491.756 169.743 491.481 170.33C491.206 170.916 490.831 171.364 490.357 171.672C489.883 171.98 489.346 172.134 488.746 172.134C488.309 172.134 487.946 172.061 487.657 171.915C487.369 171.77 487.137 171.594 486.961 171.388C486.789 171.18 486.655 170.982 486.559 170.797H486.484V174.864H484.684ZM486.449 168.182C486.449 168.676 486.519 169.108 486.658 169.479C486.801 169.851 487.005 170.141 487.27 170.349C487.538 170.555 487.863 170.658 488.244 170.658C488.642 170.658 488.975 170.552 489.243 170.339C489.512 170.124 489.714 169.831 489.85 169.46C489.989 169.085 490.059 168.659 490.059 168.182C490.059 167.708 489.991 167.287 489.855 166.919C489.719 166.551 489.517 166.263 489.248 166.054C488.98 165.845 488.645 165.741 488.244 165.741C487.86 165.741 487.533 165.842 487.265 166.044C486.996 166.246 486.792 166.53 486.653 166.894C486.517 167.259 486.449 167.688 486.449 168.182ZM495.45 169.564L498.507 164.364H500.357V172H498.616V166.795L495.569 172H493.714V164.364H495.45V169.564ZM506.999 172V165.825H505.368C504.954 165.825 504.636 165.921 504.414 166.114C504.192 166.306 504.082 166.545 504.086 166.83C504.082 167.115 504.187 167.35 504.399 167.536C504.611 167.721 504.914 167.814 505.309 167.814H507.566V169.126H505.309C504.699 169.126 504.172 169.03 503.728 168.838C503.283 168.646 502.942 168.374 502.703 168.023C502.465 167.671 502.346 167.26 502.346 166.79C502.346 166.299 502.466 165.873 502.708 165.512C502.954 165.147 503.302 164.866 503.752 164.667C504.207 164.465 504.745 164.364 505.368 164.364H508.684V172H506.999ZM502.067 172L504.2 168.082H505.975L503.837 172H502.067ZM509.921 165.84V164.364H516.603V165.84H514.132V172H512.392V165.84H509.921ZM520.051 169.564L523.109 164.364H524.958V172H523.218V166.795L520.171 172H518.316V164.364H520.051V169.564ZM530.467 172.149C529.701 172.149 529.04 171.99 528.483 171.672C527.93 171.35 527.504 170.896 527.206 170.31C526.907 169.72 526.758 169.025 526.758 168.227C526.758 167.441 526.907 166.752 527.206 166.158C527.507 165.562 527.928 165.098 528.469 164.766C529.009 164.432 529.643 164.264 530.373 164.264C530.843 164.264 531.287 164.34 531.705 164.493C532.126 164.642 532.497 164.874 532.819 165.189C533.143 165.504 533.399 165.905 533.584 166.392C533.77 166.876 533.863 167.453 533.863 168.122V168.674H527.603V167.461H532.138C532.134 167.116 532.06 166.81 531.914 166.541C531.768 166.269 531.564 166.056 531.302 165.9C531.044 165.744 530.742 165.666 530.398 165.666C530.03 165.666 529.706 165.756 529.428 165.935C529.15 166.11 528.933 166.342 528.777 166.631C528.624 166.916 528.546 167.229 528.543 167.57V168.629C528.543 169.073 528.624 169.455 528.787 169.773C528.949 170.088 529.176 170.33 529.468 170.499C529.759 170.664 530.101 170.747 530.492 170.747C530.754 170.747 530.991 170.711 531.203 170.638C531.415 170.562 531.599 170.451 531.755 170.305C531.911 170.159 532.028 169.978 532.108 169.763L533.788 169.952C533.682 170.396 533.48 170.784 533.182 171.115C532.887 171.443 532.509 171.698 532.048 171.881C531.587 172.06 531.06 172.149 530.467 172.149Z" fill="white"/>
<path d="M603 127C603 121.477 607.477 117 613 117H763C768.523 117 773 121.477 773 127V187C773 192.523 768.523 197 763 197H613C607.477 197 603 192.523 603 187V127Z" fill="#F47F1F"/>
<path d="M640.356 162V160.469L640.644 160.454C641.036 160.431 641.345 160.29 641.574 160.031C641.806 159.773 641.977 159.357 642.086 158.783C642.199 158.21 642.274 157.441 642.31 156.477L642.479 151.818H649.151V162H647.346V153.335H644.199L644.04 157.048C643.994 158.162 643.871 159.085 643.672 159.817C643.477 160.55 643.155 161.097 642.708 161.458C642.264 161.819 641.645 162 640.853 162H640.356ZM653.56 162.154C653.076 162.154 652.64 162.068 652.252 161.896C651.868 161.72 651.563 161.461 651.337 161.12C651.115 160.779 651.004 160.358 651.004 159.857C651.004 159.426 651.084 159.07 651.243 158.788C651.402 158.507 651.619 158.281 651.894 158.112C652.169 157.943 652.479 157.816 652.824 157.729C653.172 157.64 653.532 157.575 653.903 157.536C654.35 157.489 654.713 157.448 654.992 157.411C655.27 157.371 655.472 157.312 655.598 157.232C655.727 157.149 655.792 157.022 655.792 156.849V156.82C655.792 156.445 655.681 156.155 655.459 155.95C655.237 155.744 654.917 155.641 654.499 155.641C654.059 155.641 653.709 155.737 653.45 155.93C653.195 156.122 653.023 156.349 652.933 156.611L651.253 156.372C651.386 155.908 651.604 155.52 651.909 155.209C652.214 154.894 652.587 154.659 653.028 154.503C653.469 154.344 653.956 154.264 654.489 154.264C654.857 154.264 655.224 154.307 655.588 154.393C655.953 154.48 656.286 154.622 656.587 154.821C656.889 155.017 657.131 155.283 657.313 155.621C657.499 155.96 657.592 156.382 657.592 156.889V162H655.862V160.951H655.802C655.693 161.163 655.538 161.362 655.34 161.548C655.144 161.73 654.897 161.877 654.599 161.99C654.304 162.099 653.958 162.154 653.56 162.154ZM654.027 160.832C654.388 160.832 654.702 160.76 654.967 160.618C655.232 160.472 655.436 160.28 655.578 160.041C655.724 159.803 655.797 159.542 655.797 159.261V158.361C655.741 158.407 655.645 158.45 655.509 158.49C655.376 158.53 655.227 158.565 655.061 158.594C654.895 158.624 654.731 158.651 654.569 158.674C654.407 158.697 654.266 158.717 654.146 158.734C653.878 158.77 653.638 158.83 653.426 158.913C653.213 158.996 653.046 159.112 652.923 159.261C652.801 159.406 652.739 159.595 652.739 159.827C652.739 160.159 652.86 160.409 653.102 160.578C653.344 160.747 653.653 160.832 654.027 160.832ZM665.801 151.54L666.428 152.703C666.206 152.895 665.957 153.035 665.682 153.121C665.407 153.207 665.084 153.263 664.713 153.29C664.345 153.313 663.907 153.33 663.4 153.339C662.83 153.353 662.364 153.46 662.003 153.663C661.642 153.865 661.365 154.171 661.173 154.582C660.981 154.99 660.855 155.51 660.795 156.143H660.88C661.118 155.676 661.453 155.32 661.884 155.075C662.315 154.829 662.82 154.707 663.4 154.707C664.033 154.707 664.592 154.849 665.076 155.134C665.563 155.416 665.942 155.825 666.214 156.362C666.489 156.899 666.627 157.549 666.627 158.311C666.627 159.097 666.479 159.778 666.184 160.354C665.889 160.928 665.47 161.37 664.926 161.682C664.386 161.993 663.745 162.149 663.002 162.149C662.263 162.149 661.62 161.988 661.073 161.667C660.53 161.342 660.109 160.863 659.811 160.23C659.516 159.594 659.368 158.81 659.368 157.879V157.192C659.368 155.396 659.703 154.055 660.372 153.17C661.042 152.286 662.035 151.835 663.35 151.818C663.742 151.812 664.091 151.81 664.399 151.813C664.711 151.817 664.983 151.802 665.215 151.768C665.447 151.735 665.642 151.659 665.801 151.54ZM663.012 160.707C663.38 160.707 663.698 160.613 663.967 160.424C664.235 160.232 664.441 159.96 664.583 159.609C664.729 159.257 664.802 158.841 664.802 158.361C664.802 157.887 664.729 157.484 664.583 157.153C664.438 156.818 664.23 156.563 663.962 156.387C663.693 156.211 663.374 156.124 663.002 156.124C662.724 156.124 662.474 156.173 662.252 156.273C662.03 156.372 661.841 156.518 661.685 156.71C661.529 156.902 661.41 157.136 661.327 157.411C661.244 157.686 661.199 158.003 661.193 158.361C661.193 159.08 661.355 159.652 661.68 160.076C662.005 160.497 662.449 160.707 663.012 160.707ZM671.769 162.149C671.023 162.149 670.377 161.985 669.83 161.657C669.283 161.329 668.859 160.87 668.557 160.28C668.259 159.69 668.11 159 668.11 158.212C668.11 157.423 668.259 156.732 668.557 156.138C668.859 155.545 669.283 155.085 669.83 154.756C670.377 154.428 671.023 154.264 671.769 154.264C672.515 154.264 673.161 154.428 673.708 154.756C674.255 155.085 674.677 155.545 674.976 156.138C675.277 156.732 675.428 157.423 675.428 158.212C675.428 159 675.277 159.69 674.976 160.28C674.677 160.87 674.255 161.329 673.708 161.657C673.161 161.985 672.515 162.149 671.769 162.149ZM671.779 160.707C672.183 160.707 672.521 160.596 672.793 160.374C673.065 160.149 673.267 159.847 673.4 159.469C673.535 159.092 673.603 158.671 673.603 158.207C673.603 157.739 673.535 157.317 673.4 156.939C673.267 156.558 673.065 156.254 672.793 156.029C672.521 155.804 672.183 155.691 671.779 155.691C671.365 155.691 671.02 155.804 670.745 156.029C670.473 156.254 670.269 156.558 670.133 156.939C670.001 157.317 669.934 157.739 669.934 158.207C669.934 158.671 670.001 159.092 670.133 159.469C670.269 159.847 670.473 160.149 670.745 160.374C671.02 160.596 671.365 160.707 671.779 160.707ZM677.236 164.864V154.364H679.005V155.626H679.11C679.203 155.441 679.334 155.244 679.503 155.035C679.672 154.823 679.9 154.642 680.189 154.493C680.477 154.34 680.845 154.264 681.292 154.264C681.882 154.264 682.414 154.415 682.888 154.717C683.366 155.015 683.743 155.457 684.022 156.044C684.303 156.627 684.444 157.343 684.444 158.192C684.444 159.03 684.307 159.743 684.032 160.33C683.757 160.916 683.382 161.364 682.908 161.672C682.434 161.98 681.897 162.134 681.297 162.134C680.86 162.134 680.497 162.061 680.209 161.915C679.92 161.77 679.688 161.594 679.513 161.388C679.34 161.18 679.206 160.982 679.11 160.797H679.035V164.864H677.236ZM679 158.182C679 158.676 679.07 159.108 679.209 159.479C679.352 159.851 679.556 160.141 679.821 160.349C680.089 160.555 680.414 160.658 680.795 160.658C681.193 160.658 681.526 160.552 681.794 160.339C682.063 160.124 682.265 159.831 682.401 159.46C682.54 159.085 682.61 158.659 682.61 158.182C682.61 157.708 682.542 157.287 682.406 156.919C682.27 156.551 682.068 156.263 681.799 156.054C681.531 155.845 681.196 155.741 680.795 155.741C680.411 155.741 680.084 155.842 679.816 156.044C679.547 156.246 679.343 156.53 679.204 156.894C679.068 157.259 679 157.688 679 158.182ZM689.597 162.149C688.851 162.149 688.204 161.985 687.658 161.657C687.111 161.329 686.686 160.87 686.385 160.28C686.087 159.69 685.937 159 685.937 158.212C685.937 157.423 686.087 156.732 686.385 156.138C686.686 155.545 687.111 155.085 687.658 154.756C688.204 154.428 688.851 154.264 689.597 154.264C690.342 154.264 690.989 154.428 691.535 154.756C692.082 155.085 692.505 155.545 692.803 156.138C693.105 156.732 693.256 157.423 693.256 158.212C693.256 159 693.105 159.69 692.803 160.28C692.505 160.87 692.082 161.329 691.535 161.657C690.989 161.985 690.342 162.149 689.597 162.149ZM689.606 160.707C690.011 160.707 690.349 160.596 690.621 160.374C690.892 160.149 691.095 159.847 691.227 159.469C691.363 159.092 691.431 158.671 691.431 158.207C691.431 157.739 691.363 157.317 691.227 156.939C691.095 156.558 690.892 156.254 690.621 156.029C690.349 155.804 690.011 155.691 689.606 155.691C689.192 155.691 688.847 155.804 688.572 156.029C688.301 156.254 688.097 156.558 687.961 156.939C687.828 157.317 687.762 157.739 687.762 158.207C687.762 158.671 687.828 159.092 687.961 159.469C688.097 159.847 688.301 160.149 688.572 160.374C688.847 160.596 689.192 160.707 689.606 160.707ZM694.222 155.84V154.364H700.903V155.84H698.433V162H696.693V155.84H694.222ZM705.633 162.149C704.887 162.149 704.241 161.985 703.694 161.657C703.147 161.329 702.723 160.87 702.421 160.28C702.123 159.69 701.974 159 701.974 158.212C701.974 157.423 702.123 156.732 702.421 156.138C702.723 155.545 703.147 155.085 703.694 154.756C704.241 154.428 704.887 154.264 705.633 154.264C706.379 154.264 707.025 154.428 707.572 154.756C708.119 155.085 708.541 155.545 708.84 156.138C709.141 156.732 709.292 157.423 709.292 158.212C709.292 159 709.141 159.69 708.84 160.28C708.541 160.87 708.119 161.329 707.572 161.657C707.025 161.985 706.379 162.149 705.633 162.149ZM705.643 160.707C706.047 160.707 706.385 160.596 706.657 160.374C706.929 160.149 707.131 159.847 707.264 159.469C707.4 159.092 707.468 158.671 707.468 158.207C707.468 157.739 707.4 157.317 707.264 156.939C707.131 156.558 706.929 156.254 706.657 156.029C706.385 155.804 706.047 155.691 705.643 155.691C705.229 155.691 704.884 155.804 704.609 156.029C704.337 156.254 704.133 156.558 703.997 156.939C703.865 157.317 703.799 157.739 703.799 158.207C703.799 158.671 703.865 159.092 703.997 159.469C704.133 159.847 704.337 160.149 704.609 160.374C704.884 160.596 705.229 160.707 705.643 160.707ZM711.1 164.864V154.364H712.87V155.626H712.974C713.067 155.441 713.198 155.244 713.367 155.035C713.536 154.823 713.764 154.642 714.053 154.493C714.341 154.34 714.709 154.264 715.156 154.264C715.746 154.264 716.278 154.415 716.752 154.717C717.23 155.015 717.607 155.457 717.886 156.044C718.168 156.627 718.308 157.343 718.308 158.192C718.308 159.03 718.171 159.743 717.896 160.33C717.621 160.916 717.246 161.364 716.772 161.672C716.298 161.98 715.761 162.134 715.161 162.134C714.724 162.134 714.361 162.061 714.073 161.915C713.784 161.77 713.552 161.594 713.377 161.388C713.204 161.18 713.07 160.982 712.974 160.797H712.899V164.864H711.1ZM712.865 158.182C712.865 158.676 712.934 159.108 713.073 159.479C713.216 159.851 713.42 160.141 713.685 160.349C713.953 160.555 714.278 160.658 714.659 160.658C715.057 160.658 715.39 160.552 715.659 160.339C715.927 160.124 716.129 159.831 716.265 159.46C716.404 159.085 716.474 158.659 716.474 158.182C716.474 157.708 716.406 157.287 716.27 156.919C716.134 156.551 715.932 156.263 715.664 156.054C715.395 155.845 715.06 155.741 714.659 155.741C714.275 155.741 713.948 155.842 713.68 156.044C713.411 156.246 713.208 156.53 713.068 156.894C712.933 157.259 712.865 157.688 712.865 158.182ZM721.865 159.564L724.922 154.364H726.772V162H725.032V156.795L721.984 162H720.13V154.364H721.865V159.564ZM733.414 162V155.825H731.783C731.369 155.825 731.051 155.921 730.829 156.114C730.607 156.306 730.497 156.545 730.501 156.83C730.497 157.115 730.602 157.35 730.814 157.536C731.026 157.721 731.329 157.814 731.724 157.814H733.981V159.126H731.724C731.114 159.126 730.587 159.03 730.143 158.838C729.699 158.646 729.357 158.374 729.119 158.023C728.88 157.671 728.761 157.26 728.761 156.79C728.761 156.299 728.882 155.873 729.124 155.512C729.369 155.147 729.717 154.866 730.168 154.667C730.622 154.465 731.16 154.364 731.783 154.364H735.099V162H733.414ZM728.482 162L730.615 158.082H732.39L730.252 162H728.482Z" fill="white"/>
<rect width="770" height="80" rx="10" fill="#3F3F3F"/>
<path d="M211.75 34.58V47H209.59V38.918C209.59 38.654 209.602 38.39 209.626 38.126C209.65 37.862 209.68 37.604 209.716 37.352H209.608C209.524 37.604 209.422 37.862 209.302 38.126C209.182 38.378 209.062 38.624 208.942 38.864L204.136 47H201.904V34.58H204.064V42.554C204.064 42.818 204.052 43.088 204.028 43.364C204.004 43.64 203.98 43.91 203.956 44.174H204.028C204.136 43.922 204.25 43.67 204.37 43.418C204.502 43.154 204.634 42.902 204.766 42.662L209.518 34.58H211.75ZM217.188 34.58V47H214.92V34.58H217.188ZM222.354 39.494V41.258H217.044V39.494H222.354ZM224.406 34.58V47H222.156V34.58H224.406ZM233.705 35.282C234.965 35.282 236.027 35.372 236.891 35.552C237.767 35.72 238.469 36.014 238.997 36.434C239.537 36.842 239.927 37.394 240.167 38.09C240.407 38.774 240.527 39.626 240.527 40.646C240.527 41.642 240.407 42.482 240.167 43.166C239.927 43.838 239.537 44.378 238.997 44.786C238.469 45.182 237.767 45.47 236.891 45.65C236.027 45.818 234.965 45.902 233.705 45.902C232.457 45.902 231.395 45.818 230.519 45.65C229.655 45.47 228.959 45.182 228.431 44.786C227.903 44.378 227.519 43.838 227.279 43.166C227.039 42.482 226.919 41.642 226.919 40.646C226.919 39.626 227.039 38.774 227.279 38.09C227.519 37.394 227.903 36.842 228.431 36.434C228.959 36.014 229.655 35.72 230.519 35.552C231.395 35.372 232.457 35.282 233.705 35.282ZM233.705 37.01C232.817 37.01 232.079 37.064 231.491 37.172C230.915 37.28 230.459 37.466 230.123 37.73C229.787 37.994 229.547 38.366 229.403 38.846C229.271 39.314 229.205 39.914 229.205 40.646C229.205 41.354 229.271 41.936 229.403 42.392C229.547 42.848 229.787 43.208 230.123 43.472C230.459 43.736 230.915 43.922 231.491 44.03C232.079 44.126 232.817 44.174 233.705 44.174C234.593 44.174 235.331 44.126 235.919 44.03C236.507 43.922 236.969 43.736 237.305 43.472C237.641 43.208 237.881 42.848 238.025 42.392C238.169 41.936 238.241 41.354 238.241 40.646C238.241 39.914 238.169 39.314 238.025 38.846C237.881 38.366 237.641 37.994 237.305 37.73C236.969 37.466 236.507 37.28 235.919 37.172C235.331 37.064 234.593 37.01 233.705 37.01ZM234.839 33.626L234.857 36.092L234.749 36.542V44.624L234.857 45.146V47.54H232.589V45.146L232.679 44.624V36.542L232.589 36.092V33.626H234.839ZM247.599 34.418C248.679 34.418 249.531 34.538 250.155 34.778C250.791 35.006 251.241 35.408 251.505 35.984C251.769 36.548 251.901 37.352 251.901 38.396C251.901 39.44 251.769 40.25 251.505 40.826C251.253 41.402 250.833 41.804 250.245 42.032C249.657 42.26 248.865 42.374 247.869 42.374C247.329 42.374 246.807 42.356 246.303 42.32C245.811 42.284 245.349 42.236 244.917 42.176C244.497 42.116 244.137 42.056 243.837 41.996C243.537 41.924 243.327 41.864 243.207 41.816L243.261 40.61C243.945 40.61 244.647 40.61 245.367 40.61C246.099 40.61 246.825 40.61 247.545 40.61C248.073 40.598 248.487 40.532 248.787 40.412C249.099 40.292 249.315 40.076 249.435 39.764C249.567 39.44 249.633 38.984 249.633 38.396C249.633 37.808 249.567 37.358 249.435 37.046C249.315 36.722 249.099 36.5 248.787 36.38C248.487 36.248 248.073 36.182 247.545 36.182C246.489 36.182 245.583 36.188 244.827 36.2C244.071 36.212 243.555 36.23 243.279 36.254L243.027 34.58C243.507 34.532 243.957 34.496 244.377 34.472C244.809 34.448 245.271 34.436 245.763 34.436C246.267 34.424 246.879 34.418 247.599 34.418ZM245.277 34.58V47H243.027V34.58H245.277ZM259.775 34.58C259.967 34.58 260.135 34.634 260.279 34.742C260.423 34.85 260.525 34.994 260.585 35.174L264.347 47H262.043L259.199 37.424C259.151 37.232 259.103 37.04 259.055 36.848C259.007 36.656 258.965 36.47 258.929 36.29H258.425C258.389 36.47 258.347 36.656 258.299 36.848C258.251 37.04 258.197 37.232 258.137 37.424L255.311 47H253.007L256.769 35.174C256.817 34.994 256.913 34.85 257.057 34.742C257.213 34.634 257.387 34.58 257.579 34.58H259.775ZM261.863 41.69V43.454H255.473V41.69H261.863ZM270.75 34.364C271.314 34.364 271.794 34.382 272.19 34.418C272.586 34.442 272.952 34.484 273.288 34.544C273.624 34.592 273.972 34.664 274.332 34.76L274.134 36.434C273.762 36.41 273.414 36.392 273.09 36.38C272.766 36.356 272.418 36.338 272.046 36.326C271.686 36.314 271.254 36.308 270.75 36.308C270.054 36.308 269.508 36.446 269.112 36.722C268.716 36.998 268.434 37.46 268.266 38.108C268.11 38.756 268.032 39.65 268.032 40.79C268.032 41.93 268.11 42.824 268.266 43.472C268.434 44.12 268.716 44.582 269.112 44.858C269.508 45.134 270.054 45.272 270.75 45.272C271.554 45.272 272.226 45.26 272.766 45.236C273.318 45.2 273.858 45.152 274.386 45.092L274.584 46.748C274.044 46.916 273.486 47.036 272.91 47.108C272.334 47.18 271.614 47.216 270.75 47.216C269.502 47.216 268.506 47.012 267.762 46.604C267.018 46.184 266.478 45.506 266.142 44.57C265.818 43.634 265.656 42.374 265.656 40.79C265.656 39.206 265.818 37.946 266.142 37.01C266.478 36.074 267.018 35.402 267.762 34.994C268.506 34.574 269.502 34.364 270.75 34.364ZM281.966 34.58V47H279.716V34.58H281.966ZM285.818 34.58V36.416H275.864V34.58H285.818ZM292.51 34.418C293.59 34.418 294.442 34.538 295.066 34.778C295.702 35.006 296.152 35.408 296.416 35.984C296.68 36.548 296.812 37.352 296.812 38.396C296.812 39.44 296.68 40.25 296.416 40.826C296.164 41.402 295.744 41.804 295.156 42.032C294.568 42.26 293.776 42.374 292.78 42.374C292.24 42.374 291.718 42.356 291.214 42.32C290.722 42.284 290.26 42.236 289.828 42.176C289.408 42.116 289.048 42.056 288.748 41.996C288.448 41.924 288.238 41.864 288.118 41.816L288.172 40.61C288.856 40.61 289.558 40.61 290.278 40.61C291.01 40.61 291.736 40.61 292.456 40.61C292.984 40.598 293.398 40.532 293.698 40.412C294.01 40.292 294.226 40.076 294.346 39.764C294.478 39.44 294.544 38.984 294.544 38.396C294.544 37.808 294.478 37.358 294.346 37.046C294.226 36.722 294.01 36.5 293.698 36.38C293.398 36.248 292.984 36.182 292.456 36.182C291.4 36.182 290.494 36.188 289.738 36.2C288.982 36.212 288.466 36.23 288.19 36.254L287.938 34.58C288.418 34.532 288.868 34.496 289.288 34.472C289.72 34.448 290.182 34.436 290.674 34.436C291.178 34.424 291.79 34.418 292.51 34.418ZM290.188 34.58V47H287.938V34.58H290.188ZM308.159 34.58L304.991 43.85C304.787 44.474 304.559 45.026 304.307 45.506C304.055 45.986 303.749 46.37 303.389 46.658C303.029 46.946 302.573 47.114 302.021 47.162C301.769 47.186 301.475 47.186 301.139 47.162C300.815 47.138 300.491 47.102 300.167 47.054C299.843 47.006 299.561 46.958 299.321 46.91L299.573 45.308C300.137 45.344 300.593 45.362 300.941 45.362C301.289 45.362 301.565 45.32 301.769 45.236C301.973 45.152 302.141 45.008 302.273 44.804C302.417 44.588 302.567 44.288 302.723 43.904L303.137 42.698L303.443 41.888L305.855 34.58H308.159ZM300.383 34.58L302.561 41.438C302.621 41.606 302.747 41.69 302.939 41.69H303.749L304.235 43.436H302.201C301.793 43.436 301.475 43.34 301.247 43.148C301.031 42.956 300.869 42.686 300.761 42.338L298.061 34.58H300.383ZM319.087 34.58C318.835 35.348 318.607 36.038 318.403 36.65C318.199 37.25 317.989 37.778 317.773 38.234C317.569 38.69 317.347 39.074 317.107 39.386C316.867 39.698 316.585 39.944 316.261 40.124C315.937 40.304 315.547 40.424 315.091 40.484V40.556C315.571 40.616 315.985 40.736 316.333 40.916C316.681 41.096 316.981 41.354 317.233 41.69C317.497 42.026 317.737 42.44 317.953 42.932C318.181 43.424 318.409 44.006 318.637 44.678C318.865 45.35 319.129 46.124 319.429 47H317.053C316.729 45.992 316.441 45.134 316.189 44.426C315.949 43.706 315.697 43.124 315.433 42.68C315.181 42.224 314.881 41.888 314.533 41.672C314.197 41.456 313.765 41.348 313.237 41.348L313.219 39.71C313.723 39.71 314.143 39.596 314.479 39.368C314.827 39.14 315.127 38.81 315.379 38.378C315.631 37.934 315.865 37.394 316.081 36.758C316.297 36.122 316.537 35.396 316.801 34.58H319.087ZM312.283 34.58V38.252C312.283 38.636 312.253 39.02 312.193 39.404C312.145 39.776 312.067 40.142 311.959 40.502C312.043 40.85 312.115 41.21 312.175 41.582C312.247 41.942 312.283 42.29 312.283 42.626V47H310.033V34.58H312.283ZM313.975 39.71V41.348H311.671V39.71H313.975ZM326.666 34.58V47H324.416V34.58H326.666ZM330.518 34.58V36.416H320.564V34.58H330.518ZM341.565 34.58L338.397 43.85C338.193 44.474 337.965 45.026 337.713 45.506C337.461 45.986 337.155 46.37 336.795 46.658C336.435 46.946 335.979 47.114 335.427 47.162C335.175 47.186 334.881 47.186 334.545 47.162C334.221 47.138 333.897 47.102 333.573 47.054C333.249 47.006 332.967 46.958 332.727 46.91L332.979 45.308C333.543 45.344 333.999 45.362 334.347 45.362C334.695 45.362 334.971 45.32 335.175 45.236C335.379 45.152 335.547 45.008 335.679 44.804C335.823 44.588 335.973 44.288 336.129 43.904L336.543 42.698L336.849 41.888L339.261 34.58H341.565ZM333.789 34.58L335.967 41.438C336.027 41.606 336.153 41.69 336.345 41.69H337.155L337.641 43.436H335.607C335.199 43.436 334.881 43.34 334.653 43.148C334.437 42.956 334.275 42.686 334.167 42.338L331.467 34.58H333.789ZM348.011 34.418C349.091 34.418 349.943 34.538 350.567 34.778C351.203 35.006 351.653 35.408 351.917 35.984C352.181 36.548 352.313 37.352 352.313 38.396C352.313 39.44 352.181 40.25 351.917 40.826C351.665 41.402 351.245 41.804 350.657 42.032C350.069 42.26 349.277 42.374 348.281 42.374C347.741 42.374 347.219 42.356 346.715 42.32C346.223 42.284 345.761 42.236 345.329 42.176C344.909 42.116 344.549 42.056 344.249 41.996C343.949 41.924 343.739 41.864 343.619 41.816L343.673 40.61C344.357 40.61 345.059 40.61 345.779 40.61C346.511 40.61 347.237 40.61 347.957 40.61C348.485 40.598 348.899 40.532 349.199 40.412C349.511 40.292 349.727 40.076 349.847 39.764C349.979 39.44 350.045 38.984 350.045 38.396C350.045 37.808 349.979 37.358 349.847 37.046C349.727 36.722 349.511 36.5 349.199 36.38C348.899 36.248 348.485 36.182 347.957 36.182C346.901 36.182 345.995 36.188 345.239 36.2C344.483 36.212 343.967 36.23 343.691 36.254L343.439 34.58C343.919 34.532 344.369 34.496 344.789 34.472C345.221 34.448 345.683 34.436 346.175 34.436C346.679 34.424 347.291 34.418 348.011 34.418ZM345.689 34.58V47H343.439V34.58H345.689ZM357 34.58V47H354.732V34.58H357ZM362.166 39.494V41.258H356.856V39.494H362.166ZM364.218 34.58V47H361.968V34.58H364.218ZM371.825 39.368C372.905 39.368 373.763 39.494 374.399 39.746C375.035 39.986 375.485 40.388 375.749 40.952C376.013 41.516 376.145 42.29 376.145 43.274C376.145 44.294 376.007 45.086 375.731 45.65C375.467 46.202 375.047 46.592 374.471 46.82C373.895 47.036 373.133 47.144 372.185 47.144C371.465 47.144 370.841 47.138 370.313 47.126C369.785 47.126 369.299 47.114 368.855 47.09C368.411 47.066 367.943 47.036 367.451 47L367.703 45.326C367.979 45.338 368.483 45.35 369.215 45.362C369.947 45.374 370.817 45.38 371.825 45.38C372.377 45.38 372.797 45.326 373.085 45.218C373.385 45.098 373.595 44.882 373.715 44.57C373.835 44.246 373.895 43.796 373.895 43.22C373.895 42.668 373.841 42.23 373.733 41.906C373.625 41.582 373.421 41.354 373.121 41.222C372.833 41.078 372.401 41.006 371.825 41.006H367.685V39.368H371.825ZM369.665 34.58V47H367.397V34.58H369.665ZM380.375 34.58V47H378.125V34.58H380.375ZM385.99 34.544C386.614 34.544 387.25 34.544 387.898 34.544C388.558 34.544 389.2 34.556 389.824 34.58C390.46 34.604 391.066 34.64 391.642 34.688L391.534 36.362H386.674C386.338 36.362 386.092 36.446 385.936 36.614C385.78 36.782 385.702 37.046 385.702 37.406V44.174C385.702 44.534 385.78 44.798 385.936 44.966C386.092 45.134 386.338 45.218 386.674 45.218H391.534L391.642 46.892C391.066 46.94 390.46 46.976 389.824 47C389.2 47.012 388.558 47.018 387.898 47.018C387.25 47.03 386.614 47.036 385.99 47.036C385.222 47.036 384.604 46.826 384.136 46.406C383.68 45.974 383.452 45.398 383.452 44.678V36.902C383.452 36.182 383.68 35.612 384.136 35.192C384.604 34.76 385.222 34.544 385.99 34.544ZM383.758 39.674H390.85V41.33H383.758V39.674ZM400.769 34.58V47H398.501V34.58H400.769ZM405.935 34.58V36.236H400.625V34.58H405.935ZM407.987 34.58V47H405.737V34.58H407.987ZM416.602 34.58C416.794 34.58 416.962 34.634 417.106 34.742C417.25 34.85 417.352 34.994 417.412 35.174L421.174 47H418.87L416.026 37.424C415.978 37.232 415.93 37.04 415.882 36.848C415.834 36.656 415.792 36.47 415.756 36.29H415.252C415.216 36.47 415.174 36.656 415.126 36.848C415.078 37.04 415.024 37.232 414.964 37.424L412.138 47H409.834L413.596 35.174C413.644 34.994 413.74 34.85 413.884 34.742C414.04 34.634 414.214 34.58 414.406 34.58H416.602ZM418.69 41.69V43.454H412.3V41.69H418.69ZM427.593 34.418C428.673 34.418 429.525 34.538 430.149 34.778C430.785 35.006 431.235 35.408 431.499 35.984C431.763 36.548 431.895 37.352 431.895 38.396C431.895 39.44 431.763 40.25 431.499 40.826C431.247 41.402 430.827 41.804 430.239 42.032C429.651 42.26 428.859 42.374 427.863 42.374C427.323 42.374 426.801 42.356 426.297 42.32C425.805 42.284 425.343 42.236 424.911 42.176C424.491 42.116 424.131 42.056 423.831 41.996C423.531 41.924 423.321 41.864 423.201 41.816L423.255 40.61C423.939 40.61 424.641 40.61 425.361 40.61C426.093 40.61 426.819 40.61 427.539 40.61C428.067 40.598 428.481 40.532 428.781 40.412C429.093 40.292 429.309 40.076 429.429 39.764C429.561 39.44 429.627 38.984 429.627 38.396C429.627 37.808 429.561 37.358 429.429 37.046C429.309 36.722 429.093 36.5 428.781 36.38C428.481 36.248 428.067 36.182 427.539 36.182C426.483 36.182 425.577 36.188 424.821 36.2C424.065 36.212 423.549 36.23 423.273 36.254L423.021 34.58C423.501 34.532 423.951 34.496 424.371 34.472C424.803 34.448 425.265 34.436 425.757 34.436C426.261 34.424 426.873 34.418 427.593 34.418ZM425.271 34.58V47H423.021V34.58H425.271ZM439.373 34.58V47H437.123V34.58H439.373ZM443.225 34.58V36.416H433.271V34.58H443.225ZM447.613 34.58V47H445.345V34.58H447.613ZM452.779 39.494V41.258H447.469V39.494H452.779ZM454.831 34.58V47H452.581V34.58H454.831ZM460.44 34.544C461.064 34.544 461.7 34.544 462.348 34.544C463.008 34.544 463.65 34.556 464.274 34.58C464.91 34.604 465.516 34.64 466.092 34.688L465.984 36.362H461.124C460.788 36.362 460.542 36.446 460.386 36.614C460.23 36.782 460.152 37.046 460.152 37.406V44.174C460.152 44.534 460.23 44.798 460.386 44.966C460.542 45.134 460.788 45.218 461.124 45.218H465.984L466.092 46.892C465.516 46.94 464.91 46.976 464.274 47C463.65 47.012 463.008 47.018 462.348 47.018C461.7 47.03 461.064 47.036 460.44 47.036C459.672 47.036 459.054 46.826 458.586 46.406C458.13 45.974 457.902 45.398 457.902 44.678V36.902C457.902 36.182 458.13 35.612 458.586 35.192C459.054 34.76 459.672 34.544 460.44 34.544ZM458.208 39.674H465.3V41.33H458.208V39.674ZM473.225 34.418C474.305 34.418 475.157 34.538 475.781 34.778C476.417 35.006 476.867 35.408 477.131 35.984C477.395 36.548 477.527 37.352 477.527 38.396C477.527 39.44 477.395 40.25 477.131 40.826C476.879 41.402 476.459 41.804 475.871 42.032C475.283 42.26 474.491 42.374 473.495 42.374C472.955 42.374 472.433 42.356 471.929 42.32C471.437 42.284 470.975 42.236 470.543 42.176C470.123 42.116 469.763 42.056 469.463 41.996C469.163 41.924 468.953 41.864 468.833 41.816L468.887 40.61C469.571 40.61 470.273 40.61 470.993 40.61C471.725 40.61 472.451 40.61 473.171 40.61C473.699 40.598 474.113 40.532 474.413 40.412C474.725 40.292 474.941 40.076 475.061 39.764C475.193 39.44 475.259 38.984 475.259 38.396C475.259 37.808 475.193 37.358 475.061 37.046C474.941 36.722 474.725 36.5 474.413 36.38C474.113 36.248 473.699 36.182 473.171 36.182C472.115 36.182 471.209 36.188 470.453 36.2C469.697 36.212 469.181 36.23 468.905 36.254L468.653 34.58C469.133 34.532 469.583 34.496 470.003 34.472C470.435 34.448 470.897 34.436 471.389 34.436C471.893 34.424 472.505 34.418 473.225 34.418ZM470.903 34.58V47H468.653V34.58H470.903ZM484.374 39.368C485.454 39.368 486.312 39.494 486.948 39.746C487.584 39.986 488.034 40.388 488.298 40.952C488.562 41.516 488.694 42.29 488.694 43.274C488.694 44.294 488.556 45.086 488.28 45.65C488.016 46.202 487.596 46.592 487.02 46.82C486.444 47.036 485.682 47.144 484.734 47.144C484.014 47.144 483.39 47.138 482.862 47.126C482.334 47.126 481.848 47.114 481.404 47.09C480.96 47.066 480.492 47.036 480 47L480.252 45.326C480.528 45.338 481.032 45.35 481.764 45.362C482.496 45.374 483.366 45.38 484.374 45.38C484.926 45.38 485.346 45.326 485.634 45.218C485.934 45.098 486.144 44.882 486.264 44.57C486.384 44.246 486.444 43.796 486.444 43.22C486.444 42.668 486.39 42.23 486.282 41.906C486.174 41.582 485.97 41.354 485.67 41.222C485.382 41.078 484.95 41.006 484.374 41.006H480.234V39.368H484.374ZM482.214 34.58V47H479.946V34.58H482.214ZM492.924 34.58V47H490.674V34.58H492.924ZM497.099 44.534C497.387 44.534 497.585 44.594 497.693 44.714C497.801 44.822 497.861 45.02 497.873 45.308V46.46C497.873 46.88 497.837 47.264 497.765 47.612C497.705 47.972 497.615 48.308 497.495 48.62C497.375 48.932 497.231 49.238 497.063 49.538L496.145 49.25C496.229 48.866 496.289 48.5 496.325 48.152C496.361 47.816 496.379 47.432 496.379 47C495.971 47 495.761 46.772 495.749 46.316L495.767 45.308C495.779 45.02 495.845 44.822 495.965 44.714C496.085 44.594 496.283 44.534 496.559 44.534H497.099ZM513.174 34.58L512.976 36.326H507.27V47H505.02V34.58C505.716 34.532 506.406 34.502 507.09 34.49C507.774 34.466 508.44 34.454 509.088 34.454C509.796 34.454 510.486 34.466 511.158 34.49C511.83 34.514 512.502 34.544 513.174 34.58ZM509.502 39.764C510.606 39.764 511.476 39.884 512.112 40.124C512.76 40.352 513.216 40.736 513.48 41.276C513.756 41.804 513.894 42.536 513.894 43.472C513.894 44.264 513.804 44.906 513.624 45.398C513.444 45.878 513.168 46.244 512.796 46.496C512.436 46.748 511.974 46.922 511.41 47.018C510.858 47.114 510.21 47.162 509.466 47.162C508.926 47.162 508.416 47.156 507.936 47.144C507.456 47.132 506.982 47.114 506.514 47.09C506.058 47.066 505.578 47.036 505.074 47L505.326 45.344C505.602 45.356 506.106 45.368 506.838 45.38C507.582 45.392 508.47 45.398 509.502 45.398C510.078 45.398 510.516 45.35 510.816 45.254C511.128 45.146 511.338 44.948 511.446 44.66C511.566 44.36 511.626 43.934 511.626 43.382C511.626 42.866 511.572 42.458 511.464 42.158C511.356 41.858 511.146 41.648 510.834 41.528C510.534 41.396 510.09 41.33 509.502 41.33H505.308V39.764H509.502ZM526.266 34.58V47H524.106V38.918C524.106 38.654 524.118 38.39 524.142 38.126C524.166 37.862 524.196 37.604 524.232 37.352H524.124C524.04 37.604 523.938 37.862 523.818 38.126C523.698 38.378 523.578 38.624 523.458 38.864L518.652 47H516.42V34.58H518.58V42.554C518.58 42.818 518.568 43.088 518.544 43.364C518.52 43.64 518.496 43.91 518.472 44.174H518.544C518.652 43.922 518.766 43.67 518.886 43.418C519.018 43.154 519.15 42.902 519.282 42.662L524.034 34.58H526.266ZM534.008 34.418C535.088 34.418 535.94 34.538 536.564 34.778C537.2 35.006 537.65 35.408 537.914 35.984C538.178 36.548 538.31 37.352 538.31 38.396C538.31 39.44 538.178 40.25 537.914 40.826C537.662 41.402 537.242 41.804 536.654 42.032C536.066 42.26 535.274 42.374 534.278 42.374C533.738 42.374 533.216 42.356 532.712 42.32C532.22 42.284 531.758 42.236 531.326 42.176C530.906 42.116 530.546 42.056 530.246 41.996C529.946 41.924 529.736 41.864 529.616 41.816L529.67 40.61C530.354 40.61 531.056 40.61 531.776 40.61C532.508 40.61 533.234 40.61 533.954 40.61C534.482 40.598 534.896 40.532 535.196 40.412C535.508 40.292 535.724 40.076 535.844 39.764C535.976 39.44 536.042 38.984 536.042 38.396C536.042 37.808 535.976 37.358 535.844 37.046C535.724 36.722 535.508 36.5 535.196 36.38C534.896 36.248 534.482 36.182 533.954 36.182C532.898 36.182 531.992 36.188 531.236 36.2C530.48 36.212 529.964 36.23 529.688 36.254L529.436 34.58C529.916 34.532 530.366 34.496 530.786 34.472C531.218 34.448 531.68 34.436 532.172 34.436C532.676 34.424 533.288 34.418 534.008 34.418ZM531.686 34.58V47H529.436V34.58H531.686ZM555.219 34.58C554.979 35.324 554.757 35.996 554.553 36.596C554.349 37.196 554.145 37.724 553.941 38.18C553.749 38.636 553.527 39.026 553.275 39.35C553.035 39.674 552.753 39.932 552.429 40.124C552.105 40.304 551.709 40.424 551.241 40.484V40.556C551.733 40.616 552.147 40.736 552.483 40.916C552.831 41.096 553.131 41.354 553.383 41.69C553.647 42.026 553.887 42.44 554.103 42.932C554.331 43.424 554.559 44.006 554.787 44.678C555.015 45.35 555.267 46.124 555.543 47H553.185C552.837 45.992 552.531 45.134 552.267 44.426C552.015 43.706 551.769 43.124 551.529 42.68C551.289 42.224 551.013 41.888 550.701 41.672C550.401 41.456 550.029 41.348 549.585 41.348V39.71C550.005 39.71 550.365 39.596 550.665 39.368C550.965 39.14 551.229 38.81 551.457 38.378C551.697 37.934 551.931 37.394 552.159 36.758C552.387 36.122 552.639 35.396 552.915 34.58H555.219ZM542.385 34.58C542.661 35.396 542.907 36.122 543.123 36.758C543.351 37.394 543.585 37.934 543.825 38.378C544.065 38.81 544.335 39.14 544.635 39.368C544.935 39.596 545.289 39.71 545.697 39.71V41.348C545.253 41.348 544.881 41.456 544.581 41.672C544.281 41.888 544.011 42.224 543.771 42.68C543.531 43.124 543.279 43.706 543.015 44.426C542.763 45.134 542.463 45.992 542.115 47H539.757C540.045 46.124 540.297 45.35 540.513 44.678C540.741 44.006 540.963 43.424 541.179 42.932C541.395 42.44 541.635 42.026 541.899 41.69C542.163 41.354 542.463 41.096 542.799 40.916C543.147 40.736 543.561 40.616 544.041 40.556V40.484C543.585 40.424 543.195 40.304 542.871 40.124C542.547 39.932 542.259 39.674 542.007 39.35C541.767 39.026 541.545 38.636 541.341 38.18C541.149 37.724 540.951 37.196 540.747 36.596C540.555 35.996 540.339 35.324 540.099 34.58H542.385ZM547.119 39.71V41.348H545.175V39.71H547.119ZM548.757 34.58V38.252C548.757 38.636 548.733 39.014 548.685 39.386C548.637 39.758 548.553 40.13 548.433 40.502C548.529 40.85 548.607 41.21 548.667 41.582C548.727 41.942 548.757 42.29 548.757 42.626V47H546.597V42.626C546.597 42.29 546.633 41.942 546.705 41.582C546.777 41.21 546.855 40.85 546.939 40.502C546.819 40.13 546.729 39.758 546.669 39.386C546.621 39.014 546.597 38.636 546.597 38.252V34.58H548.757ZM550.125 39.71V41.348H548.271V39.71H550.125ZM567.582 34.58V47H565.422V38.918C565.422 38.654 565.434 38.39 565.458 38.126C565.482 37.862 565.512 37.604 565.548 37.352H565.44C565.356 37.604 565.254 37.862 565.134 38.126C565.014 38.378 564.894 38.624 564.774 38.864L559.968 47H557.736V34.58H559.896V42.554C559.896 42.818 559.884 43.088 559.86 43.364C559.836 43.64 559.812 43.91 559.788 44.174H559.86C559.968 43.922 560.082 43.67 560.202 43.418C560.334 43.154 560.466 42.902 560.598 42.662L565.35 34.58H567.582Z" fill="white"/>
<path d="M84.2929 107.707C84.6834 108.098 85.3166 108.098 85.7071 107.707L92.0711 101.343C92.4616 100.953 92.4616 100.319 92.0711 99.9289C91.6805 99.5384 91.0474 99.5384 90.6569 99.9289L85 105.586L79.3431 99.9289C78.9526 99.5384 78.3195 99.5384 77.9289 99.9289C77.5384 100.319 77.5384 100.953 77.9289 101.343L84.2929 107.707ZM84 77L84 107L86 107L86 77L84 77Z" fill="#3F3F3F"/>
<path d="M284.293 107.707C284.683 108.098 285.317 108.098 285.707 107.707L292.071 101.343C292.462 100.953 292.462 100.319 292.071 99.9289C291.681 99.5384 291.047 99.5384 290.657 99.9289L285 105.586L279.343 99.9289C278.953 99.5384 278.319 99.5384 277.929 99.9289C277.538 100.319 277.538 100.953 277.929 101.343L284.293 107.707ZM284 77L284 107L286 107L286 77L284 77Z" fill="#3F3F3F"/>
<path d="M484.293 107.707C484.683 108.098 485.317 108.098 485.707 107.707L492.071 101.343C492.462 100.953 492.462 100.319 492.071 99.9289C491.681 99.5384 491.047 99.5384 490.657 99.9289L485 105.586L479.343 99.9289C478.953 99.5384 478.319 99.5384 477.929 99.9289C477.538 100.319 477.538 100.953 477.929 101.343L484.293 107.707ZM484 77L484 107L486 107L486 77L484 77Z" fill="#3F3F3F"/>
<path d="M684.293 107.707C684.683 108.098 685.317 108.098 685.707 107.707L692.071 101.343C692.462 100.953 692.462 100.319 692.071 99.9289C691.681 99.5384 691.047 99.5384 690.657 99.9289L685 105.586L679.343 99.9289C678.953 99.5384 678.319 99.5384 677.929 99.9289C677.538 100.319 677.538 100.953 677.929 101.343L684.293 107.707ZM684 77L684 107L686 107L686 77L684 77Z" fill="#3F3F3F"/>
</svg>
