<svg width="14" height="15" viewBox="0 0 14 15" fill="none" xmlns="http://www.w3.org/2000/svg">
<path d="M5.09091 4.09091C5.09068 5.0455 5.32428 5.98344 5.76836 6.811C6.21244 7.63856 6.85145 8.32677 7.62153 8.80684C8.39161 9.28692 9.2658 9.54206 10.1567 9.54676C11.0477 9.55146 11.9242 9.30556 12.6986 8.83364C12.3925 12.2932 9.67273 15 6.36364 15C2.849 15 0 11.9475 0 8.18182C0 4.63636 2.52636 1.72227 5.75527 1.39432C5.31844 2.21587 5.08943 3.1454 5.09091 4.09091ZM1.27273 8.18182C1.27273 9.62845 1.80909 11.0158 2.76382 12.0388C3.71855 13.0617 5.01344 13.6364 6.36364 13.6364C7.26312 13.6363 8.14656 13.3811 8.92416 12.8967C9.70176 12.4123 10.3458 11.7159 10.7908 10.8784C10.5897 10.8989 10.3861 10.9091 10.1818 10.9091C6.66718 10.9091 3.81818 7.85659 3.81818 4.09091C3.81818 3.87205 3.82773 3.65455 3.84682 3.43841C3.06514 3.91522 2.41521 4.60526 1.96309 5.4384C1.51097 6.27155 1.27278 7.21809 1.27273 8.18182ZM10.2862 1.56205L10.8182 1.70455V2.38636L10.2862 2.52886C10.0624 2.58882 9.8581 2.71279 9.69502 2.88752C9.53193 3.06225 9.41623 3.28118 9.36027 3.52091L9.22727 4.09091H8.59091L8.45791 3.52091C8.40195 3.28118 8.28625 3.06225 8.12316 2.88752C7.96008 2.71279 7.75574 2.58882 7.532 2.52886L7 2.38636V1.70455L7.532 1.56205C7.75563 1.50198 7.95983 1.37797 8.12279 1.20324C8.28576 1.02851 8.40137 0.809642 8.45727 0.57L8.59091 0H9.22727L9.36027 0.57C9.41623 0.809727 9.53193 1.02866 9.69502 1.20339C9.8581 1.37812 10.0624 1.50209 10.2862 1.56205ZM13.468 4.97114L14 5.11364V5.79545L13.468 5.93795C13.2443 5.99791 13.0399 6.12188 12.8768 6.29661C12.7138 6.47134 12.598 6.69027 12.5421 6.93L12.4091 7.5H11.7727L11.6397 6.93C11.5838 6.69027 11.4681 6.47134 11.305 6.29661C11.1419 6.12188 10.9376 5.99791 10.7138 5.93795L10.1818 5.79545V5.11364L10.7138 4.97114C10.9376 4.91118 11.1419 4.78721 11.305 4.61248C11.4681 4.43775 11.5838 4.21882 11.6397 3.97909L11.7727 3.40909H12.4091L12.5421 3.97909C12.598 4.21882 12.7138 4.43775 12.8768 4.61248C13.0399 4.78721 13.2443 4.91118 13.468 4.97114Z" fill="black"/>
</svg>
