<svg width="128" height="26" viewBox="0 0 128 26" fill="none" xmlns="http://www.w3.org/2000/svg">
<path d="M13.1895 0.448364H5.70404V1.06484H8.10325V13.299C8.10325 16.9503 7.04755 17.9935 4.74439 17.9935C3.88062 18.0884 3.1129 17.472 3.01694 16.6184V16.3339C3.01694 15.0062 2.92097 14.2 1.72137 14.2C0.521763 14.2 0.329834 15.4329 0.329834 15.8123C0.329834 17.5193 1.09755 18.7997 4.50444 18.7997C8.58308 18.7997 10.7423 17.472 10.7423 12.9671V1.06484H13.2375L13.1895 0.448364ZM14.1492 15.9071C13.7654 15.9071 13.3814 16.0493 13.0935 16.3339C12.8056 16.6184 12.6617 16.9977 12.6617 17.3771C12.6617 17.7564 12.8056 18.1358 13.0935 18.3729C13.3814 18.6574 13.7654 18.7997 14.1492 18.7997C14.5331 18.7997 14.9169 18.6574 15.2048 18.3729C15.4927 18.0884 15.6367 17.7564 15.6367 17.3771C15.6367 16.571 15.0129 15.9545 14.1972 15.9545H14.1492V15.9071ZM30.7996 15.9071C30.0319 15.9071 29.3601 16.5236 29.3121 17.2823V17.3297C29.3121 17.709 29.504 18.0884 29.7919 18.3255C30.0798 18.61 30.4637 18.7523 30.8476 18.7523C31.2314 18.7523 31.6154 18.61 31.9033 18.3255C32.1912 18.0884 32.3351 17.709 32.3351 17.3297C32.3351 16.9503 32.1912 16.571 31.9033 16.2865C31.6154 16.002 31.2794 15.8597 30.8956 15.8597L30.7996 15.9071ZM25.6173 0.448364H18.2279V1.06484H20.3871V15.0062C20.4351 15.5752 20.3871 16.1442 20.1952 16.7132C20.0033 17.0925 19.6673 17.4245 19.2835 17.5193C18.8516 17.6616 18.3718 17.7565 17.8919 17.7565V18.3255H25.7133V17.7565C25.1854 17.7565 24.7056 17.709 24.2258 17.5668C23.7939 17.4245 23.4581 17.14 23.3141 16.7607C23.1702 16.3813 23.0742 16.002 23.1222 15.6225V10.7858H25.0895C30.7516 10.7858 32.3351 8.55714 32.3351 5.56968C32.3351 2.5823 31.3275 0.448364 25.6173 0.448364V0.448364ZM24.5617 10.0745H23.0742V1.15968H24.4177C28.7843 1.15968 29.84 2.91418 29.84 5.75935C29.84 8.60451 28.1125 10.1693 24.6577 10.1693L24.5617 10.0745ZM55.7033 16.6657C55.5593 16.2864 55.5113 15.8596 55.5593 15.4329V1.06476H57.5266V0.495741H52.8722L47.2101 14.1051C47.2101 14.1525 47.1621 14.1999 47.1141 14.1999C47.0661 14.1999 47.0181 14.1525 46.9702 14.1051C46.9702 14.1051 41.1161 0.638037 41.0681 0.495741H35.8858V1.06476H38.1412V16.1916C38.1412 16.5235 37.9972 16.808 37.8533 17.0925C37.6613 17.3771 37.3733 17.5667 37.0375 17.6616C36.7016 17.7564 36.3177 17.7564 35.9818 17.7564V18.3254H41.1162V17.7564C40.7802 17.7564 40.4923 17.709 40.2044 17.6142C39.8206 17.5193 39.5327 17.3296 39.2927 17.0451C39.1008 16.7606 39.0048 16.4761 38.9568 16.1442L38.9089 14.8639V2.91419H39.1968C39.1968 2.91419 45.8665 18.1357 45.8665 18.3254H46.4903L52.7762 3.0564H52.9202V15.338C52.9202 15.7648 52.8722 16.1916 52.7762 16.6184C52.6323 16.9977 52.3443 17.2822 52.0085 17.4245C51.5766 17.5667 51.1448 17.6616 50.7129 17.6616V18.2306H57.8625V17.6616C57.4306 17.6616 56.9508 17.5667 56.5189 17.4245C56.1351 17.2348 55.8472 16.9029 55.7033 16.5235V16.6657ZM65.3479 5.23771C61.5093 5.23771 59.1101 7.70353 59.1101 12.0661C59.1101 18.4677 64.1484 18.8471 65.252 18.8471C67.4114 18.8471 71.4897 17.5193 71.4897 11.9238C71.4421 7.56123 68.8505 5.23771 65.3479 5.23771V5.23771ZM65.3 18.0409C62.421 18.0409 61.9891 16.6184 61.9891 12.1135C61.9891 8.60443 62.229 5.94894 65.3 5.94894C68.6108 5.94894 68.6592 8.69926 68.6592 11.8289C68.6592 16.4286 67.8432 18.0409 65.3 18.0409ZM81.4704 5.42738C79.1678 5.42738 78.4954 6.75508 77.8239 8.13025H77.6318C77.6318 8.13025 77.2961 6.18607 77.2 5.56968H72.7375V6.23353H75.1371V15.1009C75.1847 15.7174 75.0886 16.3339 74.8489 16.9029C74.6092 17.3297 74.0329 17.5667 73.1693 17.5667H72.7851V18.3729H80.175V17.5667H79.8393C78.8796 17.5667 78.4478 17.3771 78.2073 16.9502C77.9676 16.3812 77.8239 15.7174 77.92 15.1009V10.5012C77.92 8.98386 79.1193 7.18189 80.5108 7.18189C81.9507 7.18189 81.9507 9.41058 83.6303 8.50968C84.4939 7.98804 84.3018 5.42738 81.4704 5.42738V5.42738ZM110.981 16.9978C110.165 16.9978 109.925 16.571 109.877 15.8598V8.84164C109.973 7.89328 109.637 6.89746 108.965 6.18615C108.294 5.5223 106.95 5.14296 105.031 5.14296C103.591 5.04812 102.199 5.38009 100.952 6.13878C100.232 6.5655 99.8007 7.37164 99.8007 8.17779C99.7522 8.50976 99.8967 8.84164 100.136 9.07878C100.376 9.26845 100.664 9.36328 100.952 9.36328C101.672 9.36328 102.103 8.98394 102.248 8.0355C102.248 7.46648 102.488 6.94492 102.823 6.51812C103.304 6.09132 103.975 5.85427 104.599 5.9491C105.319 5.85427 106.086 6.13878 106.566 6.70779C106.95 7.27681 107.094 7.89329 107.094 8.55714V10.7858C104.743 10.9755 99.1283 11.4498 99.3689 15.6226C99.5601 17.3771 101.096 18.7048 102.872 18.6575C104.55 18.61 106.134 17.8513 107.19 16.5236C107.43 17.7091 108.485 18.5152 109.685 18.4678C111.413 18.4678 112.468 17.6143 112.564 15.5752H112.132C112.036 16.5236 111.46 16.9978 110.981 16.9978V16.9978ZM107.094 15.6226V15.7649C106.326 16.6184 105.27 17.14 104.119 17.2823C103.015 17.3298 102.056 16.4762 102.008 15.3381V15.0536C102.008 12.6826 105.319 11.4971 107.142 11.4971L107.094 15.6226ZM126.144 16.9029C125.808 16.3339 125.664 15.6699 125.664 15.0061V9.2209C125.712 8.46222 125.568 7.7509 125.232 7.08705C124.944 6.56541 124.464 6.09123 123.936 5.80672C123.313 5.52222 122.641 5.37992 121.969 5.37992C120.194 5.33255 118.562 6.2809 117.747 7.84574H117.459L116.978 5.52222H112.996V6.18607H115.011V15.0061C115.011 15.5277 114.963 16.0019 114.868 16.5235C114.772 16.9029 114.484 17.2348 114.099 17.3297C113.764 17.4719 113.38 17.5193 112.996 17.5193V18.3254H119.378V17.5193C118.898 17.5667 118.418 17.3297 118.082 16.9977C117.794 16.4287 117.651 15.8122 117.747 15.1957V11.829C117.602 10.5961 117.794 9.3632 118.226 8.17771C118.754 7.27672 119.762 6.70771 120.818 6.75508C121.537 6.66025 122.257 7.03968 122.593 7.65607C122.928 8.60451 123.073 9.64771 123.024 10.6435V14.8164C123.073 15.338 123.073 15.8597 123.024 16.3812C122.977 16.7606 122.785 17.0925 122.449 17.2822C122.113 17.4719 121.777 17.5667 121.441 17.5667V18.3729H127.631V17.5667C126.863 17.4719 126.384 17.2822 126.144 16.9029V16.9029ZM97.209 4.71615C96.7772 4.90582 96.4899 5.28517 96.4415 5.71197C96.3454 6.23353 96.1533 6.51804 95.866 6.61287C95.5779 6.70771 95.2421 6.66033 94.954 6.5655C93.8022 5.56968 92.2671 5.0955 90.7796 5.19033C88.1404 5.00066 85.7893 6.94484 85.5972 9.55287V10.122C85.5972 12.8723 86.6529 14.1052 88.9564 14.6268C89.1 14.6268 89.1 14.8165 88.9564 14.8165C86.9886 15.1484 85.2614 15.7175 85.2614 17.6142C85.2614 18.5152 85.8369 19.3213 86.7005 19.6058C87.9483 20.0325 89.2437 20.2223 90.5399 20.1748C91.5472 20.1748 92.6029 20.2223 93.6101 20.3171C94.1864 20.3645 94.7619 20.5542 95.2897 20.8862C95.7215 21.2655 95.9621 21.7871 95.9136 22.3562C95.9136 23.2571 95.3382 24.0632 94.5222 24.3952C93.4189 24.9168 92.2187 25.1539 91.0193 25.1065C89.916 25.2013 88.7643 24.9642 87.8046 24.3952C87.2283 23.9684 86.941 23.2571 87.1323 22.5932C87.3244 22.0716 87.0371 21.4552 86.4608 21.2655H86.3171C85.8853 21.218 85.4535 21.4077 85.213 21.7397C85.0217 22.0716 84.8772 22.4984 84.9257 22.9252C84.9733 24.158 85.8369 25.1539 87.0847 25.391C88.2364 25.7703 89.4358 25.9125 90.6351 25.9125C92.0274 25.96 93.4189 25.7229 94.7143 25.1539C96.2494 24.49 97.3051 23.02 97.3051 21.3603C97.3535 20.5542 97.113 19.7955 96.6812 19.1316C95.3858 17.3771 93.5625 17.6142 89.4358 17.4245C87.4689 17.4245 87.0847 17.0925 87.0847 16.5235C87.0847 15.6225 87.8046 15.2907 90.6351 14.8639C93.4665 14.4371 96.1057 13.3939 96.1057 10.0271C96.1057 9.22099 95.9621 8.36746 95.5779 7.60869C96.1057 7.75099 96.6812 7.75099 97.209 7.60869C97.6893 7.46648 98.1211 7.13451 98.3608 6.70771C98.6005 6.37582 98.6965 5.90164 98.6005 5.5223C98.3608 4.81099 97.8814 4.52648 97.209 4.71615V4.71615ZM90.8272 14.0577C89.1476 14.0577 88.1404 13.4413 88.1404 10.0745C88.1404 7.70353 88.9564 5.94902 90.8272 5.94902C92.9386 5.94902 93.5149 7.56132 93.5149 10.0271C93.4665 13.5362 92.3632 14.0577 90.8272 14.0577Z" fill="#CACACA"/>
</svg>
