<svg width="113" height="21" viewBox="0 0 113 21" fill="none" xmlns="http://www.w3.org/2000/svg">
<path d="M88.305 1.98801H81.165V2.57601H81.335C81.76 2.57601 82.1 2.74401 82.355 2.99601C82.61 3.24801 82.78 3.58402 82.78 4.00402V10.136H75.47V5.76801C75.47 4.50802 75.555 3.24801 75.64 1.98801H68.5V2.57601H68.67C69.095 2.57601 69.435 2.74401 69.69 2.99601C69.945 3.24801 70.115 3.58402 70.2 4.00402V18.536C69.435 18.62 68.67 18.704 67.905 18.704C67.055 18.704 66.29 18.62 65.44 18.536C63.145 18.116 62.805 16.016 62.805 14.756V5.68402C62.805 4.42402 62.89 3.24801 62.975 1.98801H55.835V2.57601H56.005C56.345 2.57601 56.77 2.74401 57.025 2.99601C57.28 3.24801 57.45 3.58402 57.535 4.00402V13.832C57.535 15.68 58.13 19.628 63.145 20.384C64.675 20.636 66.29 20.72 67.905 20.72C70.455 20.72 73.005 20.636 75.47 20.468H75.64C75.555 19.208 75.47 17.948 75.47 16.688V12.152H82.78V16.688C82.78 17.948 82.695 19.208 82.61 20.468H88.22C88.135 19.208 88.05 17.948 88.05 16.688V5.76801L88.305 1.98801ZM45.295 18.452C45.975 17.192 46.655 15.932 47.42 14.672L54.9 2.49202V1.98801H38.495V5.76801H39.175C39.175 5.34801 39.345 4.92802 39.6 4.59202C39.855 4.25602 40.28 4.08801 40.705 4.08801H47.505C46.825 5.34801 46.145 6.60802 45.38 7.78402L37.9 20.048V20.552H55.495V18.368C54.22 18.452 53.03 18.536 51.755 18.536H45.295V18.452ZM35.605 1.98801H28.21V2.66001H28.38C29.315 2.66001 30.08 3.41601 30.08 4.34001V16.688C30.08 17.948 29.995 19.208 29.91 20.468H35.52C35.435 19.208 35.35 17.948 35.35 16.688V5.76801L35.605 1.98801ZM24.895 7.70002C24.64 5.18002 24.47 2.66001 24.3 0.140015H17.925C16.905 2.66001 15.885 5.18002 14.78 7.70002L13.335 11.06L11.805 7.70002C10.7 5.18002 9.59501 2.66001 8.57501 0.140015H0.245013V0.812015C0.670013 0.812015 1.09501 0.980014 1.43501 1.31601C1.77501 1.65201 1.94501 2.07202 1.94501 2.49202C1.77501 4.25602 1.69001 5.93602 1.52001 7.70002L1.01001 12.992C0.755013 15.512 0.415012 18.032 0.0750122 20.552H2.71001C2.88001 18.032 3.05001 15.512 3.30501 12.992L4.15501 5.01202C5.34501 7.44802 6.45001 9.88402 7.55501 12.32L7.81001 12.992C8.91501 15.512 10.02 18.032 11.04 20.552H11.805C12.825 18.032 13.845 15.512 14.95 12.992L15.46 11.9L18.775 4.59202L19.625 12.992C19.88 15.512 20.05 18.032 20.22 20.552H26.34C26 18.032 25.66 15.512 25.405 12.992L24.895 7.70002ZM112.36 10.892C112.19 4.84401 106.75 1.73601 101.395 1.73601C95.955 1.73601 90.43 4.92802 90.43 11.228C90.43 17.528 95.955 20.72 101.395 20.72C106.835 20.72 112.36 17.528 112.36 11.228V10.892ZM101.395 18.704C97.23 18.704 95.785 14.672 95.785 11.228C95.785 7.78402 97.23 3.75202 101.395 3.75202C105.56 3.75202 107.005 7.78402 107.005 11.228C107.005 14.672 105.56 18.704 101.395 18.704Z" fill="#CACACA"/>
</svg>
