<svg width="170" height="42" viewBox="0 0 170 42" fill="none" xmlns="http://www.w3.org/2000/svg">
<path d="M157.25 22.68C157.08 21.924 156.57 21.252 155.89 20.832C154.955 20.328 153.85 20.076 152.83 19.908C151.725 19.74 150.62 19.656 149.515 19.572C148.325 19.488 147.135 19.488 146.03 19.152C145.52 18.984 145.095 18.648 145.095 18.144C145.01 17.64 145.52 17.22 146.03 17.052C147.05 16.632 148.155 16.632 149.26 16.632C151.3 16.632 153.255 17.052 155.04 17.976C155.38 17.556 156.145 16.8 156.57 16.212C154.445 14.868 151.895 14.364 149.43 14.364C147.645 14.364 145.86 14.616 144.33 15.372C143.395 15.876 142.63 16.716 142.46 17.892C142.29 18.564 142.29 19.32 142.63 19.908C142.97 20.496 143.565 21 144.16 21.252C145.095 21.672 146.2 21.84 147.305 21.924C148.665 22.092 150.11 22.092 151.47 22.176C152.235 22.26 153 22.344 153.68 22.68C154.105 22.848 154.53 23.268 154.53 23.772C154.53 24.276 154.275 24.696 153.85 25.032C153.255 25.452 152.405 25.704 151.64 25.788C148.75 26.124 145.69 25.704 143.225 24.024C142.8 24.612 142.29 25.2 141.865 25.788C144.245 27.552 147.22 28.056 150.11 28.056C151.725 27.972 153.425 27.804 154.955 27.132C155.72 26.712 156.4 26.208 156.825 25.536C157.335 24.696 157.42 23.604 157.25 22.68ZM70.89 25.62L61.965 14.784H58.14V27.804H60.69V16.968L69.7 27.804H73.44V14.784H70.89V25.62ZM136.085 14.7H138.635V27.72H136.085V14.7ZM132.345 14.7H129.115L124.185 19.572L119.17 14.7H115.94L122.485 21.168L115.685 27.72H118.915L124.015 22.764L129.37 27.72H132.6L125.8 21.084L132.345 14.7ZM110.245 27.72H112.88V14.7H110.33L110.245 27.72ZM92.31 17.052H98.6V27.72H101.15V16.968H107.44V14.7H92.31V17.052ZM82.96 14.7L75.82 27.72H78.625L80.155 24.948H88.995L90.525 27.72H93.33L86.19 14.7H82.96ZM81.43 22.68L84.575 16.968L87.635 22.68H81.43Z" fill="#CACACA"/>
<path d="M24.65 18.984C24.82 18.984 25.075 18.9 25.33 18.816C25.585 18.732 25.925 18.816 26.18 18.648C26.265 18.648 26.35 18.732 26.435 18.732V19.068H26.52C26.69 18.9 26.775 18.648 26.86 18.48L26.775 18.396L27.03 17.892C26.945 17.808 26.945 17.724 26.86 17.64C26.945 17.556 27.115 17.556 27.285 17.556C27.285 17.304 27.37 16.968 27.285 16.716C27.2 16.464 27.285 16.128 27.285 15.876C27.115 15.708 26.945 15.456 26.775 15.288C26.945 15.12 27.115 15.036 27.285 14.952C27.03 14.616 26.86 14.196 26.86 13.776C26.775 13.776 26.605 13.692 26.52 13.692V13.272H24.99C24.48 13.356 23.97 13.356 23.46 13.524C23.205 13.524 23.035 13.692 22.78 13.692C22.695 13.692 22.61 13.776 22.525 13.776L22.44 13.608H22.27V13.692H22.44V13.86C22.015 14.028 21.59 14.112 21.25 14.448C21.08 14.616 20.74 14.7 20.485 14.784C19.465 15.372 18.53 16.044 17.68 16.716C17.51 16.8 17.17 16.884 17.17 17.136C17.68 16.968 18.19 16.716 18.7 16.464C18.615 16.716 18.36 16.884 18.105 16.968C18.445 17.304 18.87 17.556 19.295 17.388C19.465 17.472 19.635 17.304 19.805 17.136H20.145C20.145 17.052 20.23 16.968 20.23 16.884H20.57C20.655 16.8 20.74 16.632 20.74 16.548H21.08C21.165 16.296 21.42 16.044 21.505 15.708H21.76V15.456H21.93C22.1 15.288 22.185 15.12 22.27 14.952H22.015C21.93 14.784 21.845 14.616 21.76 14.532H22.185C22.78 14.028 23.63 13.944 24.31 13.692C24.735 13.524 25.075 13.524 25.5 13.524L25.585 13.608C25.33 13.86 25.755 14.112 25.925 14.196C25.925 14.28 25.84 14.364 25.84 14.364C25.925 14.532 25.925 14.868 25.925 15.12C25.67 15.288 25.415 15.456 25.33 15.792C25.5 15.792 25.67 15.96 25.755 16.128C25.585 16.212 25.5 16.296 25.415 16.296C25.67 16.464 25.84 16.548 26.01 16.716C25.84 17.136 25.33 17.388 25.245 17.892C25.16 18.144 24.905 18.48 24.735 18.732H24.14C23.63 18.9 23.12 19.068 22.695 19.32C22.185 19.236 21.93 19.656 21.505 19.74C21.42 19.656 21.335 19.488 21.335 19.404H21.25V19.74C21.165 19.74 21.08 19.824 20.995 19.908C20.995 20.076 20.91 20.244 20.91 20.328C20.825 20.244 20.74 20.16 20.655 20.16C20.655 20.328 20.57 20.496 20.57 20.58C20.145 20.58 19.805 20.832 19.38 21V21.168C19.295 21.084 19.125 21.084 19.04 21.084H18.955C18.87 21.252 18.87 21.42 18.87 21.504C18.785 21.588 18.615 21.672 18.445 21.672C18.36 21.672 18.36 21.756 18.36 21.756C18.105 21.84 17.85 22.008 17.68 22.176L17.765 22.344C18.105 22.26 18.36 22.092 18.7 22.008C19.125 21.756 19.38 21.504 19.72 21.42C20.06 21.252 20.315 21 20.655 20.832C20.825 20.664 21.165 20.664 21.335 20.496C21.675 20.244 22.015 20.16 22.355 19.992L23.12 19.488H23.46C23.46 19.404 23.545 19.32 23.545 19.32C23.97 19.236 24.31 19.152 24.65 18.984ZM26.52 13.272V13.104C26.435 13.188 26.35 13.272 26.52 13.272ZM44.37 17.808C44.285 17.808 44.2 17.892 44.115 17.892L44.37 17.808C44.54 17.808 44.71 17.556 44.71 17.388H44.88V17.22H44.625C44.54 17.388 44.455 17.556 44.37 17.808ZM16.235 17.388C16.15 17.556 16.065 17.64 15.98 18.144H15.81C15.64 18.312 15.555 18.48 15.3 18.48C15.215 18.564 15.13 18.648 15.13 18.732C14.96 18.732 14.875 18.9 14.79 18.9L14.62 18.984L14.535 19.152C14.365 19.152 14.195 19.236 14.11 19.32C14.11 19.572 13.94 19.74 13.77 19.908C13.685 20.244 13.345 20.496 13.26 20.832C13.26 20.916 13.09 21 13.09 21V21.252C12.92 21.336 12.835 21.42 12.665 21.504H12.92C12.92 21.588 13.005 21.756 13.005 21.84H13.175C13.175 22.092 13.43 22.176 13.6 22.176V22.344C13.685 22.26 13.77 22.176 13.855 22.176C13.94 22.344 14.11 22.512 14.28 22.596V22.512C14.45 22.512 14.62 22.512 14.79 22.596C14.875 22.512 14.96 22.428 15.045 22.428C14.875 22.344 14.62 22.344 14.45 22.176L14.11 21.84C13.77 21.588 13.43 21.084 13.6 20.58C13.855 19.74 14.62 19.236 15.215 18.732C15.555 18.48 15.81 18.06 16.235 18.144V17.808H16.575C16.66 17.556 16.745 17.304 16.915 17.052L16.83 16.968C16.66 17.136 16.49 17.304 16.235 17.388ZM45.39 12.684C45.135 12.684 44.965 12.852 44.795 13.02C44.71 13.02 44.625 12.936 44.54 12.936C44.71 12.768 44.795 12.6 44.88 12.516C44.71 12.6 44.455 12.684 44.285 12.768C44.2 12.684 44.2 12.6 44.285 12.6C44.03 12.768 43.775 13.02 43.605 13.272C43.35 13.272 43.18 13.104 43.01 13.272C42.67 13.524 42.415 13.776 41.99 13.776C41.735 14.196 41.14 14.196 40.715 14.532C40.63 14.532 40.545 14.364 40.545 14.364V14.616C40.375 14.868 40.12 15.036 39.865 15.204C39.865 15.288 39.95 15.372 39.95 15.456C40.035 15.456 40.035 15.624 40.035 15.624H40.46V15.96C40.29 15.96 40.205 16.044 40.035 16.044C40.035 16.128 39.95 16.212 39.865 16.212C39.95 16.296 40.035 16.38 40.12 16.38V16.548C40.205 16.632 40.375 16.716 40.46 16.716C40.63 16.716 40.63 16.464 40.715 16.38C40.97 16.38 41.055 16.212 41.14 16.044C41.055 16.128 40.885 16.212 40.8 16.212C40.885 16.128 40.8 15.876 40.97 15.876C41.14 15.876 41.395 15.96 41.565 16.044C41.565 15.876 41.48 15.708 41.395 15.624H41.99C41.735 15.456 41.48 15.372 41.395 15.12C41.565 15.036 41.82 15.12 41.99 15.12C42.075 14.868 41.99 14.7 41.905 14.532C42.245 14.364 42.67 14.364 43.01 14.616L43.18 14.448C43.265 14.448 43.35 14.532 43.435 14.532C43.52 14.364 43.52 14.28 43.605 14.112C43.605 14.028 43.775 14.028 43.775 14.028V13.86H44.2C44.285 14.112 44.285 14.364 44.455 14.616C44.54 14.532 44.54 14.364 44.625 14.28C44.625 14.28 44.71 14.364 44.795 14.364V14.112C44.71 14.028 44.54 13.944 44.455 13.944C44.54 13.692 44.71 13.356 45.05 13.356C44.965 13.356 44.88 13.188 44.88 13.188H45.22C45.305 13.02 45.39 12.852 45.39 12.684ZM27.54 31.752H27.2C26.945 31.668 26.775 31.668 26.605 31.668C26.435 31.416 26.095 31.248 25.84 30.996C25.925 30.828 26.01 30.744 26.01 30.66C26.095 30.744 26.265 30.828 26.35 30.912V30.576C26.435 30.492 26.52 30.408 26.605 30.408C26.435 30.324 26.18 30.156 26.01 30.072L25.84 30.156C25.84 30.324 25.925 30.492 26.01 30.576C25.67 30.576 25.5 30.324 25.415 30.156C25.16 30.324 25.075 30.492 25.075 30.744C24.905 30.66 24.82 30.492 24.735 30.408V30.072C24.48 30.156 24.31 30.24 24.14 30.324C24.055 30.324 23.97 30.324 24.055 30.408C23.8 30.408 23.715 30.66 23.715 30.828C23.8 30.744 23.885 30.66 23.97 30.66C23.97 30.744 24.055 30.828 24.14 30.912C23.97 30.996 23.715 31.08 23.545 31.08C23.715 31.164 23.885 31.332 23.97 31.416H23.545C23.63 31.5 23.715 31.584 23.715 31.668C23.885 31.668 23.97 31.836 24.055 32.004C24.225 32.004 24.31 32.172 24.48 32.256H24.735V32.34L24.65 32.508C24.905 32.76 25.33 32.676 25.67 32.676L25.84 32.844C25.925 32.592 26.265 32.676 26.435 32.676C26.52 32.592 26.69 32.508 26.775 32.424C26.775 32.508 26.86 32.592 26.945 32.592C27.03 32.424 27.03 32.172 27.03 32.004C27.115 32.088 27.285 32.088 27.455 32.088C27.37 32.172 27.285 32.256 27.2 32.256V32.76C27.37 32.676 27.625 32.676 27.88 32.676L27.965 32.592C28.05 32.424 28.135 32.34 28.22 32.256C28.05 32.088 27.54 32.088 27.54 31.752ZM16.235 22.428C15.895 22.596 15.555 22.176 15.215 22.26L15.555 22.596C15.47 22.68 15.3 22.764 15.215 22.764H16.065C16.235 22.68 16.49 22.596 16.66 22.596C16.66 22.344 16.405 22.344 16.235 22.428Z" fill="#CACACA"/>
<path d="M21.25 14.1119C21.335 14.2799 21.42 14.4479 21.505 14.5319H21.76C21.675 14.6999 21.505 14.8679 21.42 15.0359H21.25V15.2879H20.995C20.91 15.6239 20.74 15.8759 20.57 16.1279C20.91 15.9599 21.25 15.9599 21.505 16.1279C21.505 16.0439 21.59 15.9599 21.675 15.9599V15.6239C21.76 15.6239 21.845 15.7079 21.93 15.7079C22.015 15.6239 22.1 15.4559 22.185 15.3719C22.1 15.2879 22.015 15.2039 21.93 15.2039C22.015 15.2039 22.1 15.1199 22.1 15.0359V14.8679C22.27 14.7839 22.355 14.6999 22.44 14.6159V14.2799L22.95 14.0279L23.035 14.1959C23.035 14.1119 23.12 14.1119 23.12 14.1119C23.205 14.1959 23.375 14.2799 23.46 14.2799C23.375 14.1959 23.29 14.1119 23.29 14.0279C23.46 13.8599 23.63 13.6919 23.885 13.8599V13.6919C23.205 13.8599 22.44 14.0279 21.675 14.1119H21.25ZM23.885 13.6919C23.97 13.6919 23.97 13.6919 24.055 13.6079H24.14C24.055 13.6079 23.97 13.6079 23.885 13.5239V13.6919Z" fill="#CACACA"/>
<path d="M24.48 18.648C24.735 18.396 24.905 18.144 24.99 17.808C25.16 17.388 25.585 17.052 25.755 16.632C25.585 16.464 25.33 16.296 25.16 16.212C25.33 16.128 25.415 16.044 25.5 16.044C25.415 15.876 25.245 15.792 25.075 15.708C25.16 15.456 25.415 15.204 25.67 15.036C25.755 14.784 25.67 14.532 25.585 14.28C25.585 14.196 25.67 14.112 25.67 14.112C25.5 14.028 25.075 13.776 25.33 13.524L25.245 13.44C24.82 13.44 24.565 13.44 24.14 13.608C24.31 13.608 24.48 13.608 24.65 13.524C24.735 13.608 24.735 13.692 24.735 13.692C24.65 13.776 24.48 13.776 24.395 13.776V14.112C24.48 14.028 24.65 14.028 24.735 14.028V14.196H24.48C24.48 14.448 24.735 14.448 24.905 14.532V15.036C24.735 15.12 24.395 15.12 24.395 15.288C24.31 15.456 24.395 15.54 24.395 15.624C24.225 15.792 24.14 16.044 24.055 16.212C23.97 16.212 23.885 16.296 23.8 16.296C23.885 16.38 23.97 16.38 24.055 16.464L23.8 17.22C23.885 17.22 23.97 17.136 24.055 17.136C24.31 17.472 24.225 17.892 24.055 18.228H23.46V18.396C23.29 18.396 23.12 18.48 23.035 18.564V18.48C22.95 18.564 22.865 18.564 22.78 18.564C22.61 18.48 22.44 18.312 22.27 18.48C22.185 18.48 22.1 18.396 22.015 18.396V18.648C21.845 18.564 21.76 18.48 21.59 18.396C21.505 18.48 21.505 18.564 21.42 18.648C21.25 18.48 21.165 18.312 21.08 18.144C21.335 18.228 21.675 18.312 21.93 18.144C22.185 18.228 22.355 18.312 22.525 18.396C22.61 18.312 22.78 18.312 22.865 18.312C22.78 18.228 22.78 18.144 22.695 18.144C22.695 17.976 22.61 17.724 22.525 17.556L22.27 17.808C22.1 17.724 22.015 17.64 21.93 17.556L21.675 17.808C21.675 17.892 21.76 17.976 21.76 17.976H21.42C21.42 17.892 21.335 17.808 21.335 17.808L21.59 17.556C21.42 17.388 21.25 17.136 21.08 17.052H20.91V16.716C20.995 16.8 21.165 16.884 21.25 16.968V16.464H20.485C20.4 16.548 20.315 16.716 20.315 16.8H19.975C19.975 16.884 19.89 16.968 19.89 17.052H19.55C19.465 17.22 19.295 17.388 19.04 17.304C18.53 17.472 18.105 17.22 17.85 16.884C18.105 16.8 18.36 16.632 18.445 16.38C17.935 16.548 17.425 16.884 16.915 17.052C16.745 17.304 16.66 17.556 16.745 17.724H16.405V18.06C15.98 17.976 15.64 18.396 15.385 18.648C14.705 19.152 14.025 19.656 13.77 20.496C13.6 21 13.94 21.42 14.28 21.756C14.365 21.672 14.45 21.504 14.45 21.42C14.365 21.336 14.195 21.336 14.025 21.252C13.94 21.168 13.855 21 13.855 20.916C13.94 20.748 14.11 20.496 14.195 20.328C14.45 20.412 14.705 20.412 14.96 20.244C14.705 20.076 14.365 20.076 14.195 19.824C14.365 19.74 14.62 19.656 14.79 19.488H15.385C15.3 19.404 15.215 19.236 15.215 19.236C15.3 19.152 15.47 19.068 15.64 18.984C15.555 18.9 15.47 18.732 15.47 18.648C15.64 18.732 15.895 18.816 16.065 18.9C15.98 18.9 15.81 18.984 15.725 18.984H16.405V19.572C16.575 19.992 17.085 19.908 17.425 19.992L17.255 20.16C17.34 20.244 17.34 20.328 17.34 20.412L17.17 20.244C17.085 20.328 17 20.412 17 20.496H16.235C16.405 20.664 16.575 20.748 16.745 20.832C16.745 21.084 16.745 21.42 17.085 21.504C17.17 21.588 17.17 21.756 17.17 21.84C17 21.924 16.745 22.008 16.575 22.008C16.66 21.84 16.745 21.672 16.915 21.588C16.575 21.42 16.405 21.084 16.235 20.748L15.895 21.084C16.065 21.252 16.32 21.42 16.49 21.588V21.756C16.405 21.672 16.32 21.672 16.235 21.672L15.98 21.924C15.895 21.756 15.81 21.672 15.725 21.588C15.47 21.672 15.13 21.756 15.13 22.176H14.535C14.705 22.344 14.96 22.428 15.13 22.428C15.045 22.512 14.96 22.596 14.875 22.596C14.96 22.68 15.13 22.764 15.215 22.764C15.3 22.68 15.47 22.596 15.555 22.596C15.385 22.512 15.3 22.428 15.215 22.344C15.555 22.344 15.895 22.68 16.235 22.512C16.405 22.428 16.66 22.428 16.66 22.68C16.745 22.596 16.915 22.596 17.085 22.596C17.255 22.596 17.51 22.428 17.68 22.344L17.595 22.176C17.765 21.924 18.02 21.84 18.275 21.756C18.36 21.756 18.36 21.672 18.36 21.672C18.53 21.588 18.7 21.588 18.785 21.504C18.87 21.336 18.87 21.168 18.87 21.084H18.955C19.04 21.168 19.21 21.168 19.295 21.168V21C19.72 20.832 20.06 20.58 20.485 20.58C20.485 20.412 20.57 20.244 20.57 20.16C20.655 20.244 20.74 20.328 20.825 20.328C20.825 20.16 20.91 19.992 20.91 19.908C20.995 19.908 21.08 19.824 21.165 19.74V19.404C21.25 19.488 21.25 19.572 21.25 19.656C21.675 19.572 22.015 19.152 22.44 19.236C22.865 18.9 23.375 18.732 23.885 18.648C24.14 18.564 24.31 18.648 24.48 18.648ZM21.335 18.984V19.32H21.08C21.08 19.32 21.08 19.404 21.165 19.404H21.08C21.08 19.236 20.995 18.984 20.995 18.816C21.08 18.732 21.25 18.732 21.335 18.732C21.42 18.732 21.59 18.816 21.675 18.816C21.505 18.9 21.42 18.984 21.335 18.984ZM38.675 16.548C38.59 16.464 38.42 16.296 38.25 16.296C38.335 16.38 38.335 16.464 38.335 16.548C38.42 16.632 38.59 16.548 38.675 16.548ZM33.32 22.764C33.49 22.932 33.745 23.1 34 23.1C34.085 23.016 34.085 22.764 34.17 22.68C34.085 22.596 33.915 22.512 33.83 22.428C33.83 22.596 33.83 22.68 33.915 22.848C33.745 22.848 33.49 22.764 33.32 22.764ZM47.43 10.584V10.836C47.515 10.668 47.6 10.668 47.685 10.668C47.6 10.668 47.515 10.668 47.43 10.584Z" fill="#CACACA"/>
<path d="M52.87 10.332H52.445C52.445 10.332 52.445 10.248 52.36 10.248H51.85C51.68 10.332 51.425 10.416 51.255 10.332V9.99598C50.83 9.91198 50.66 10.5 50.32 10.584C50.15 10.668 49.98 10.668 49.895 10.668C49.895 10.584 49.895 10.5 49.81 10.332V10.668C49.47 10.5 49.045 10.668 48.79 10.836L48.705 10.92C48.705 10.836 48.62 10.752 48.62 10.584C48.45 10.668 48.28 10.668 48.11 10.752C48.11 10.836 48.025 11.004 47.94 11.088V10.752C47.855 10.752 47.855 10.752 47.77 10.668C47.77 10.752 47.685 10.836 47.6 10.92C47.175 11.172 46.835 11.424 46.325 11.34V11.256H46.75V11.004C46.665 11.088 46.495 11.34 46.325 11.088V11.004L46.41 10.92C46.24 11.004 46.07 11.088 45.985 11.256H46.155C46.325 11.592 45.9 11.592 45.73 11.508V11.592C45.56 11.676 45.305 11.76 45.135 11.844V11.592L44.965 11.76C44.965 11.76 44.88 11.928 44.795 11.928H45.135C44.88 11.928 44.625 11.928 44.54 12.18H44.455V12.348C44.625 12.264 44.88 12.18 45.05 12.096C44.965 12.18 44.88 12.348 44.71 12.516C44.795 12.516 44.88 12.6 44.965 12.6C45.135 12.432 45.305 12.264 45.56 12.264C45.56 12.432 45.475 12.6 45.39 12.768H45.05C45.05 12.768 45.135 12.936 45.22 12.936C44.88 12.936 44.71 13.272 44.625 13.524C44.71 13.524 44.88 13.608 44.965 13.692V13.944C44.965 13.944 44.88 13.86 44.795 13.86C44.71 13.944 44.71 14.112 44.625 14.196C44.455 14.028 44.455 13.692 44.37 13.44H43.945V13.608L43.775 13.692C43.69 13.86 43.605 13.944 43.605 14.112C43.52 14.112 43.435 14.028 43.35 14.028L43.18 14.196C42.84 13.944 42.415 13.944 42.075 14.112C42.16 14.28 42.245 14.448 42.16 14.7C41.99 14.7 41.735 14.616 41.565 14.7C41.65 14.952 41.905 15.036 42.16 15.204H41.565C41.65 15.372 41.735 15.456 41.735 15.624C41.565 15.54 41.395 15.456 41.14 15.456C40.97 15.456 41.055 15.708 40.97 15.792C41.055 15.708 41.225 15.708 41.31 15.624C41.225 15.792 41.14 15.96 40.885 15.96C40.8 16.044 40.8 16.296 40.63 16.296C40.545 16.296 40.375 16.212 40.29 16.128V15.96C40.205 15.96 40.12 15.876 40.035 15.792V15.372C40.12 15.372 40.205 15.288 40.29 15.204V15.036C40.29 14.952 40.205 14.868 40.205 14.784C40.205 14.868 40.12 14.952 40.12 15.036C39.95 15.036 39.78 15.036 39.61 15.204C39.61 15.288 39.695 15.372 39.78 15.456C39.61 15.456 39.355 15.54 39.185 15.624L39.355 15.456C39.185 15.54 38.93 15.624 38.76 15.708C38.76 15.708 38.845 15.792 38.845 15.876C39.015 15.876 39.185 15.792 39.355 15.876L39.44 16.044V16.212C39.44 16.296 39.355 16.296 39.27 16.38V16.8C39.27 16.8 39.185 16.8 39.1 16.884C39.1 16.8 39.015 16.716 38.93 16.548C38.505 16.548 38.335 16.968 38.165 17.22C37.91 17.304 37.74 17.472 37.57 17.64C37.57 17.64 37.485 17.556 37.485 17.472C37.4 17.808 37.145 18.06 36.89 18.228C36.72 18.228 36.55 18.144 36.465 18.144C36.38 18.144 36.295 18.228 36.21 18.312C36.21 18.228 36.125 18.144 36.125 18.06C36.21 18.06 36.295 17.976 36.465 17.892C36.635 17.808 36.72 17.724 36.805 17.472V17.136C36.465 17.556 35.87 17.724 35.53 18.144C35.02 18.648 34.34 19.068 33.915 19.572H33.575C33.575 19.656 33.49 19.74 33.49 19.824H33.405L33.235 19.992L32.98 20.16C32.98 19.908 32.98 19.572 32.81 19.32C32.725 19.152 32.555 19.152 32.385 19.068H32.045C32.045 19.068 32.215 19.152 32.215 19.236C32.3 19.404 32.385 19.656 32.555 19.824C32.555 19.824 32.47 19.908 32.47 19.992C32.215 19.908 31.875 19.824 31.705 20.16C31.79 20.244 31.875 20.412 32.045 20.496C31.96 20.496 31.79 20.496 31.705 20.58C32.13 20.58 32.3 20.328 32.64 20.076C32.64 20.244 32.725 20.412 32.81 20.496C32.725 20.664 32.555 20.916 32.64 21.084C32.725 21.336 32.725 21.672 32.64 21.924C32.64 22.008 32.64 22.092 32.555 22.176H32.64C32.64 22.26 32.555 22.26 32.555 22.344V22.596C32.555 22.596 32.47 22.68 32.385 22.68C32.385 22.68 32.385 22.764 32.47 22.764C32.47 22.848 32.385 22.932 32.385 23.016C32.555 23.016 32.64 23.1 32.81 23.1C32.98 23.016 33.15 22.932 33.32 22.932L33.405 22.848C33.32 22.848 33.235 22.848 33.065 22.932C33.15 22.764 33.15 22.512 33.15 22.344H33.32C33.32 22.26 33.405 22.26 33.405 22.176L33.575 22.092C33.66 22.008 33.745 21.924 33.915 21.84C33.915 22.008 33.83 22.26 33.83 22.428H34.17C34.085 22.428 34 22.344 33.915 22.26C34.255 22.092 34.595 21.924 35.02 21.924C35.445 21.924 35.615 21.588 36.04 21.504C36.04 21.42 35.955 21.336 35.87 21.336C36.21 21.336 36.465 21.252 36.72 21.084V20.58L36.21 20.832V20.664C36.21 20.664 36.04 20.664 36.04 20.58V20.412H36.465C36.465 20.412 36.38 20.328 36.38 20.244C36.72 20.16 36.975 20.244 37.23 20.328V20.496C37.4 20.58 37.485 20.664 37.655 20.748V21.168C37.91 20.832 38.08 20.58 38.25 20.244H38.59V19.908C38.42 20.076 38.165 20.16 37.995 20.412C37.91 20.58 37.74 20.58 37.57 20.664V19.908L37.825 19.656C37.655 19.656 37.485 19.656 37.315 19.572C37.485 18.984 38.08 18.9 38.505 18.564C38.93 18.396 39.1 17.976 39.525 17.724C39.525 17.724 39.61 17.892 39.61 17.976C39.95 18.06 40.205 18.144 40.545 17.976L40.375 17.808C40.375 17.724 40.46 17.724 40.545 17.64C40.545 17.64 40.63 17.808 40.715 17.892V17.724C40.46 17.472 40.715 17.136 40.8 16.884C40.97 17.052 41.055 17.22 41.225 17.304C41.395 17.22 41.65 17.136 41.82 17.136C41.82 16.968 41.82 16.8 41.905 16.716H41.565C41.65 16.632 41.82 16.548 41.905 16.548C41.905 16.632 41.99 16.716 41.99 16.8C42.33 16.464 42.925 16.38 43.095 15.876H43.69C43.775 15.54 43.945 15.288 44.2 15.12C44.37 15.12 44.54 15.204 44.625 15.036C44.795 14.784 44.88 14.448 45.05 14.196C45.22 14.196 45.39 14.196 45.56 14.112C45.56 14.028 45.475 13.86 45.475 13.776C45.56 13.776 45.645 13.776 45.73 13.692V13.86C45.73 13.86 45.815 13.86 45.9 13.944V13.608C46.155 13.776 46.495 13.86 46.835 13.776L47.005 13.944C47.09 13.944 47.175 13.86 47.26 13.86C47.43 13.608 47.685 13.524 48.025 13.44L48.28 12.936C48.45 12.936 48.62 12.852 48.705 12.768H48.875C48.875 12.684 48.96 12.6 49.045 12.516H49.385C49.555 12.516 49.725 12.432 49.81 12.432L49.895 12.264C49.895 12.18 49.81 12.012 49.81 11.928V11.676C49.895 11.676 49.98 11.592 50.065 11.592C50.15 11.592 50.235 11.508 50.32 11.508C50.405 11.424 50.49 11.34 50.66 11.34C51 11.34 51.085 11.676 51.255 11.928C51.34 11.844 51.425 11.76 51.425 11.676H51.765V11.424C51.765 11.424 51.68 11.34 51.68 11.256H51.935C51.935 10.668 52.615 10.668 53.04 10.668C52.87 10.584 52.87 10.5 52.87 10.332ZM34.255 20.076C34.085 20.076 34.17 19.824 34.255 19.824C34.425 19.74 34.425 20.076 34.255 20.076ZM34.68 19.824H34.51V19.656H34.765C34.85 19.572 34.935 19.404 35.02 19.32C35.02 19.572 34.85 19.656 34.68 19.824ZM35.19 18.9C35.105 18.984 35.02 19.068 34.935 19.236C34.68 19.32 34.595 19.572 34.34 19.572C34.425 19.32 34.765 19.32 34.935 19.236V18.984C35.19 18.984 35.275 18.732 35.445 18.564H35.785C35.615 18.816 35.36 18.816 35.19 18.9ZM47.685 10.668C47.685 10.668 47.77 10.668 47.685 10.668C47.77 10.668 47.77 10.668 47.685 10.668C47.77 10.668 47.685 10.668 47.685 10.668ZM24.395 29.484C24.14 29.568 24.14 29.904 23.97 30.072C23.8 29.988 23.715 29.82 23.715 29.652C23.545 29.82 23.375 29.988 23.29 30.24C23.29 30.408 23.375 30.66 23.545 30.828C23.715 30.828 23.97 30.744 24.14 30.66C24.055 30.576 23.97 30.492 23.97 30.408C23.885 30.408 23.8 30.492 23.715 30.576C23.8 30.408 23.8 30.156 24.055 30.156C24.14 30.156 24.225 30.156 24.31 30.24C24.48 30.156 24.65 30.072 24.905 29.988C24.65 29.904 24.565 29.652 24.395 29.484Z" fill="#CACACA"/>
<path d="M32.895 29.1479C32.81 29.1479 32.725 29.1479 32.64 29.2319C32.725 29.0639 32.81 28.8119 32.81 28.5599C32.64 28.5599 32.555 28.7279 32.385 28.8959C32.385 28.8119 32.385 28.7279 32.3 28.6439C32.385 28.6439 32.555 28.5599 32.725 28.5599C32.555 28.3079 32.3 28.3919 32.045 28.3919L31.79 28.6439C31.79 28.7279 31.875 28.8119 31.96 28.8959C31.62 28.7279 31.28 28.7279 30.94 28.8959C30.685 28.7279 30.515 28.8119 30.26 28.8959C30.005 28.8959 29.665 28.8119 29.41 28.7279C29.24 28.8959 29.07 29.0639 28.9 29.1479C28.9 29.0639 28.985 28.8959 28.985 28.8119H29.24C29.24 28.5599 29.325 28.2239 29.155 27.9719C29.07 27.6359 28.645 27.6359 28.39 27.6359C28.305 27.8039 28.135 27.9719 28.05 28.0559C27.88 28.0559 27.71 27.8879 27.71 27.6359C27.71 27.7199 27.625 27.8039 27.54 27.8879H27.115C27.37 28.0559 27.625 28.1399 27.795 28.3079C27.455 28.3079 27.115 28.1399 26.69 28.1399C26.605 28.1399 26.52 28.1399 26.435 28.0559C26.435 27.9719 26.52 27.8879 26.52 27.8039C26.52 27.5519 26.52 27.2159 26.35 26.9639C26.265 27.0479 26.18 27.1319 26.18 27.2159C26.01 27.2159 25.755 27.3839 25.585 27.4679H25.245V27.0479C25.075 27.0479 24.99 27.1319 24.82 27.2159C24.65 27.2159 24.48 27.1319 24.395 27.0479C24.48 26.9639 24.65 26.8799 24.735 26.7959C24.65 26.7959 24.565 26.7959 24.48 26.7119C24.65 26.7119 24.82 26.6279 24.99 26.5439H25.245C25.245 26.5439 25.245 26.3759 25.33 26.3759H24.82V25.8719C24.565 26.2079 24.225 26.5439 24.225 27.0479C24.055 26.8799 23.885 26.7119 23.63 26.5439C23.63 26.6279 23.545 26.6279 23.46 26.7119C23.375 26.8799 23.29 27.3839 23.63 27.2999V27.4679C23.46 27.3839 23.29 27.2999 23.12 27.2999C23.12 27.4679 23.12 27.6359 23.29 27.8039C23.205 27.8039 23.12 27.8879 23.035 27.9719V28.4759C23.205 28.6439 23.46 28.8119 23.63 28.9799C23.545 28.9799 23.46 29.0639 23.375 29.1479C23.375 29.3159 23.29 29.3999 23.29 29.5679H23.375C23.545 29.3999 23.715 29.2319 23.97 29.1479V29.6519L24.14 29.4839C24.225 29.4839 24.395 29.4839 24.48 29.3999V29.2319C24.565 29.2319 24.65 29.1479 24.735 29.0639V29.3159C24.735 29.3159 24.82 29.3999 24.905 29.3999V30.3239C24.99 30.4079 25.075 30.5759 25.245 30.6599C25.245 30.4079 25.33 30.2399 25.585 30.0719C25.67 30.2399 25.84 30.4919 26.18 30.4919C26.095 30.4079 26.01 30.2399 26.01 30.0719L26.18 29.9879C26.35 30.0719 26.605 30.1559 26.775 30.3239C26.69 30.3239 26.605 30.4079 26.52 30.4919V30.8279C26.435 30.7439 26.265 30.6599 26.18 30.5759C26.18 30.6599 26.095 30.7439 26.01 30.9119C26.265 31.1639 26.605 31.3319 26.775 31.5839C26.945 31.5839 27.115 31.5839 27.37 31.6679H27.71C27.71 32.0039 28.22 32.0039 28.39 32.1719C28.305 32.2559 28.22 32.3399 28.135 32.5079V32.8439C28.305 32.8439 28.39 32.7599 28.475 32.6759C28.73 32.6759 28.985 32.5919 29.24 32.5919L28.985 32.3399C28.985 32.3399 29.155 32.3399 29.155 32.2559C29.325 32.1719 29.495 32.0879 29.58 32.0039C29.41 32.0039 29.24 32.0039 29.07 31.9199C29.155 31.9199 29.24 31.8359 29.325 31.7519C29.495 31.6679 29.75 31.5839 29.92 31.4159C29.92 31.3319 29.92 31.2479 29.835 31.1639C30.005 31.0799 30.175 30.9119 30.345 30.7439C30.345 30.8279 30.43 30.9119 30.43 30.9959L30.685 30.7439C30.855 30.7439 31.025 30.7439 31.195 30.6599C31.79 30.4079 32.045 29.5679 32.725 29.5679V29.3999C32.555 29.3999 32.725 29.3159 32.895 29.1479ZM23.375 28.3079C23.205 28.2239 23.375 27.8879 23.545 27.9719C23.63 28.0559 23.46 28.2239 23.375 28.3079ZM24.14 32.3399C23.97 32.3399 23.545 32.5079 23.545 32.2559H23.375C23.29 32.1719 23.29 32.0879 23.29 32.0039C23.29 32.0879 23.29 32.2559 23.375 32.3399C23.715 32.5079 24.055 32.6759 24.395 32.6759V32.5919C24.395 32.5079 24.48 32.5079 24.48 32.5079L24.565 32.3399C24.395 32.2559 24.055 32.1719 23.8 32.1719C23.885 32.2559 24.055 32.3399 24.14 32.3399ZM23.97 31.0799C23.885 31.3319 23.8 31.5839 24.055 31.5839C24.225 31.4999 24.31 31.3319 24.31 31.1639H24.565C24.48 30.9959 24.14 31.0799 23.97 31.0799Z" fill="#CACACA"/>
<path d="M26.52 32.508C26.52 32.424 26.435 32.34 26.35 32.34C26.18 32.424 26.095 32.508 26.01 32.592L26.52 32.508V32.676H26.01V33.012C26.35 32.928 26.605 32.928 26.945 32.844V32.256C27.03 32.172 27.115 32.088 27.2 32.088C27.115 32.004 26.945 32.004 26.775 32.004C26.775 32.172 26.775 32.424 26.52 32.508Z" fill="#CACACA"/>
<path d="M50.065 11.928C50.235 12.096 50.405 12.18 50.49 12.264C50.49 12.432 50.405 12.516 50.405 12.684C50.49 12.516 50.66 12.432 50.83 12.348C50.66 12.096 50.405 11.928 50.065 11.928ZM26.52 12.936H25.585C25.755 12.936 25.925 13.02 26.095 13.02L26.18 13.104C26.35 13.188 26.52 13.104 26.52 12.936L26.605 13.104V13.356C26.86 13.356 27.03 13.272 27.285 13.272C27.115 12.936 26.775 12.936 26.52 12.936ZM49.98 12.936C49.64 13.188 49.385 13.356 49.045 13.524V13.692C49.47 13.44 49.98 13.188 50.405 12.852V12.768H49.895C49.895 12.852 49.895 12.936 49.98 12.936ZM50.915 14.532C50.915 14.7 50.915 14.868 50.83 15.12C51 15.036 51.17 14.952 51.255 14.784L51 14.868V14.784H51.17C51.255 14.532 51.595 14.532 51.765 14.448C51.765 14.364 51.85 14.28 51.85 14.28C51.51 14.364 51.255 14.448 50.915 14.532ZM46.665 15.288L46.58 15.456H46.75C46.835 15.372 46.92 15.288 47.09 15.204C46.92 15.204 46.835 15.288 46.665 15.288ZM25.755 15.204C25.585 15.288 25.5 15.456 25.5 15.54C25.67 15.624 25.925 15.54 26.095 15.54C26.01 15.372 25.925 15.288 25.755 15.204ZM46.835 15.036C46.835 15.036 47.005 15.12 47.09 15.204L47.26 15.036H46.835ZM47.09 15.204C47.09 15.204 47.175 15.204 47.09 15.204C47.175 15.204 47.09 15.204 47.09 15.204ZM45.815 16.044C45.645 16.128 45.815 16.296 45.985 16.296L46.07 16.212C46.07 16.044 45.9 15.96 45.815 16.044ZM47.005 17.22V17.472C47.09 17.472 47.26 17.388 47.43 17.388L47.685 17.136V16.968C47.515 17.136 47.26 17.22 47.09 17.388C47.09 17.304 47.005 17.22 47.005 17.22ZM30.77 21V20.496C30.6 20.58 30.515 20.58 30.43 20.664C30.26 20.664 30.005 20.58 29.835 20.496C29.835 20.664 29.92 20.832 30.005 21L30.175 20.832L30.685 21.084V21.252C30.77 21.168 30.855 21.168 30.855 21.168C30.77 21.168 30.77 21 30.77 21ZM38.59 24.192C38.505 24.276 38.505 24.444 38.42 24.612C38.25 24.612 38.165 24.528 38.08 24.528V24.78C37.825 24.864 37.655 25.032 37.655 25.284H37.995C38.08 25.2 38.165 25.116 38.165 25.032C38.165 24.948 38.08 24.78 38.165 24.696C38.25 24.696 38.335 24.864 38.335 24.864L39.1 24.108C39.1 24.024 38.93 23.94 38.93 23.94V24.192H38.59ZM41.48 21.168C41.395 21 41.225 20.916 41.055 20.832C40.97 21 40.97 21.084 40.97 21.084C40.885 21.084 40.8 21 40.715 21C40.8 21.168 40.8 21.252 40.8 21.42C40.715 21.588 40.63 21.84 40.545 22.008C40.46 22.092 40.29 22.092 40.12 22.092V22.176C40.205 22.176 40.375 22.26 40.29 22.428C40.205 22.512 40.205 22.512 40.205 22.596C40.12 22.68 40.035 22.68 40.035 22.68V22.764C40.12 22.848 40.12 23.016 40.12 23.1L40.035 23.016C39.865 23.184 39.78 23.436 39.61 23.604C39.61 23.436 39.61 23.352 39.695 23.268C39.78 23.184 39.78 23.016 39.78 23.016C39.95 22.932 39.865 22.764 39.865 22.596C39.865 22.512 39.95 22.512 39.95 22.512L39.78 22.428C39.78 22.764 39.525 23.1 39.355 23.352C39.27 23.352 39.185 23.268 39.1 23.268C39.015 23.52 38.93 23.688 38.93 23.94C39.015 23.772 39.1 23.688 39.27 23.688V24.024C39.44 23.688 39.78 23.52 40.035 23.268C40.29 23.184 40.375 22.932 40.375 22.68H40.715C40.8 22.512 40.885 22.26 40.715 22.092C40.8 21.924 40.885 21.756 41.14 21.756C41.055 21.672 40.97 21.588 40.97 21.504C41.055 21.336 41.31 21.252 41.48 21.168ZM25.755 22.848C25.755 22.932 25.84 23.016 25.84 23.1L25.67 23.268V23.856C25.925 23.688 26.18 23.52 26.35 23.268C26.265 23.184 26.18 23.1 26.18 23.016C26.265 23.016 26.35 22.932 26.35 22.932C26.18 22.848 25.925 22.848 25.755 22.848ZM27.03 22.512C26.945 22.512 26.86 22.428 26.86 22.428V22.848C26.86 22.764 26.775 22.68 26.69 22.68C26.52 22.848 26.605 23.1 26.52 23.268C26.435 23.436 26.435 23.52 26.52 23.604C26.69 23.604 26.69 23.268 26.86 23.184H27.115C26.945 23.016 27.03 22.764 27.03 22.512ZM36.72 25.62C36.72 25.704 36.72 25.788 36.635 25.956C36.635 26.04 36.635 26.208 36.55 26.292C36.55 26.376 36.635 26.46 36.635 26.544C37.06 26.292 36.975 25.872 37.23 25.704C37.145 25.704 37.06 25.62 37.06 25.62H36.72Z" fill="#CACACA"/>
<path d="M49.555 10.416C49.47 10.416 49.3 10.332 49.215 10.332C49.555 10.164 49.895 10.164 50.235 10.164H50.32C50.405 10.164 50.49 10.248 50.49 10.248C50.66 9.99602 51 9.91202 51.255 9.91202V10.332C51.425 10.416 51.68 10.332 51.85 10.248V10.08C51.68 10.08 51.51 9.99602 51.425 9.91202C51.595 9.82802 51.85 9.74402 52.02 9.74402C52.105 9.66002 52.105 9.49202 52.19 9.40802C52.36 9.49202 52.53 9.49202 52.7 9.49202C52.87 9.49202 53.04 9.24002 52.955 9.07202L53.125 9.24002V8.90402H53.21V9.15602C53.38 9.07202 53.635 8.98802 53.72 8.73602H54.23V8.40002C53.635 8.56802 52.955 8.65202 52.36 9.07202C52.275 9.07202 52.19 9.07202 52.02 9.15602V9.40802C51.935 9.15602 51.595 9.40802 51.425 9.40802C51.34 9.40802 51.34 9.57602 51.34 9.57602C51.255 9.49202 51.17 9.49202 51.085 9.49202V9.66002H50.745C50.745 9.74402 50.66 9.82802 50.66 9.91202C50.49 9.91202 50.405 9.99602 50.32 9.99602L50.405 9.74402H49.895V9.99602H49.81C49.81 9.82802 49.81 9.66002 49.725 9.57602V9.99602C49.555 9.91202 49.215 9.99602 49.215 10.164H49.045C48.96 10.248 48.96 10.332 48.96 10.332C48.705 10.416 48.875 10.08 48.875 9.99602C48.79 9.99602 48.705 10.08 48.705 10.08V10.332C48.705 10.416 48.62 10.5 48.62 10.5C48.96 10.584 49.215 10.5 49.555 10.416ZM48.96 16.38V16.464C49.045 16.464 49.13 16.38 49.13 16.38H48.96ZM55.675 11.424H55.335C55.25 11.172 55.25 10.92 55.25 10.584C55.165 10.584 55.08 10.5 55.08 10.5C55.165 10.752 55.165 10.92 55.08 10.836C54.995 10.752 54.825 10.752 54.74 10.752H54.06V11.004H53.89C53.89 10.92 53.89 10.836 53.805 10.752C53.89 10.752 54.06 10.668 54.145 10.668V10.332L53.975 10.416C53.89 10.5 53.72 10.5 53.635 10.5C53.72 10.416 53.805 10.332 53.89 10.332V10.164C53.805 10.332 53.635 10.416 53.55 10.5C53.55 10.164 53.89 10.08 54.06 9.91202C53.805 9.74402 53.635 9.66002 53.38 9.57602L53.125 9.82802H52.87C52.87 9.91202 52.955 9.99602 52.955 10.08C52.87 10.164 52.785 10.248 52.785 10.332L52.87 10.416V10.668C53.125 10.752 53.295 10.836 53.55 10.836H53.805C53.805 10.92 53.72 10.92 53.72 10.92H53.465C53.55 11.004 53.55 11.172 53.635 11.256H53.465V11.844C53.38 11.844 53.21 11.76 53.125 11.76C52.955 11.844 52.87 11.928 52.7 12.012C52.445 12.012 52.275 11.928 52.105 11.928C52.105 12.012 52.02 12.096 52.02 12.096C51.85 12.18 51.68 12.264 51.51 12.264C51.68 12.6 51.68 12.852 51.51 13.188H52.275C51.935 13.272 51.595 13.524 51.255 13.356V13.524C51.17 13.44 51.085 13.272 51 13.188C51 13.44 51.17 13.776 51.255 14.028C51.425 13.944 51.595 13.86 51.85 13.86H51.935C51.68 13.776 51.935 13.608 52.02 13.776C52.19 13.86 52.275 13.86 52.36 13.944C52.445 13.86 52.53 13.86 52.53 13.86C52.445 13.86 52.36 13.776 52.36 13.776C52.53 13.86 52.7 13.692 52.7 13.524C52.7 13.608 52.87 13.608 52.87 13.608C53.125 13.44 53.38 13.188 53.72 13.188C53.89 13.104 54.06 13.02 54.23 12.852C54.06 12.852 53.89 12.852 53.72 12.768C54.06 12.6 54.315 12.348 54.655 12.264C54.825 12.18 55.165 12.096 55.25 11.928H55.505C55.675 11.76 55.93 11.508 56.185 11.424V11.256C56.1 11.424 55.845 11.424 55.675 11.424ZM47.345 11.256C47.26 11.172 47.09 11.088 47.005 11.088V11.34C46.92 11.172 46.835 11.004 46.665 11.004C46.58 11.172 46.58 11.34 46.495 11.508V11.592H46.07V11.676C46.58 11.76 46.92 11.508 47.345 11.256Z" fill="#CACACA"/>
<path d="M50.745 14.112V13.776C50.66 13.776 50.575 13.86 50.575 13.86C50.49 13.776 50.405 13.692 50.405 13.608C50.32 13.776 50.235 14.028 50.15 14.28C50.065 14.196 49.98 14.112 49.98 14.028C49.725 14.028 49.385 14.196 49.13 14.364C49.13 14.448 49.215 14.616 49.215 14.616C49.385 14.616 49.555 14.7 49.725 14.7H49.98C49.81 14.868 49.64 15.036 49.47 15.12C49.555 15.036 49.64 14.868 49.725 14.7C49.47 14.7 49.13 14.868 48.96 15.036C48.875 15.12 48.875 15.204 48.875 15.204C48.705 15.204 48.45 15.12 48.28 15.12H48.195C48.195 15.204 48.11 15.372 48.11 15.456L47.855 15.204C47.685 15.204 47.515 15.288 47.345 15.288C47.175 15.456 47.005 15.624 46.835 15.708C47.005 15.792 47.09 15.876 47.175 15.876C47.175 15.624 47.43 15.708 47.43 15.876H47.6V15.624C47.685 15.708 47.855 15.708 47.94 15.708C47.94 16.044 47.685 16.296 47.43 16.464C47.345 16.548 47.26 16.548 47.26 16.632C47.26 16.716 47.09 16.716 47.09 16.716C47.005 16.8 46.92 16.884 46.92 16.968V17.388C46.835 17.556 46.58 17.388 46.495 17.388C46.41 17.472 46.24 17.556 46.155 17.556V17.304C45.815 17.388 45.985 17.808 45.815 17.976H45.985C46.24 17.892 46.41 17.724 46.495 17.556H47.005C47.005 17.472 47.09 17.304 47.09 17.22C47.175 17.22 47.26 17.136 47.26 17.136V17.472C47.345 17.304 47.685 17.22 47.855 17.136V16.968H47.6C47.515 16.968 47.345 17.052 47.175 17.052V16.8C47.175 16.884 47.26 16.968 47.26 16.968C47.43 16.884 47.685 16.716 47.855 16.548V16.716C47.94 16.464 48.11 16.296 48.365 16.296C48.365 16.464 48.28 16.632 48.28 16.8H48.535L48.705 16.632H48.535C48.45 16.296 48.875 16.128 48.875 15.792H48.96C48.96 15.624 49.045 15.54 49.13 15.372C49.215 15.204 49.385 15.372 49.385 15.456C49.555 15.288 49.725 15.12 49.98 14.952C50.15 14.868 50.405 14.7 50.405 14.532H50.83C50.745 14.616 50.575 14.7 50.575 14.784C50.66 14.7 50.745 14.7 50.83 14.7C50.915 14.532 50.915 14.28 50.915 14.112C51 14.112 51.17 14.028 51.255 14.028C51.085 13.944 51 13.86 50.83 13.776C50.83 13.944 50.745 14.028 50.745 14.112Z" fill="#CACACA"/>
<path d="M48.705 16.548C48.79 16.548 48.875 16.548 48.96 16.464C48.875 16.548 48.79 16.548 48.705 16.548ZM49.81 15.876C49.725 15.96 49.64 16.044 49.64 16.128C49.725 16.128 49.725 16.044 49.81 16.044V15.876ZM49.13 15.876C49.215 15.876 49.215 16.044 49.215 16.044V15.792H48.96V15.96C49.045 15.876 49.13 15.876 49.13 15.876ZM49.47 16.212C49.47 16.212 49.555 16.128 49.64 16.128H49.215C49.13 16.212 49.13 16.38 49.13 16.38H49.385C49.385 16.296 49.47 16.212 49.47 16.212ZM40.63 14.448C41.055 14.196 41.565 14.112 41.905 13.692C42.33 13.692 42.585 13.44 42.925 13.188C43.095 13.02 43.35 13.188 43.52 13.188C43.69 12.936 43.945 12.684 44.2 12.516H44.285L44.115 12.348C43.945 12.348 43.69 12.264 43.69 12.516C43.605 12.516 43.435 12.516 43.265 12.684C43.35 12.768 43.35 12.852 43.435 12.936L43.18 12.684C42.755 12.768 42.415 13.188 41.99 13.356C41.565 13.608 41.225 13.944 40.8 14.112C40.63 14.112 40.545 14.196 40.46 14.28C40.545 14.28 40.63 14.448 40.63 14.448ZM22.95 18.816C23.035 18.732 23.12 18.732 23.205 18.732V18.816C23.375 18.732 23.46 18.648 23.63 18.648V18.48H24.225C24.395 18.06 24.48 17.724 24.225 17.388C24.14 17.388 24.055 17.472 23.97 17.472L24.225 16.716C24.14 16.632 24.055 16.632 23.97 16.548C24.055 16.548 24.14 16.464 24.225 16.464C24.31 16.212 24.48 16.044 24.565 15.876V15.54C24.65 15.288 24.905 15.288 25.075 15.288V14.784C24.905 14.7 24.65 14.7 24.65 14.448H24.905V14.28C24.82 14.364 24.65 14.364 24.565 14.364V14.028C24.65 13.944 24.82 13.944 24.905 13.944C24.82 13.86 24.82 13.776 24.82 13.776H24.055C24.055 13.944 24.055 14.028 24.14 14.364C23.97 14.196 23.715 14.448 23.545 14.532C23.63 14.616 23.715 14.7 23.715 14.784C23.63 14.7 23.46 14.616 23.375 14.616C23.375 14.7 23.29 14.7 23.29 14.7L23.205 14.532C23.035 14.616 22.78 14.616 22.695 14.784V15.12C22.525 15.204 22.44 15.288 22.355 15.372V15.54C22.27 15.54 22.185 15.624 22.185 15.708C22.27 15.708 22.355 15.792 22.44 15.876C22.355 15.96 22.27 16.128 22.185 16.212C22.1 16.212 22.015 16.128 21.93 16.128V16.464C21.93 16.548 21.845 16.632 21.76 16.632C21.42 16.38 21.08 16.464 20.825 16.632H21.25V17.136C21.165 17.052 20.995 16.968 20.91 16.884V17.22H21.08L21.59 17.724L21.335 17.976C21.335 18.06 21.42 18.144 21.42 18.144H21.76C21.76 18.06 21.675 17.976 21.675 17.976L21.93 17.724C22.1 17.808 22.185 17.892 22.27 17.976L22.525 17.724C22.61 17.892 22.695 18.144 22.695 18.312C22.695 18.396 22.78 18.48 22.865 18.48C22.78 18.564 22.61 18.564 22.525 18.564C22.27 18.48 22.1 18.396 21.93 18.312C21.675 18.48 21.335 18.396 21.08 18.312C21.165 18.564 21.335 18.732 21.505 18.9C21.335 18.984 21.165 18.984 20.995 18.984C20.995 19.152 21.08 19.404 21.08 19.572H21.505V19.236C21.675 19.152 21.76 19.068 21.845 19.068C21.76 19.068 21.59 18.984 21.505 18.984C21.59 18.9 21.675 18.732 21.76 18.648C21.93 18.732 22.015 18.816 22.185 18.9V18.648C22.27 18.648 22.355 18.732 22.44 18.732C22.61 18.564 22.78 18.648 22.95 18.816ZM36.55 17.472L36.635 17.388L36.55 17.472ZM37.145 18.06C37.145 18.144 37.23 18.228 37.23 18.228C37.4 18.06 37.57 17.892 37.825 17.808C37.995 17.556 38.165 17.136 38.59 17.136C38.675 17.136 38.76 17.052 38.76 17.052V16.8C38.76 16.716 38.93 16.716 38.93 16.716V16.884C39.015 16.8 39.1 16.8 39.1 16.716V16.548H38.93C38.76 16.548 38.93 16.296 39.015 16.296C38.845 16.212 38.675 16.296 38.505 16.296C38.505 16.212 38.42 16.128 38.42 16.128C38.59 16.044 38.845 15.96 39.015 15.876L39.27 15.624C39.44 15.54 39.61 15.456 39.78 15.456C39.78 15.372 39.865 15.288 39.865 15.204C40.035 15.036 40.375 14.868 40.545 14.616V14.448C39.95 14.532 39.695 15.12 39.1 15.12C39.1 15.12 39.1 15.288 38.93 15.708C38.76 15.792 38.59 15.96 38.42 16.044C38.42 15.96 38.335 15.96 38.335 15.96C38.335 16.128 38.25 16.296 38.165 16.38C38.08 16.38 37.91 16.464 37.825 16.464C37.655 16.716 37.315 16.8 37.145 17.052C37.145 17.136 36.89 17.136 36.805 17.136C36.805 17.22 36.72 17.304 36.72 17.388C36.805 17.388 36.805 17.304 36.89 17.304C36.975 17.556 36.72 17.892 36.72 18.144L36.805 18.312C36.635 18.396 36.55 18.396 36.465 18.396C36.38 18.564 36.21 18.648 36.125 18.732C36.21 18.732 36.38 18.816 36.55 18.816C36.805 18.648 37.06 18.396 37.145 18.06Z" fill="#CACACA"/>
<path d="M21.08 17.724C20.91 17.724 20.74 17.64 20.57 17.556V17.892C20.74 17.976 20.91 18.06 21.08 18.06V17.724ZM16.405 19.656V19.068H15.725C15.81 19.068 15.98 18.984 16.065 18.984C15.895 18.816 15.725 18.732 15.47 18.732C15.555 18.9 15.555 18.984 15.555 19.068C15.385 19.152 15.3 19.236 15.13 19.32C15.215 19.404 15.3 19.572 15.3 19.572C15.13 19.656 14.875 19.572 14.705 19.572C14.535 19.74 14.365 19.824 14.11 19.908C14.28 20.16 14.62 20.244 14.875 20.328C14.705 20.412 14.365 20.412 14.11 20.412C14.025 20.664 13.94 20.832 13.77 21C13.855 21.084 13.855 21.252 13.94 21.336C14.025 21.42 14.195 21.504 14.365 21.504C14.28 21.588 14.195 21.756 14.195 21.84L14.535 22.176H15.13C15.13 21.84 15.47 21.672 15.725 21.672C15.81 21.84 15.895 21.924 15.98 22.008L16.235 21.756C16.32 21.84 16.405 21.84 16.49 21.84V21.672C16.32 21.504 16.065 21.336 15.895 21.168L16.235 20.832C16.405 21.084 16.575 21.504 16.915 21.672C16.745 21.756 16.66 21.924 16.575 22.092C16.745 22.008 17 21.924 17.17 21.924C17.085 21.756 17.085 21.672 17.085 21.588C16.745 21.504 16.745 21.168 16.745 20.916C16.575 20.832 16.32 20.748 16.235 20.58H17C17.085 20.496 17.17 20.412 17.17 20.328L17.34 20.496C17.255 20.412 17.255 20.328 17.255 20.244L17.425 20.076C17.085 19.908 16.575 19.992 16.405 19.656ZM18.53 19.068H18.19C18.105 18.984 18.02 18.9 18.02 18.816C17.935 19.068 18.02 19.32 18.19 19.32V19.656C18.36 19.824 18.53 19.656 18.615 19.656V19.404H18.87C18.615 19.404 18.445 19.404 18.275 19.32L18.53 19.068ZM46.835 14.868C46.835 14.7 46.75 14.7 46.75 14.616V14.196H46.835L46.665 14.028C46.325 14.112 46.07 14.028 45.73 13.86V14.196C45.73 14.196 45.645 14.196 45.56 14.112V13.944C45.475 13.944 45.39 13.944 45.305 14.028C45.305 14.112 45.39 14.28 45.39 14.364C45.22 14.364 45.05 14.364 44.88 14.448C44.71 14.7 44.54 15.036 44.455 15.288C44.37 15.456 44.115 15.372 44.03 15.372C43.775 15.54 43.605 15.792 43.52 16.128H42.925C42.755 16.632 42.16 16.716 41.82 17.052C41.82 16.968 41.735 16.884 41.735 16.8C41.65 16.884 41.48 16.968 41.395 16.968H41.735C41.735 17.136 41.735 17.304 41.65 17.388C41.395 17.388 41.225 17.472 41.055 17.556L40.63 17.136C40.545 17.388 40.29 17.724 40.545 17.976V18.144C40.545 18.144 40.46 17.976 40.375 17.892C40.375 17.976 40.29 17.976 40.205 18.06L40.375 18.228C40.12 18.396 39.78 18.396 39.44 18.228C39.44 18.228 39.355 18.06 39.355 17.976C38.93 18.228 38.76 18.564 38.335 18.816C37.91 19.068 37.23 19.236 37.145 19.824C37.315 19.824 37.485 19.824 37.655 19.908L37.4 20.16V20.916C37.57 20.916 37.74 20.832 37.825 20.664C37.91 20.412 38.165 20.244 38.42 20.16V20.496H38.08C37.91 20.832 37.655 21.084 37.485 21.42V21C37.315 20.916 37.23 20.832 37.06 20.748V20.58C36.805 20.412 36.465 20.412 36.21 20.496C36.21 20.496 36.295 20.58 36.295 20.664H35.87V20.832C35.87 20.832 36.04 20.832 36.04 20.916V21.084L36.55 20.832V21.336C36.295 21.42 35.955 21.504 35.7 21.588C35.7 21.672 35.785 21.756 35.87 21.756C35.445 21.756 35.19 22.092 34.85 22.176C34.425 22.26 34.17 22.428 33.745 22.512C33.83 22.512 33.915 22.596 34 22.68H33.66C33.66 22.512 33.745 22.26 33.745 22.092C33.66 22.176 33.575 22.26 33.405 22.344L33.235 22.428C33.235 22.512 33.15 22.512 33.15 22.596H32.98C32.98 22.764 32.98 23.016 32.895 23.184C32.98 23.184 33.065 23.184 33.235 23.1L33.15 23.184C32.98 23.184 32.81 23.268 32.64 23.352C32.47 23.352 32.385 23.268 32.215 23.268C32.215 23.184 32.3 23.1 32.3 23.016C32.215 23.1 32.215 23.1 32.215 23.016C32.215 23.016 32.3 22.932 32.385 22.932V22.68C32.385 22.596 32.47 22.596 32.47 22.512H32.385V22.344C32.385 22.344 32.385 22.26 32.47 22.26C32.47 22.092 32.47 21.924 32.385 21.756C32.3 21.504 32.47 21.336 32.555 21.168C32.555 21 32.47 20.832 32.385 20.748C32.13 20.832 31.96 21 31.79 21.168C31.705 21.084 31.62 20.916 31.45 20.832C31.62 20.58 31.96 20.58 32.215 20.664C32.215 20.664 32.3 20.58 32.3 20.496C32.13 20.328 32.045 20.16 31.96 19.908C31.96 19.908 31.875 19.824 31.79 19.824C31.365 19.824 31.025 19.992 30.6 20.076C30.43 20.076 30.26 20.16 30.09 20.244V20.412C29.665 20.496 29.495 20.916 29.07 21.084C28.815 21.252 28.475 21.252 28.22 21.504C28.305 21.588 28.39 21.672 28.56 21.756L27.54 22.008C27.625 22.008 27.71 22.092 27.795 22.176V22.428C27.625 22.344 27.455 22.26 27.2 22.092C27.2 21.924 27.115 21.672 27.2 21.504C27.03 21.42 26.69 21.42 26.605 21.588C26.435 21.924 26.095 22.092 25.755 22.176V21.756C25.67 21.924 25.585 22.008 25.5 22.176C25.415 22.596 25.075 23.016 24.99 23.436C24.735 24.024 24.395 24.612 24.225 25.2C24.055 25.536 24.14 25.872 23.885 26.208C23.8 26.376 23.97 26.544 23.97 26.712H23.715V27.048C23.715 26.964 23.8 26.88 23.885 26.88L24.395 27.384C24.395 26.964 24.735 26.628 24.99 26.208V26.712H25.5C25.5 26.712 25.5 26.88 25.415 26.88H25.16C24.99 26.88 24.82 26.964 24.65 27.048C24.735 27.048 24.82 27.048 24.905 27.132C24.82 27.216 24.65 27.3 24.565 27.384C24.735 27.384 24.905 27.468 24.99 27.552C25.16 27.552 25.245 27.468 25.415 27.384V27.804H25.755C25.925 27.72 26.18 27.552 26.35 27.552C26.435 27.468 26.52 27.384 26.52 27.3C26.69 27.552 26.69 27.888 26.69 28.14C26.69 28.224 26.605 28.308 26.605 28.392C26.605 28.392 26.775 28.392 26.86 28.476C27.2 28.476 27.54 28.728 27.965 28.644C27.71 28.476 27.455 28.392 27.285 28.224H27.71C27.71 28.14 27.795 28.056 27.88 27.972C27.88 28.14 27.965 28.392 28.22 28.392C28.305 28.224 28.475 28.056 28.56 27.972C28.815 27.972 29.24 27.972 29.325 28.308C29.495 28.56 29.41 28.896 29.41 29.148L29.665 28.896C29.92 28.896 30.26 29.064 30.515 29.064C30.77 28.98 30.94 28.896 31.195 29.064C31.535 28.896 31.875 28.812 32.215 29.064C32.215 28.98 32.13 28.896 32.045 28.812L32.3 28.56C32.555 28.56 32.81 28.56 32.98 28.728C32.895 28.728 32.725 28.812 32.555 28.812C32.555 28.896 32.555 28.98 32.64 29.064C32.725 28.98 32.895 28.812 33.065 28.728C33.065 28.98 33.065 29.232 32.895 29.4C32.98 29.4 33.065 29.4 33.15 29.316C33.065 29.4 32.895 29.484 32.81 29.652V29.82C32.13 29.82 31.875 30.66 31.28 30.912C31.11 30.912 30.94 30.912 30.77 30.996L30.515 31.248C30.515 31.164 30.43 31.08 30.43 30.996C30.26 31.164 30.09 31.332 29.92 31.416C29.92 31.5 29.92 31.584 30.005 31.668C30.43 31.416 30.77 31.164 31.195 31.08C31.195 31.164 31.11 31.164 31.025 31.248C30.685 31.584 30.09 31.752 29.665 32.004C29.58 32.088 29.41 32.004 29.325 32.004C29.24 32.004 29.155 32.088 29.07 32.172C29.24 32.172 29.41 32.256 29.58 32.256C29.665 32.256 29.75 32.256 29.92 32.172C30.09 32.088 30.26 32.004 30.515 31.92C30.685 31.836 30.855 31.836 30.94 31.836C31.195 31.584 31.45 31.416 31.705 31.248V30.996C32.13 30.912 32.3 30.576 32.64 30.408C32.895 30.156 33.235 29.988 33.32 29.568C33.49 29.484 33.66 29.4 33.83 29.148C34 28.896 34.425 28.812 34.595 28.476C34.85 28.476 35.105 28.308 35.19 28.14C35.19 28.056 35.105 27.972 35.105 27.888C35.275 27.72 35.445 27.468 35.7 27.384C35.7 27.384 35.785 27.384 35.87 27.3V26.964C36.04 26.88 36.295 26.796 36.465 26.712C36.635 26.544 36.805 26.292 36.975 26.124V25.788H37.315C37.315 25.788 37.4 25.872 37.485 25.872V25.62C37.57 25.62 37.655 25.536 37.825 25.452H37.74C37.74 25.2 37.91 25.032 38.165 24.948V24.696C38.25 24.696 38.335 24.78 38.505 24.78C38.59 24.612 38.59 24.444 38.675 24.36H39.015C39.015 24.024 39.015 23.772 39.185 23.436C39.27 23.436 39.355 23.52 39.44 23.52C39.61 23.268 39.865 22.932 39.865 22.596L40.035 22.68V22.764C40.035 22.764 40.12 22.764 40.205 22.68C40.205 22.596 40.205 22.596 40.29 22.512C40.205 22.512 40.12 22.512 40.035 22.428V22.176C40.205 22.176 40.375 22.176 40.46 22.092C40.545 21.924 40.63 21.672 40.715 21.504C40.715 21.336 40.715 21.168 40.63 21.084C40.715 21.084 40.8 21.084 40.885 21.168C40.885 21 40.97 20.916 40.97 20.748C41.14 20.832 41.31 20.916 41.395 21.084C41.395 21.084 41.48 21.252 41.565 21.252V21.168C41.565 21.168 41.48 21.084 41.48 21C41.65 20.916 41.82 20.748 41.99 20.58C42.075 20.412 41.905 20.16 42.075 19.992C42.33 19.824 42.67 19.572 42.84 19.32H43.095C43.18 19.152 43.265 18.984 43.52 18.9C43.52 18.816 43.18 18.648 43.52 18.648V18.396C43.52 18.312 43.69 18.312 43.69 18.312L43.52 18.48C43.52 18.564 43.52 18.816 43.69 18.816C43.945 18.816 43.86 18.648 43.86 18.48C43.86 18.48 43.945 18.648 44.03 18.648C44.03 18.564 44.03 18.396 44.115 18.312C44.455 18.396 44.625 18.06 44.795 17.892C44.88 17.724 45.135 17.724 45.22 17.64H45.05C45.05 17.64 45.05 17.472 45.135 17.472C45.05 17.472 44.965 17.388 44.88 17.388V17.64H44.625C44.37 17.808 44.2 18.06 44.03 18.396C43.86 18.312 44.03 18.144 44.03 17.976V17.724C44.115 17.724 44.2 17.64 44.285 17.64L44.54 17.136H44.795L45.05 16.884V17.052H45.305C45.305 16.884 45.305 16.716 45.39 16.548C45.39 16.548 45.56 16.548 45.645 16.464C45.135 16.296 44.88 16.8 44.455 16.968C44.625 16.716 44.88 16.38 45.135 16.212V15.624C45.305 15.624 45.475 15.54 45.73 15.54L45.815 15.456C45.985 15.288 46.155 15.036 46.325 14.868H46.835ZM33.15 23.016C33.32 23.016 33.575 23.016 33.745 23.1C33.66 22.932 33.66 22.848 33.66 22.68C33.745 22.764 33.915 22.848 34 22.932C34 23.1 34 23.268 33.83 23.352C33.575 23.352 33.32 23.184 33.15 23.016ZM32.81 26.46C32.81 26.46 32.725 26.46 32.725 26.376C32.64 26.376 32.555 26.376 32.555 26.46L32.47 26.376H32.81V26.46ZM33.49 26.628C33.405 26.376 33.32 26.376 33.235 26.376V26.544H32.895L33.15 26.292H33.065C33.15 26.292 33.32 26.208 33.405 26.124C33.405 26.208 33.49 26.292 33.575 26.376C33.575 26.46 33.49 26.544 33.49 26.628ZM35.02 25.368C35.02 25.284 35.02 25.2 34.935 25.2C34.935 25.2 34.85 25.2 34.85 25.284L34.68 25.116V25.452C34.765 25.536 34.935 25.62 35.02 25.704C34.85 25.704 34.68 25.788 34.425 25.872C34.425 25.956 34.51 26.04 34.595 26.124C34.425 26.292 34.255 26.46 34.17 26.628C34.085 26.544 34 26.46 33.915 26.46C33.915 26.628 33.915 26.712 34 26.88C33.915 26.796 33.83 26.712 33.745 26.544C33.745 26.544 33.83 26.46 33.83 26.376C33.83 26.292 33.745 26.208 33.66 26.124H33.915V25.956H34.255C34.255 25.788 34.255 25.536 34.17 25.368C34 25.2 33.745 25.032 33.575 24.864C33.49 24.864 33.405 24.948 33.405 25.032C33.235 24.948 33.15 24.948 32.98 24.864V24.612C32.81 24.696 32.64 24.78 32.47 24.948V25.2C32.725 25.116 33.065 25.2 33.32 25.284L33.405 25.452C33.49 25.452 33.575 25.452 33.66 25.536V25.788C33.575 25.788 33.49 25.872 33.405 25.872V25.704C33.065 25.872 32.725 26.208 32.3 26.208C32.215 26.124 32.045 26.124 31.96 26.208C31.875 26.292 31.79 26.544 31.79 26.628H31.62C31.535 26.796 31.365 26.964 31.195 27.048C31.11 27.048 30.94 26.964 30.77 26.964C30.77 26.712 30.685 26.376 30.345 26.376C30.43 26.208 30.6 26.04 30.685 25.872C30.43 25.956 30.175 26.04 30.09 26.292C29.92 26.292 29.665 26.376 29.495 26.46C29.495 26.292 29.58 26.124 29.835 26.124C29.835 26.04 29.75 25.956 29.665 25.872H30.005C30.09 25.788 30.175 25.704 30.345 25.62C30.345 25.704 30.345 25.788 30.43 25.872C30.6 25.704 30.77 25.62 31.025 25.536C30.855 25.368 30.685 25.452 30.43 25.452C30.515 25.368 30.6 25.284 30.6 25.2V25.032L30.515 25.116C30.43 25.116 30.345 25.032 30.175 25.032V24.78C30.345 24.78 30.43 24.696 30.6 24.696C30.345 24.612 30.005 24.612 29.75 24.612C29.835 24.78 29.835 24.948 29.92 25.116L29.665 25.368C29.41 25.368 29.07 25.116 28.985 24.864C29.07 24.864 29.155 24.78 29.325 24.696C29.155 24.612 29.07 24.528 28.9 24.444L29.07 24.36C29.07 24.36 29.155 24.36 29.24 24.444L29.495 24.192H29.07C29.155 23.94 29.41 23.94 29.665 23.94C29.665 24.192 29.665 24.528 29.92 24.612C30.175 24.612 30.09 24.276 30.175 24.108C30.175 24.192 30.26 24.276 30.26 24.36C30.345 24.276 30.515 24.192 30.6 24.108L30.005 23.52V23.352C30.09 23.352 30.09 23.436 30.175 23.436V23.268C30.345 23.268 30.515 23.184 30.515 23.016C30.345 22.932 30.175 22.932 30.09 22.932C30.345 22.932 30.6 22.932 30.685 22.764C30.6 22.764 30.43 22.764 30.345 22.68H30.43C30.6 22.764 30.855 22.764 31.025 22.848C31.195 22.848 31.365 22.764 31.535 22.68V23.016C31.705 23.016 31.875 22.932 31.96 22.932L31.79 22.764H32.045V22.428C32.13 22.428 32.13 22.512 32.215 22.512C32.13 22.764 32.045 22.932 31.79 23.184C31.875 23.352 32.045 23.52 32.13 23.688C32.47 23.856 32.81 24.108 33.15 24.36V24.612C33.49 24.444 33.745 24.108 34.17 24.024L34.34 24.192C34.34 24.192 34.425 24.192 34.425 24.108C34.595 24.276 34.765 24.36 34.935 24.528C34.935 24.528 34.935 24.612 34.85 24.612C34.935 24.696 35.105 24.78 35.19 24.948C35.275 25.116 35.105 25.2 35.02 25.368Z" fill="#CACACA"/>
<path d="M29.155 29.316C29.24 29.316 29.325 29.232 29.41 29.148H29.155V29.316ZM27.2 18.732V18.48C27.285 18.312 27.455 18.228 27.625 18.144C27.54 17.976 27.37 17.892 27.285 17.724C27.455 17.472 27.54 17.22 27.54 16.884C27.71 16.8 27.795 16.8 27.88 16.8C27.88 16.716 27.965 16.632 27.965 16.632C27.795 16.548 27.71 16.548 27.625 16.548C27.54 16.212 27.37 15.96 27.37 15.624C27.285 15.624 27.2 15.54 27.2 15.456C27.285 15.204 27.455 14.952 27.54 14.7C27.455 14.7 27.37 14.616 27.37 14.616C27.455 14.364 27.115 14.112 27.03 13.86C27.03 13.692 27.03 13.44 27.285 13.44C27.455 13.44 27.455 13.776 27.54 13.86V13.524L28.05 13.776L27.795 14.028C27.88 13.944 28.05 13.86 28.22 13.86C28.135 14.028 28.135 14.196 28.135 14.28C28.305 14.364 28.56 14.364 28.73 14.364C28.56 14.28 28.39 14.196 28.22 14.196C28.39 14.196 28.645 14.112 28.815 14.028C28.645 13.86 28.56 13.692 28.39 13.692C27.965 13.524 27.625 13.272 27.2 13.272C26.945 13.272 26.775 13.356 26.435 13.44V13.692C26.52 13.692 26.69 13.776 26.775 13.776C26.775 14.196 26.945 14.616 27.2 14.952C27.03 15.12 26.86 15.204 26.69 15.288C26.86 15.456 27.03 15.624 27.2 15.876C27.115 16.128 27.115 16.464 27.2 16.716C27.37 16.968 27.285 17.304 27.2 17.556C27.115 17.64 26.945 17.64 26.775 17.64C26.86 17.724 26.86 17.808 26.945 17.892L26.69 18.396L26.775 18.48C26.605 18.648 26.52 18.9 26.435 19.068H26.265V19.404C26.435 19.236 26.69 19.152 26.86 19.152C26.945 18.984 27.115 18.816 27.2 18.732ZM40.885 15.456C40.63 15.372 40.46 15.708 40.46 15.876C40.63 15.876 41.055 15.708 40.885 15.456ZM40.205 15.624C40.12 15.708 40.12 15.876 40.035 16.044C40.205 16.044 40.29 15.96 40.46 15.96V15.624H40.205ZM22.78 29.484C22.78 29.4 22.695 29.316 22.695 29.232C22.44 29.652 22.61 30.156 22.44 30.492L22.695 31.248C22.865 30.828 22.525 30.492 22.695 30.072C22.695 29.82 22.865 29.652 22.78 29.484ZM24.65 29.148C24.565 29.232 24.48 29.316 24.395 29.316C24.395 29.316 24.395 29.4 24.31 29.4C24.225 29.484 24.055 29.484 23.97 29.484L23.8 29.652V29.148C23.545 29.232 23.375 29.4 23.205 29.568H23.12C23.12 29.736 23.035 29.904 23.205 29.988H22.95C23.035 30.408 23.205 30.744 23.375 31.164C23.29 31.164 23.205 31.08 23.12 31.08C23.12 31.332 23.375 31.5 23.63 31.5C23.545 31.416 23.46 31.332 23.46 31.248H23.885C23.715 31.164 23.545 30.996 23.46 30.912C23.29 30.744 23.205 30.492 23.205 30.324C23.205 30.072 23.46 29.904 23.63 29.736C23.715 29.904 23.715 30.072 23.885 30.156C24.055 29.988 24.055 29.652 24.31 29.568C24.48 29.736 24.565 29.988 24.82 30.072V29.484C24.735 29.484 24.65 29.4 24.65 29.4V29.148ZM24.99 28.476C24.905 28.392 24.82 28.308 24.735 28.308C24.905 28.224 25.075 28.14 25.16 27.972C25.16 27.888 25.075 27.72 25.075 27.636H24.82C24.82 27.804 24.905 27.888 25.075 28.056C24.905 28.056 24.65 28.056 24.48 28.14C24.565 28.224 24.735 28.224 24.735 28.224C24.735 28.308 24.65 28.392 24.65 28.476C24.82 28.56 25.075 28.644 25.245 28.644C25.16 28.644 25.075 28.728 24.99 28.728H25.245C25.33 28.728 25.33 28.476 25.33 28.392C25.245 28.308 25.16 28.308 25.16 28.308C25.075 28.392 25.075 28.476 24.99 28.476Z" fill="#CACACA"/>
<path d="M52.02 10.248H52.36C52.36 10.08 52.445 9.91196 52.53 9.82796H52.105C52.36 9.74396 52.53 9.65996 52.7 9.49196C52.53 9.40796 52.36 9.40796 52.19 9.40796C52.105 9.57596 52.02 9.65996 52.02 9.82796C51.85 9.91196 51.595 9.91196 51.425 9.99596C51.595 10.08 51.68 10.164 51.85 10.164L52.02 10.248ZM48.62 10.92C48.875 10.752 49.3 10.584 49.64 10.752V10.416C49.725 10.584 49.725 10.668 49.725 10.752C49.81 10.668 49.98 10.668 50.15 10.584C50.15 10.5 50.065 10.416 49.98 10.332L50.15 10.164C49.725 10.164 49.47 10.164 49.13 10.332C49.215 10.416 49.3 10.416 49.385 10.416C49.13 10.5 48.875 10.5 48.62 10.5H48.28V10.248C48.195 10.332 48.025 10.416 47.94 10.5V10.836C48.11 10.752 48.365 10.668 48.62 10.584V10.92ZM53.89 11.508H54.06V11.424H53.89V11.508ZM46.325 15.876C46.325 15.96 46.24 15.96 46.325 15.876C46.07 16.212 45.9 16.464 45.645 16.548V16.716C45.39 16.884 45.135 17.22 44.965 17.472C45.05 17.472 45.05 17.388 45.135 17.388V17.472H44.88C44.965 17.472 45.05 17.556 45.135 17.556C45.22 17.556 45.305 17.724 45.305 17.724C45.475 17.724 45.645 17.556 45.815 17.556C45.985 17.388 46.07 17.22 46.24 17.052H46.58C46.75 16.884 46.92 16.548 47.26 16.632V16.884C47.515 16.716 47.77 16.464 47.77 16.128C47.685 16.044 47.515 16.044 47.43 16.044V16.296H47.005C46.835 16.212 46.835 16.212 46.75 16.128L47.09 15.792H46.92L47.09 15.624H47.005C47.09 15.456 47.09 15.372 47.175 15.288H46.835C46.665 15.456 46.495 15.708 46.325 15.876ZM45.39 17.556V17.304H45.22C45.475 17.136 45.73 16.884 45.985 16.968C45.9 17.052 45.815 17.22 45.73 17.304C45.73 17.556 45.56 17.556 45.39 17.556ZM46.58 16.464C46.495 16.548 46.41 16.548 46.325 16.632C46.155 16.632 46.07 16.464 46.155 16.38C46.24 16.296 46.41 16.464 46.41 16.548C46.495 16.464 46.495 16.38 46.58 16.296V16.464ZM51.68 12.432C51.68 12.432 51.765 12.348 51.68 12.432C51.765 12.348 51.68 12.348 51.68 12.432ZM47.175 15.288H47.26C47.26 15.288 47.175 15.288 47.175 15.204V15.288Z" fill="#CACACA"/>
<path d="M52.36 11.844C52.615 11.844 52.785 11.592 52.955 11.592C52.785 11.76 52.53 11.928 52.19 11.928V12.18H51.85C51.85 12.264 51.765 12.264 51.765 12.348C51.765 12.6 51.595 12.684 51.425 12.768V13.02C51.34 12.936 51.255 12.936 51.17 12.936C51 13.02 50.915 13.104 50.83 13.188C50.745 13.188 50.66 13.272 50.66 13.272V13.44C50.32 13.776 49.895 13.944 49.555 14.28L49.47 14.112V14.616H49.045C49.045 14.532 49.13 14.364 49.13 14.196C48.875 14.532 48.535 14.7 48.195 15.036C47.94 15.288 47.6 15.54 47.345 15.792C47.515 15.792 47.685 15.708 47.855 15.708L48.11 15.96C48.11 15.876 48.195 15.708 48.195 15.624H47.94C48.195 15.288 48.365 14.952 48.705 14.7C48.875 14.784 48.96 14.868 49.045 14.868C48.875 15.204 48.535 15.372 48.28 15.624C48.45 15.624 48.705 15.708 48.875 15.708C48.96 15.708 48.96 15.54 48.96 15.54C49.13 15.288 49.385 15.204 49.725 15.204C49.555 15.204 49.385 15.12 49.215 15.12C49.215 15.036 49.13 14.868 49.13 14.868C49.385 14.7 49.64 14.532 49.98 14.532C50.065 14.616 50.15 14.7 50.15 14.784C50.235 14.616 50.32 14.364 50.405 14.112C50.49 14.196 50.49 14.28 50.575 14.364C50.66 14.364 50.745 14.28 50.745 14.28V14.616C50.745 14.448 50.83 14.364 50.83 14.28C51 14.364 51.085 14.448 51.255 14.532C51.085 14.28 51 14.028 51 13.692C51.085 13.776 51.17 13.944 51.255 14.028V13.86C51.595 14.028 51.935 13.776 52.275 13.692C52.02 13.608 51.765 13.692 51.51 13.692C51.68 13.356 51.68 13.104 51.51 12.768C51.68 12.684 51.85 12.6 52.02 12.6C52.02 12.516 52.105 12.432 52.105 12.432C52.36 12.432 52.53 12.516 52.7 12.516C52.87 12.432 52.955 12.348 53.125 12.264C53.21 12.264 53.38 12.348 53.465 12.348V11.76H53.635C53.55 11.676 53.55 11.508 53.465 11.424H53.72V11.34C53.635 11.34 53.55 11.256 53.465 11.256C53.04 11.256 52.36 11.256 52.36 11.844Z" fill="#CACACA"/>
<path d="M53.72 11.3399H53.805C53.805 11.2559 53.72 11.1719 53.72 11.1719C53.805 11.1719 53.72 11.2559 53.72 11.3399ZM54.06 11.2559V11.4239H54.145C54.4 11.4239 54.57 11.3399 54.74 11.2559C54.485 11.2559 54.315 11.3399 54.06 11.2559ZM56.61 10.9199C56.44 10.8359 56.185 10.7519 55.93 10.6679L55.675 10.9199C55.675 10.8359 55.59 10.6679 55.59 10.6679C55.505 10.7519 55.42 10.7519 55.335 10.7519V10.3319C55.165 10.3319 54.995 10.4159 54.825 10.3319C54.74 10.4999 54.57 10.5839 54.4 10.5839H54.315V10.2479H54.06C54.06 10.2479 54.06 10.4159 54.57 11.0039L54.74 10.9199V11.2559C54.825 11.3399 54.995 11.3399 55.08 11.3399V10.7519C55.165 10.7519 55.25 10.8359 55.25 10.8359C55.25 11.0879 55.25 11.3399 55.335 11.6759H55.675C55.59 11.5919 55.59 11.4239 55.59 11.3399C55.93 11.1719 56.27 11.0039 56.61 10.9199ZM50.235 12.8519L50.15 13.0199C50.065 13.0199 49.895 13.1039 49.725 13.1039V13.4399L50.235 13.1879V12.9359H50.745V13.0199C50.745 12.9359 50.83 12.9359 50.83 12.9359C50.915 12.7679 50.915 12.6839 50.915 12.5159C50.83 12.4319 50.66 12.3479 50.575 12.2639C50.405 12.3479 50.235 12.4319 50.15 12.5159C50.15 12.5999 50.235 12.7679 50.235 12.8519ZM49.64 13.1879H49.385V13.4399C49.215 13.5239 49.13 13.6919 49.13 13.7759C49.045 13.7759 48.96 13.8599 48.875 13.8599C48.875 13.7759 48.96 13.6079 49.045 13.5239C48.96 13.6079 48.79 13.6919 48.62 13.6919C48.705 13.7759 48.705 13.9439 48.705 14.0279C48.62 14.1119 48.45 14.1959 48.28 14.2799C48.025 14.4479 47.94 14.7839 47.6 14.9519V14.6159C47.515 14.6159 47.43 14.6999 47.345 14.6999H47.26C47.345 14.7839 47.43 14.9519 47.515 15.0359C47.345 15.1199 47.26 15.1199 47.175 15.1199C47.26 15.1199 47.345 15.2039 47.345 15.2879H47.26C47.43 15.3719 47.6 15.2879 47.685 15.1199H48.025C48.195 14.8679 48.45 14.6999 48.62 14.5319C48.79 14.3639 49.13 14.1959 49.3 13.9439V13.7759C49.47 13.6919 49.555 13.6079 49.725 13.5239C49.725 13.5239 49.64 13.4399 49.555 13.4399C49.555 13.3559 49.64 13.2719 49.64 13.1879ZM51.085 11.8439C50.915 11.8439 50.83 11.9279 50.745 12.0119C50.66 12.0119 50.575 12.0959 50.49 12.0959V12.1799C50.745 12.1799 51 12.3479 51.17 12.5999C51.34 12.5159 51.51 12.4319 51.68 12.4319C51.51 12.1799 51.425 11.8439 51.085 11.8439Z" fill="#CACACA"/>
<path d="M50.575 12.2639V12.1799H50.49C50.49 12.1799 50.49 12.2639 50.575 12.2639ZM28.56 21.6719C28.39 21.5879 28.305 21.5039 28.22 21.4199C28.475 21.1679 28.815 21.1679 29.07 20.9999C29.495 20.8319 29.665 20.4119 30.09 20.3279V20.1599C30.26 20.0759 30.43 19.9919 30.6 19.9919C31.025 19.9079 31.365 19.7399 31.79 19.7399L31.875 19.6559H32.13C32.3 19.7399 32.47 19.8239 32.555 19.9079C32.555 19.6559 32.47 19.4879 32.385 19.3199C32.13 19.4039 31.875 19.4039 31.62 19.4039C31.705 19.3199 31.79 19.2359 31.79 19.1519C31.62 19.0679 31.45 18.8159 31.45 18.6479H31.195C31.28 18.4799 31.365 18.3119 31.365 18.1439C31.195 18.0599 31.025 17.9759 30.94 17.9759V17.7239H30.685V17.5559H30.855C30.855 17.4719 30.94 17.3879 30.94 17.3039C31.025 17.3039 31.28 17.2199 31.365 17.1359H31.025V16.9679C31.11 16.9679 31.195 16.8839 31.28 16.8839C31.195 16.7999 31.025 16.7999 31.025 16.7999V16.5479C30.94 16.3799 30.77 16.2119 30.77 16.0439H31.025C31.025 15.8759 30.94 15.6239 30.77 15.5399C30.855 15.4559 30.77 15.2879 30.77 15.1199C30.6 15.0359 30.515 14.8679 30.43 14.7839C30.515 15.0359 30.6 15.2039 30.685 15.3719V16.3799C30.43 16.0439 30.09 15.7079 30.005 15.2879H29.75C29.665 15.2039 29.58 15.1199 29.58 15.0359V15.2039C29.41 15.0359 29.24 14.8679 29.325 14.6999C29.155 14.3639 28.815 14.1959 28.56 13.9439C28.39 13.9439 28.135 14.0279 27.965 14.1119C28.135 14.1119 28.305 14.1959 28.475 14.2799C28.22 14.3639 28.05 14.2799 27.88 14.1959C27.965 14.0279 27.965 13.8599 27.965 13.7759C27.88 13.8599 27.71 13.9439 27.54 13.9439L27.795 13.6919L27.285 13.4399V13.7759C27.2 13.6079 27.2 13.3559 27.03 13.3559C26.775 13.2719 26.775 13.6079 26.775 13.7759C26.86 14.0279 27.2 14.2799 27.71 14.8679C27.795 14.8679 27.88 14.9519 27.88 14.9519C27.795 15.2039 27.625 15.4559 27.54 15.7079C27.625 15.7079 27.71 15.7919 27.71 15.8759C27.795 16.2119 27.88 16.4639 27.965 16.7999C28.135 16.8839 28.22 16.8839 28.305 16.8839C28.305 16.9679 28.22 17.0519 28.22 17.0519C28.05 17.1359 27.965 17.1359 27.88 17.1359C27.88 17.4719 27.795 17.7239 27.625 17.9759C27.71 18.1439 27.88 18.2279 27.965 18.3959C27.88 18.5639 27.71 18.6479 27.54 18.7319V18.9839C27.455 19.1519 27.285 19.3199 27.2 19.4039C26.945 19.4879 26.775 19.4879 26.605 19.6559C26.435 19.9079 26.35 20.1599 26.265 20.4119C26.095 20.7479 25.84 21.1679 25.84 21.5879L25.755 21.6719V22.0919C26.095 22.0079 26.435 21.8399 26.605 21.5039C26.69 21.2519 27.03 21.3359 27.2 21.4199C27.115 21.5879 27.2 21.8399 27.2 22.0079C27.37 22.1759 27.625 22.2599 27.795 22.3439V22.0919C27.71 22.0079 27.625 21.9239 27.54 21.9239L28.56 21.6719ZM46.665 17.8079V17.3879C46.665 17.4719 46.58 17.5559 46.58 17.5559C46.58 17.5559 46.495 17.5559 46.325 17.6399L46.24 17.8079C46.41 17.8079 46.58 17.9759 46.665 17.8079ZM35.7 17.8079C35.36 17.7239 35.36 18.2279 35.02 18.3959C34.765 18.5639 34.425 18.6479 34.255 18.9839C33.915 19.2359 33.66 19.5719 33.32 19.8239C33.235 19.9079 33.15 19.9079 33.15 19.9079C32.895 19.9919 32.64 20.1599 32.725 20.4959L32.895 20.3279H32.98C33.065 20.2439 33.065 20.1599 33.065 20.0759H33.405C33.83 19.5719 34.51 19.1519 35.02 18.6479C35.36 18.2279 35.955 18.0599 36.295 17.6399V17.8079C36.38 17.6399 36.38 17.4719 36.38 17.3879V17.3039C36.04 17.2199 35.87 17.5559 35.7 17.8079Z" fill="#CACACA"/>
<path d="M31.45 17.7239C31.62 17.7239 31.45 17.3879 31.28 17.3879C31.195 17.5559 31.28 17.6399 31.45 17.7239ZM46.835 17.9759C46.665 17.9759 46.495 17.9759 46.325 18.0599C46.155 18.2279 45.985 18.3959 45.815 18.4799H45.645C45.56 18.3959 45.56 18.2279 45.56 18.2279C45.56 18.3119 45.475 18.3119 45.475 18.3119C45.645 18.7319 45.135 18.9839 44.88 19.1519C44.795 19.0679 44.795 18.8999 44.71 18.8999C44.625 19.0679 44.625 19.1519 44.625 19.2359C44.285 19.4039 43.86 19.5719 43.86 19.9919C43.69 19.9919 43.52 20.0759 43.35 20.1599C43.435 20.4119 43.095 20.5799 43.01 20.8319C43.775 20.4119 44.37 19.6559 45.135 19.2359C45.73 18.8159 46.24 18.2279 46.92 18.0599C46.92 17.8919 47.005 17.8079 46.92 17.6399C46.92 17.7239 46.835 17.8919 46.835 17.9759ZM31.79 23.0159L31.705 23.0999H31.875L31.79 23.0159ZM31.705 22.9319C31.79 23.0159 31.875 22.9319 31.875 22.9319H31.705Z" fill="#CACACA"/>
<path d="M34.765 24.5279L34.85 24.4439C34.68 24.2759 34.51 24.1919 34.34 24.0239C34.34 24.1079 34.255 24.1079 34.255 24.1079L34.085 23.9399C33.66 24.0239 33.49 24.3599 33.065 24.5279V24.2759C32.725 24.0239 32.385 23.7719 32.045 23.6039C31.96 23.4359 31.79 23.2679 31.705 23.0999C31.62 23.0999 31.535 23.1839 31.45 23.1839V22.8479C31.28 22.9319 31.11 23.0159 30.94 23.0159C30.77 22.9319 30.515 22.8479 30.345 22.8479H30.26C30.345 22.9319 30.515 22.9319 30.6 22.9319C30.515 23.0999 30.175 23.0999 30.005 23.0999C30.005 23.2679 29.92 23.5199 29.92 23.6879C30.175 23.8559 30.345 24.1079 30.515 24.2759C30.43 24.3599 30.26 24.4439 30.175 24.5279C30.175 24.4439 30.09 24.3599 30.09 24.2759C30.005 24.4439 30.09 24.7799 29.835 24.7799C29.58 24.6959 29.58 24.3599 29.58 24.1079C29.325 24.1079 29.07 24.1079 28.985 24.3599H29.41L29.155 24.6119C29.07 24.5279 28.985 24.5279 28.985 24.5279C28.985 24.6119 28.815 24.6119 28.815 24.6119C28.985 24.6959 29.07 24.7799 29.24 24.8639C29.07 24.9479 28.985 25.0319 28.9 25.0319C28.985 25.2839 29.24 25.5359 29.58 25.5359L29.835 25.2839C29.75 25.1159 29.665 24.9479 29.665 24.7799C29.92 24.7799 30.26 24.7799 30.515 24.8639C30.345 24.8639 30.26 24.9479 30.09 24.9479V25.1999C30.26 25.1999 30.345 25.1999 30.43 25.2839L30.515 25.1999V25.3679C30.515 25.4519 30.43 25.5359 30.345 25.6199C30.6 25.6199 30.77 25.5359 30.94 25.7039C30.685 25.7879 30.515 25.8719 30.345 26.0399C30.345 25.9559 30.26 25.8719 30.26 25.7879C30.09 25.8719 30.005 25.9559 29.92 26.0399H29.58C29.665 26.1239 29.75 26.2079 29.75 26.2919C29.495 26.2919 29.41 26.4599 29.41 26.6279C29.58 26.5439 29.835 26.4599 30.005 26.4599C30.09 26.2079 30.345 26.1239 30.6 26.0399C30.515 26.2079 30.43 26.3759 30.26 26.5439C30.6 26.5439 30.685 26.8799 30.685 27.1319C30.855 27.1319 31.025 27.2159 31.11 27.2159C31.28 27.1319 31.45 26.9639 31.535 26.7959H31.705C31.705 26.7119 31.79 26.4599 31.875 26.3759C32.045 26.2079 32.3 26.4599 32.47 26.6279C32.47 26.5439 32.555 26.5439 32.64 26.5439C32.64 26.6279 32.725 26.6279 32.725 26.6279V26.3759C32.81 26.4599 32.98 26.4599 33.065 26.4599L32.81 26.7119H33.15V26.5439H33.405C33.405 26.4599 33.49 26.3759 33.49 26.2919C33.49 26.2079 33.405 26.1239 33.32 26.0399C32.98 26.2919 32.555 26.2919 32.13 26.2919C32.13 26.2079 32.215 26.1239 32.215 26.1239C32.725 26.1239 32.98 25.7879 33.32 25.6199V25.7879C33.405 25.7879 33.49 25.7039 33.575 25.7039V25.4519C33.49 25.4519 33.32 25.3679 33.32 25.3679C33.32 25.2839 33.235 25.1999 33.235 25.1999C32.98 25.1159 32.725 25.0319 32.385 25.1159V24.8639C32.555 24.6959 32.725 24.6119 32.895 24.5279V24.7799C33.065 24.8639 33.235 24.8639 33.32 24.9479C33.32 24.8639 33.405 24.7799 33.49 24.7799C33.66 24.9479 33.915 25.1159 34.085 25.2839C34.17 25.4519 34.17 25.7039 34.17 25.8719H33.83V26.0399H33.575C33.66 26.1239 33.745 26.2079 33.745 26.2919C33.745 26.3759 33.66 26.4599 33.66 26.4599C33.745 26.6279 33.83 26.7119 33.915 26.7959C33.83 26.6279 33.83 26.5439 33.83 26.3759C33.915 26.4599 34 26.4599 34.085 26.5439C34.17 26.3759 34.34 26.2079 34.51 26.0399C34.425 25.9559 34.34 25.8719 34.34 25.7879C34.595 25.7039 34.765 25.6199 34.935 25.6199C34.85 25.5359 34.68 25.4519 34.595 25.3679V25.0319C34.68 25.0319 34.765 25.1999 34.765 25.1999L34.85 25.1159C34.935 25.1159 34.935 25.1999 34.935 25.2839C35.02 25.1159 35.19 25.0319 35.105 24.8639C35.02 24.6959 34.85 24.6119 34.765 24.5279ZM31.96 22.7639C31.96 22.8479 31.875 22.8479 31.875 22.9319H31.96V22.7639ZM32.385 22.1759V22.0079C32.385 22.0919 32.3 22.1759 32.215 22.1759C32.215 22.0919 32.13 22.0079 32.045 22.0079C32.045 22.0919 32.045 22.2599 31.96 22.7639C32.045 22.5959 32.13 22.4279 32.13 22.2599C32.215 22.2599 32.385 22.1759 32.385 22.1759Z" fill="#CACACA"/>
</svg>
