<svg width="120" height="37" viewBox="0 0 120 37" fill="none" xmlns="http://www.w3.org/2000/svg">
<path d="M4.665 26.14V26.644L3.645 26.896C3.56 26.896 3.305 26.98 3.305 27.4V30.592H8.065V27.4C8.065 26.98 7.81 26.896 7.725 26.896L6.705 26.644V26.14H10.87V26.644L9.85 26.896C9.765 26.896 9.51 26.98 9.51 27.4V35.212C9.51 35.632 9.765 35.716 9.85 35.716L10.87 35.968V36.472H6.705V35.968L7.725 35.716C7.81 35.716 8.065 35.632 8.065 35.212V31.432H3.305V35.212C3.305 35.632 3.56 35.716 3.645 35.716L4.665 35.968V36.472H0.5V35.968L1.52 35.716C1.605 35.716 1.86 35.632 1.86 35.212V27.4C1.86 26.98 1.605 26.896 1.52 26.896L0.5 26.644V26.14H4.665ZM20.39 27.316C19.37 26.224 18.095 25.972 16.99 25.972C15.885 25.972 14.61 26.224 13.59 27.232C12.655 28.24 12.23 29.836 12.23 31.264C12.23 32.692 12.655 34.288 13.59 35.296C14.61 36.388 15.885 36.556 16.99 36.556C18.095 36.556 19.37 36.304 20.39 35.296C21.325 34.288 21.75 32.692 21.75 31.264C21.75 29.836 21.325 28.324 20.39 27.316V27.316ZM19.455 34.54C18.945 35.38 18.18 35.968 16.99 35.968C15.8 35.968 15.035 35.464 14.525 34.54C14.015 33.7 13.845 32.44 13.845 31.348C13.845 30.256 14.1 28.996 14.525 28.156C15.035 27.316 15.8 26.728 16.99 26.728C18.18 26.728 18.945 27.232 19.455 28.156C19.965 28.996 20.135 30.256 20.135 31.348C20.22 32.44 19.965 33.7 19.455 34.54ZM30.59 31.432C30.25 31.096 29.655 30.844 29.06 30.76C29.485 30.592 29.995 30.34 30.335 30.004C30.675 29.584 30.93 28.996 30.93 28.492C30.93 27.82 30.675 27.148 30.25 26.728C29.655 26.14 28.72 26.056 27.955 26.056C27.36 26.056 26.935 26.14 26.51 26.14C25.915 26.14 25.66 26.224 25.065 26.224H23.195V26.728L24.215 26.98C24.3 26.98 24.555 27.064 24.555 27.484V35.296C24.555 35.716 24.3 35.8 24.215 35.8L23.195 36.052V36.556H27.87C28.805 36.556 29.91 36.304 30.59 35.716C31.1 35.296 31.525 34.624 31.525 33.532C31.44 32.356 31.015 31.768 30.59 31.432V31.432ZM26 26.98C26.425 26.812 26.85 26.728 27.36 26.728C27.785 26.728 28.38 26.728 28.89 27.232C29.23 27.484 29.4 27.988 29.4 28.576C29.4 29.164 29.145 29.668 28.805 30.004C28.21 30.508 27.53 30.592 27.02 30.592H26V26.98V26.98ZM29.315 35.044C28.72 35.632 27.955 35.716 27.275 35.716C26.765 35.716 26.34 35.632 26 35.464V31.264H27.615C28.04 31.264 28.89 31.348 29.4 31.936C29.74 32.356 29.91 32.944 29.91 33.532C29.91 34.036 29.74 34.624 29.315 35.044V35.044ZM36.71 26.14V26.644L35.69 26.896C35.605 26.896 35.35 26.98 35.35 27.4V33.784L40.365 27.568V27.4C40.365 26.98 40.11 26.896 40.025 26.896L39.005 26.644V26.14H43.17V26.644L42.15 26.896C42.065 26.896 41.81 26.98 41.81 27.4V35.212C41.81 35.632 42.065 35.716 42.15 35.716L43.17 35.968V36.472H39.005V35.968L40.025 35.716C40.11 35.716 40.365 35.632 40.365 35.212V28.744L35.35 34.96V35.212C35.35 35.632 35.605 35.716 35.69 35.716L36.71 35.968V36.472H32.545V35.968L33.565 35.716C33.65 35.716 33.905 35.632 33.905 35.212V27.4C33.905 26.98 33.65 26.896 33.565 26.896L32.545 26.644V26.14H36.71V26.14ZM62.635 27.316C61.615 26.224 60.34 25.972 59.235 25.972C58.13 25.972 56.855 26.224 55.835 27.232C54.9 28.24 54.475 29.836 54.475 31.264C54.475 32.692 54.9 34.288 55.835 35.296C56.855 36.388 58.13 36.556 59.235 36.556C60.34 36.556 61.615 36.304 62.635 35.296C63.57 34.288 63.995 32.692 63.995 31.264C64.08 29.836 63.655 28.324 62.635 27.316V27.316ZM61.7 34.54C61.19 35.38 60.425 35.968 59.235 35.968C58.045 35.968 57.28 35.464 56.77 34.54C56.26 33.7 56.09 32.44 56.09 31.348C56.09 30.256 56.26 28.996 56.77 28.156C57.28 27.316 58.045 26.728 59.235 26.728C60.425 26.728 61.19 27.232 61.7 28.156C62.21 28.996 62.38 30.256 62.38 31.348C62.465 32.44 62.295 33.7 61.7 34.54ZM68.075 26.14C68.16 26.728 68.245 26.98 68.415 27.316L71.305 34.288L74.365 27.316C74.62 26.728 74.705 26.476 74.705 26.14H77.34V26.644L76.32 26.896C76.065 26.896 75.98 27.148 75.98 27.4L76.235 35.212C76.235 35.38 76.235 35.632 76.575 35.716L77.595 35.968V36.472H73.43V35.968L74.45 35.716C74.79 35.632 74.79 35.296 74.79 35.212L74.62 28.744L71.56 35.716C71.475 35.884 71.305 36.304 71.305 36.64H70.71C70.625 36.304 70.54 36.052 70.455 35.716L67.395 28.744L67.225 35.212C67.225 35.464 67.31 35.632 67.565 35.716L68.585 35.968V36.472H65.185V35.968L66.035 35.716C66.29 35.632 66.375 35.38 66.375 35.212L66.63 27.4C66.63 27.148 66.545 26.98 66.29 26.896L65.27 26.644V26.14H68.075V26.14ZM86.01 31.18C85.16 30.508 84.14 30.424 83.29 30.424C82.695 30.424 82.1 30.508 81.59 30.592V26.98H84.48C84.735 26.98 85.075 26.98 85.245 27.148C85.415 27.232 85.5 27.4 85.585 27.652L85.755 28.576H86.35V26.224H78.785V26.728L79.805 26.98C79.89 26.98 80.145 27.064 80.145 27.484V35.296C80.145 35.716 79.89 35.8 79.805 35.8L78.785 36.052V36.556H83.46C84.395 36.556 85.5 36.304 86.18 35.716C86.69 35.296 87.2 34.624 87.2 33.532C87.115 32.608 86.86 31.852 86.01 31.18V31.18ZM84.905 35.128C84.565 35.38 84.055 35.716 83.035 35.716C82.525 35.716 82.1 35.632 81.675 35.464V31.432C82.185 31.264 82.695 31.18 83.205 31.18C84.055 31.18 84.65 31.432 84.905 31.768C85.33 32.104 85.585 32.776 85.585 33.532C85.585 34.204 85.245 34.792 84.905 35.128V35.128ZM96.975 35.632C96.805 35.464 96.635 35.212 96.55 35.044L93.15 26.644L92.895 25.888H92.3C92.215 26.14 92.215 26.308 92.045 26.56L88.9 34.792C88.815 34.96 88.73 35.212 88.56 35.38C88.39 35.548 88.135 35.632 87.965 35.716L87.625 35.8V36.304H90.685V35.8L90.005 35.632C89.835 35.632 89.75 35.38 89.75 35.296C89.75 35.212 89.75 35.128 89.835 34.876L90.685 32.524H94.085L95.02 34.876C95.105 34.96 95.105 35.128 95.105 35.212C95.105 35.464 94.935 35.548 94.765 35.548L94 35.716V36.22H97.655V35.716C97.315 35.884 97.06 35.8 96.975 35.632V35.632ZM90.94 31.936L92.3 28.24L93.745 31.936H90.94V31.936ZM102.67 26.14V26.644L101.65 26.896C101.565 26.896 101.31 26.98 101.31 27.4V30.592H106.07V27.4C106.07 26.98 105.815 26.896 105.73 26.896L104.71 26.644V26.14H108.875V26.644L107.855 26.896C107.77 26.896 107.515 26.98 107.515 27.4V35.212C107.515 35.632 107.77 35.716 107.855 35.716L108.875 35.968V36.472H104.71V35.968L105.73 35.716C105.815 35.716 106.07 35.632 106.07 35.212V31.432H101.31V35.212C101.31 35.632 101.565 35.716 101.65 35.716L102.67 35.968V36.472H98.505V35.968L99.525 35.716C99.61 35.716 99.865 35.632 99.865 35.212V27.4C99.865 26.98 99.61 26.896 99.525 26.896L98.505 26.644V26.14H102.67ZM52.775 35.8C53.03 35.884 53.88 35.968 53.88 35.968V36.472H50.905C50.905 36.388 50.82 35.8 50.65 35.464L49.8 33.364C49.375 32.272 48.865 31.6 47.675 31.6H47.25V35.296C47.25 35.716 47.505 35.8 47.59 35.8L48.61 36.052V36.556H44.445V36.052L45.465 35.8C45.55 35.8 45.805 35.716 45.805 35.296V27.4C45.805 26.98 45.55 26.896 45.465 26.896L44.445 26.644V26.14H48.61V26.644L47.59 26.896C47.505 26.896 47.25 26.98 47.25 27.4V30.76H47.845C48.1 30.76 48.44 30.76 48.78 30.508C49.035 30.34 49.205 30.004 49.46 29.5L50.225 27.736C50.395 27.316 50.65 26.812 50.99 26.392C51.33 26.056 51.67 25.888 52.095 25.888C52.775 25.888 53.285 26.308 53.285 26.896C53.285 27.316 52.945 27.736 52.52 27.736C52.095 27.736 52.095 27.4 51.755 27.4C51.5 27.4 51.33 27.568 51.16 27.736C51.075 27.82 50.99 27.988 50.82 28.408L50.225 29.836C49.97 30.34 49.715 30.844 49.12 31.096C49.8 31.18 50.31 31.516 50.65 31.852C50.82 32.104 51.075 32.44 51.5 33.364L52.435 35.38C52.35 35.464 52.52 35.716 52.775 35.8V35.8ZM118.395 35.8C118.65 35.884 119.5 35.968 119.5 35.968V36.472H116.525C116.525 36.388 116.44 35.8 116.27 35.464L115.42 33.364C114.995 32.272 114.485 31.6 113.295 31.6H112.785V35.296C112.785 35.716 113.04 35.8 113.125 35.8L114.145 36.052V36.556H109.98V36.052L111 35.8C111.085 35.8 111.34 35.716 111.34 35.296V27.4C111.34 26.98 111.085 26.896 111 26.896L109.98 26.644V26.14H114.145V26.644L113.125 26.896C113.04 26.896 112.785 26.98 112.785 27.4V30.76H113.38C113.635 30.76 113.975 30.76 114.315 30.508C114.57 30.34 114.74 30.004 114.995 29.5L115.76 27.736C115.93 27.316 116.1 26.812 116.525 26.392C116.865 26.056 117.205 25.888 117.63 25.888C118.31 25.888 118.82 26.308 118.82 26.896C118.82 27.316 118.48 27.736 118.055 27.736C117.63 27.736 117.63 27.316 117.29 27.316C117.035 27.316 116.865 27.484 116.695 27.652C116.61 27.736 116.525 27.904 116.27 28.324L115.675 29.752C115.42 30.256 115.165 30.76 114.57 31.012C115.25 31.096 115.76 31.432 116.1 31.768C116.27 32.02 116.525 32.356 116.95 33.28L117.885 35.296C117.97 35.464 118.14 35.716 118.395 35.8V35.8ZM13.165 20.092C14.44 20.26 16.225 19.168 18.435 16.732C20.05 14.968 21.58 13.12 22.94 11.188V19.42C22.855 20.344 22.005 21.016 20.985 21.016H5.09C6.365 19.924 7.64 18.328 8.83 16.48C10.02 14.632 10.275 14.128 11.125 12.28C11.465 12.196 12.485 11.86 13.165 11.608C12.315 13.372 11.38 15.64 11.295 16.9C11.125 18.832 11.89 20.008 13.165 20.092ZM8.575 13.204C8.575 13.204 7.045 16.144 5.94 17.488C5.345 18.244 2.965 21.94 1.35 20.764C-0.18 19.252 3.815 16.06 4.58 15.556C5.94 14.548 8.575 13.204 8.575 13.204ZM2.965 2.87202C1.52 4.04802 0.925 5.22402 0.925 5.22402V2.36802C0.925 1.36002 1.775 0.52002 2.88 0.52002H18.01C18.01 0.52002 17.16 0.604019 16.31 1.52802C15.8 2.03202 14.27 4.13202 12.57 3.71202C10.87 3.29202 11.21 1.86402 9.51 1.44402C7.81 1.02402 4.75 1.44402 2.965 2.87202V2.87202ZM18.69 1.94802C19.455 1.36002 19.2 0.68802 18.605 0.52002H20.985C21.835 0.52002 22.6 1.10802 22.855 1.86402C21.495 1.69602 19.285 2.53602 17.585 4.72002C15.8 6.90402 14.355 9.50802 14.355 9.50802C14.355 9.50802 12.995 9.92802 12.23 10.096C12.485 9.59202 13.42 7.74402 15.12 5.39202C16.565 3.37602 18.01 2.45202 18.69 1.94802V1.94802Z" fill="#CACACA"/>
</svg>
