<svg width="170" height="42" viewBox="0 0 170 42" fill="none" xmlns="http://www.w3.org/2000/svg">
<path d="M29.665 28.14V28.644L28.645 28.896C28.56 28.896 28.305 28.98 28.305 29.4V32.592H33.065V29.4C33.065 28.98 32.81 28.896 32.725 28.896L31.705 28.644V28.14H35.87V28.644L34.85 28.896C34.765 28.896 34.51 28.98 34.51 29.4V37.212C34.51 37.632 34.765 37.716 34.85 37.716L35.87 37.968V38.472H31.705V37.968L32.725 37.716C32.81 37.716 33.065 37.632 33.065 37.212V33.432H28.305V37.212C28.305 37.632 28.56 37.716 28.645 37.716L29.665 37.968V38.472H25.5V37.968L26.52 37.716C26.605 37.716 26.86 37.632 26.86 37.212V29.4C26.86 28.98 26.605 28.896 26.52 28.896L25.5 28.644V28.14H29.665ZM45.39 29.316C44.37 28.224 43.095 27.972 41.99 27.972C40.885 27.972 39.61 28.224 38.59 29.232C37.655 30.24 37.23 31.836 37.23 33.264C37.23 34.692 37.655 36.288 38.59 37.296C39.61 38.388 40.885 38.556 41.99 38.556C43.095 38.556 44.37 38.304 45.39 37.296C46.325 36.288 46.75 34.692 46.75 33.264C46.75 31.836 46.325 30.324 45.39 29.316ZM44.455 36.54C43.945 37.38 43.18 37.968 41.99 37.968C40.8 37.968 40.035 37.464 39.525 36.54C39.015 35.7 38.845 34.44 38.845 33.348C38.845 32.256 39.1 30.996 39.525 30.156C40.035 29.316 40.8 28.728 41.99 28.728C43.18 28.728 43.945 29.232 44.455 30.156C44.965 30.996 45.135 32.256 45.135 33.348C45.22 34.44 44.965 35.7 44.455 36.54ZM55.59 33.432C55.25 33.096 54.655 32.844 54.06 32.76C54.485 32.592 54.995 32.34 55.335 32.004C55.675 31.584 55.93 30.996 55.93 30.492C55.93 29.82 55.675 29.148 55.25 28.728C54.655 28.14 53.72 28.056 52.955 28.056C52.36 28.056 51.935 28.14 51.51 28.14C50.915 28.14 50.66 28.224 50.065 28.224H48.195V28.728L49.215 28.98C49.3 28.98 49.555 29.064 49.555 29.484V37.296C49.555 37.716 49.3 37.8 49.215 37.8L48.195 38.052V38.556H52.87C53.805 38.556 54.91 38.304 55.59 37.716C56.1 37.296 56.525 36.624 56.525 35.532C56.44 34.356 56.015 33.768 55.59 33.432ZM51 28.98C51.425 28.812 51.85 28.728 52.36 28.728C52.785 28.728 53.38 28.728 53.89 29.232C54.23 29.484 54.4 29.988 54.4 30.576C54.4 31.164 54.145 31.668 53.805 32.004C53.21 32.508 52.53 32.592 52.02 32.592H51V28.98ZM54.315 37.044C53.72 37.632 52.955 37.716 52.275 37.716C51.765 37.716 51.34 37.632 51 37.464V33.264H52.615C53.04 33.264 53.89 33.348 54.4 33.936C54.74 34.356 54.91 34.944 54.91 35.532C54.91 36.036 54.74 36.624 54.315 37.044ZM61.71 28.14V28.644L60.69 28.896C60.605 28.896 60.35 28.98 60.35 29.4V35.784L65.365 29.568V29.4C65.365 28.98 65.11 28.896 65.025 28.896L64.005 28.644V28.14H68.17V28.644L67.15 28.896C67.065 28.896 66.81 28.98 66.81 29.4V37.212C66.81 37.632 67.065 37.716 67.15 37.716L68.17 37.968V38.472H64.005V37.968L65.025 37.716C65.11 37.716 65.365 37.632 65.365 37.212V30.744L60.35 36.96V37.212C60.35 37.632 60.605 37.716 60.69 37.716L61.71 37.968V38.472H57.545V37.968L58.565 37.716C58.65 37.716 58.905 37.632 58.905 37.212V29.4C58.905 28.98 58.65 28.896 58.565 28.896L57.545 28.644V28.14H61.71ZM87.635 29.316C86.615 28.224 85.34 27.972 84.235 27.972C83.13 27.972 81.855 28.224 80.835 29.232C79.9 30.24 79.475 31.836 79.475 33.264C79.475 34.692 79.9 36.288 80.835 37.296C81.855 38.388 83.13 38.556 84.235 38.556C85.34 38.556 86.615 38.304 87.635 37.296C88.57 36.288 88.995 34.692 88.995 33.264C89.08 31.836 88.655 30.324 87.635 29.316ZM86.7 36.54C86.19 37.38 85.425 37.968 84.235 37.968C83.045 37.968 82.28 37.464 81.77 36.54C81.26 35.7 81.09 34.44 81.09 33.348C81.09 32.256 81.26 30.996 81.77 30.156C82.28 29.316 83.045 28.728 84.235 28.728C85.425 28.728 86.19 29.232 86.7 30.156C87.21 30.996 87.38 32.256 87.38 33.348C87.465 34.44 87.295 35.7 86.7 36.54ZM93.075 28.14C93.16 28.728 93.245 28.98 93.415 29.316L96.305 36.288L99.365 29.316C99.62 28.728 99.705 28.476 99.705 28.14H102.34V28.644L101.32 28.896C101.065 28.896 100.98 29.148 100.98 29.4L101.235 37.212C101.235 37.38 101.235 37.632 101.575 37.716L102.595 37.968V38.472H98.43V37.968L99.45 37.716C99.79 37.632 99.79 37.296 99.79 37.212L99.62 30.744L96.56 37.716C96.475 37.884 96.305 38.304 96.305 38.64H95.71C95.625 38.304 95.54 38.052 95.455 37.716L92.395 30.744L92.225 37.212C92.225 37.464 92.31 37.632 92.565 37.716L93.585 37.968V38.472H90.185V37.968L91.035 37.716C91.29 37.632 91.375 37.38 91.375 37.212L91.63 29.4C91.63 29.148 91.545 28.98 91.29 28.896L90.27 28.644V28.14H93.075ZM111.01 33.18C110.16 32.508 109.14 32.424 108.29 32.424C107.695 32.424 107.1 32.508 106.59 32.592V28.98H109.48C109.735 28.98 110.075 28.98 110.245 29.148C110.415 29.232 110.5 29.4 110.585 29.652L110.755 30.576H111.35V28.224H103.785V28.728L104.805 28.98C104.89 28.98 105.145 29.064 105.145 29.484V37.296C105.145 37.716 104.89 37.8 104.805 37.8L103.785 38.052V38.556H108.46C109.395 38.556 110.5 38.304 111.18 37.716C111.69 37.296 112.2 36.624 112.2 35.532C112.115 34.608 111.86 33.852 111.01 33.18ZM109.905 37.128C109.565 37.38 109.055 37.716 108.035 37.716C107.525 37.716 107.1 37.632 106.675 37.464V33.432C107.185 33.264 107.695 33.18 108.205 33.18C109.055 33.18 109.65 33.432 109.905 33.768C110.33 34.104 110.585 34.776 110.585 35.532C110.585 36.204 110.245 36.792 109.905 37.128ZM121.975 37.632C121.805 37.464 121.635 37.212 121.55 37.044L118.15 28.644L117.895 27.888H117.3C117.215 28.14 117.215 28.308 117.045 28.56L113.9 36.792C113.815 36.96 113.73 37.212 113.56 37.38C113.39 37.548 113.135 37.632 112.965 37.716L112.625 37.8V38.304H115.685V37.8L115.005 37.632C114.835 37.632 114.75 37.38 114.75 37.296C114.75 37.212 114.75 37.128 114.835 36.876L115.685 34.524H119.085L120.02 36.876C120.105 36.96 120.105 37.128 120.105 37.212C120.105 37.464 119.935 37.548 119.765 37.548L119 37.716V38.22H122.655V37.716C122.315 37.884 122.06 37.8 121.975 37.632ZM115.94 33.936L117.3 30.24L118.745 33.936H115.94ZM127.67 28.14V28.644L126.65 28.896C126.565 28.896 126.31 28.98 126.31 29.4V32.592H131.07V29.4C131.07 28.98 130.815 28.896 130.73 28.896L129.71 28.644V28.14H133.875V28.644L132.855 28.896C132.77 28.896 132.515 28.98 132.515 29.4V37.212C132.515 37.632 132.77 37.716 132.855 37.716L133.875 37.968V38.472H129.71V37.968L130.73 37.716C130.815 37.716 131.07 37.632 131.07 37.212V33.432H126.31V37.212C126.31 37.632 126.565 37.716 126.65 37.716L127.67 37.968V38.472H123.505V37.968L124.525 37.716C124.61 37.716 124.865 37.632 124.865 37.212V29.4C124.865 28.98 124.61 28.896 124.525 28.896L123.505 28.644V28.14H127.67ZM77.775 37.8C78.03 37.884 78.88 37.968 78.88 37.968V38.472H75.905C75.905 38.388 75.82 37.8 75.65 37.464L74.8 35.364C74.375 34.272 73.865 33.6 72.675 33.6H72.25V37.296C72.25 37.716 72.505 37.8 72.59 37.8L73.61 38.052V38.556H69.445V38.052L70.465 37.8C70.55 37.8 70.805 37.716 70.805 37.296V29.4C70.805 28.98 70.55 28.896 70.465 28.896L69.445 28.644V28.14H73.61V28.644L72.59 28.896C72.505 28.896 72.25 28.98 72.25 29.4V32.76H72.845C73.1 32.76 73.44 32.76 73.78 32.508C74.035 32.34 74.205 32.004 74.46 31.5L75.225 29.736C75.395 29.316 75.65 28.812 75.99 28.392C76.33 28.056 76.67 27.888 77.095 27.888C77.775 27.888 78.285 28.308 78.285 28.896C78.285 29.316 77.945 29.736 77.52 29.736C77.095 29.736 77.095 29.4 76.755 29.4C76.5 29.4 76.33 29.568 76.16 29.736C76.075 29.82 75.99 29.988 75.82 30.408L75.225 31.836C74.97 32.34 74.715 32.844 74.12 33.096C74.8 33.18 75.31 33.516 75.65 33.852C75.82 34.104 76.075 34.44 76.5 35.364L77.435 37.38C77.35 37.464 77.52 37.716 77.775 37.8ZM143.395 37.8C143.65 37.884 144.5 37.968 144.5 37.968V38.472H141.525C141.525 38.388 141.44 37.8 141.27 37.464L140.42 35.364C139.995 34.272 139.485 33.6 138.295 33.6H137.785V37.296C137.785 37.716 138.04 37.8 138.125 37.8L139.145 38.052V38.556H134.98V38.052L136 37.8C136.085 37.8 136.34 37.716 136.34 37.296V29.4C136.34 28.98 136.085 28.896 136 28.896L134.98 28.644V28.14H139.145V28.644L138.125 28.896C138.04 28.896 137.785 28.98 137.785 29.4V32.76H138.38C138.635 32.76 138.975 32.76 139.315 32.508C139.57 32.34 139.74 32.004 139.995 31.5L140.76 29.736C140.93 29.316 141.1 28.812 141.525 28.392C141.865 28.056 142.205 27.888 142.63 27.888C143.31 27.888 143.82 28.308 143.82 28.896C143.82 29.316 143.48 29.736 143.055 29.736C142.63 29.736 142.63 29.316 142.29 29.316C142.035 29.316 141.865 29.484 141.695 29.652C141.61 29.736 141.525 29.904 141.27 30.324L140.675 31.752C140.42 32.256 140.165 32.76 139.57 33.012C140.25 33.096 140.76 33.432 141.1 33.768C141.27 34.02 141.525 34.356 141.95 35.28L142.885 37.296C142.97 37.464 143.14 37.716 143.395 37.8ZM38.165 22.092C39.44 22.26 41.225 21.168 43.435 18.732C45.05 16.968 46.58 15.12 47.94 13.188V21.42C47.855 22.344 47.005 23.016 45.985 23.016H30.09C31.365 21.924 32.64 20.328 33.83 18.48C35.02 16.632 35.275 16.128 36.125 14.28C36.465 14.196 37.485 13.86 38.165 13.608C37.315 15.372 36.38 17.64 36.295 18.9C36.125 20.832 36.89 22.008 38.165 22.092ZM33.575 15.204C33.575 15.204 32.045 18.144 30.94 19.488C30.345 20.244 27.965 23.94 26.35 22.764C24.82 21.252 28.815 18.06 29.58 17.556C30.94 16.548 33.575 15.204 33.575 15.204ZM27.965 4.87202C26.52 6.04802 25.925 7.22402 25.925 7.22402V4.36802C25.925 3.36002 26.775 2.52002 27.88 2.52002H43.01C43.01 2.52002 42.16 2.60402 41.31 3.52802C40.8 4.03202 39.27 6.13202 37.57 5.71202C35.87 5.29202 36.21 3.86402 34.51 3.44402C32.81 3.02402 29.75 3.44402 27.965 4.87202ZM43.69 3.94802C44.455 3.36002 44.2 2.68802 43.605 2.52002H45.985C46.835 2.52002 47.6 3.10802 47.855 3.86402C46.495 3.69602 44.285 4.53602 42.585 6.72002C40.8 8.90402 39.355 11.508 39.355 11.508C39.355 11.508 37.995 11.928 37.23 12.096C37.485 11.592 38.42 9.74402 40.12 7.39202C41.565 5.37602 43.01 4.45202 43.69 3.94802Z" fill="#CACACA"/>
<path d="M34.68 12.852C32.045 13.608 27.88 15.792 26.01 18.144V10.08C26.69 11.088 27.54 11.676 28.645 11.928C30.09 12.18 31.45 12.012 32.725 11.34C33.32 11.004 33.83 10.668 34.255 10.164C35.19 9.24002 34.85 8.14802 34.085 7.89602C33.32 7.64402 32.555 8.14802 32.215 8.82002C31.79 9.40802 31.28 10.164 29.665 10.164C28.815 10.164 27.88 9.66002 27.625 8.48402C27.2 6.72002 29.495 4.87202 31.62 4.53602C35.02 4.03202 34.17 6.21602 35.785 7.30802C36.21 7.64402 37.23 7.98002 38.25 7.30802C37.655 8.06402 35.53 11.34 34.68 12.852ZM44.54 6.72002C45.56 5.62802 47.175 4.87202 47.855 5.62802C48.535 6.46802 46.495 8.06402 45.135 8.90402C43.86 9.74402 42.585 10.416 41.48 10.836C42.16 9.66002 43.775 7.56002 44.54 6.72002ZM45.05 10.752C45.815 10.248 47.09 9.24002 47.94 8.48402V11.676C47.345 12.432 43.775 16.296 42.33 17.64C39.865 19.908 38.165 19.572 38.845 17.22C39.27 15.792 39.78 14.448 40.46 13.188C41.31 12.768 43.435 11.844 45.05 10.752Z" fill="#CACACA"/>
</svg>
