<svg width="30" height="30" viewBox="0 0 30 30" fill="none" xmlns="http://www.w3.org/2000/svg">
<circle cx="15" cy="15" r="15" fill="#CEDDF1"/>
<path d="M20.9272 11.2993C20.4819 11.4963 20.0096 11.6257 19.526 11.6832C20.0357 11.3783 20.4172 10.8986 20.5994 10.3333C20.121 10.618 19.5966 10.8175 19.05 10.9254C18.6829 10.5326 18.1962 10.272 17.6658 10.1843C17.1353 10.0966 16.5907 10.1866 16.1166 10.4403C15.6425 10.6941 15.2656 11.0973 15.0443 11.5874C14.8231 12.0774 14.77 12.6269 14.8932 13.1502C13.9232 13.1016 12.9742 12.8495 12.1079 12.4104C11.2417 11.9712 10.4774 11.3548 9.86486 10.6011C9.64803 10.9735 9.53408 11.3969 9.53469 11.8278C9.53469 12.6737 9.96519 13.4209 10.6197 13.8584C10.2324 13.8462 9.85356 13.7416 9.51486 13.5533V13.5837C9.51498 14.147 9.70991 14.6929 10.0666 15.1289C10.4233 15.5649 10.9198 15.8642 11.4719 15.9759C11.1124 16.0733 10.7354 16.0877 10.3694 16.0179C10.5251 16.5028 10.8285 16.9269 11.2372 17.2307C11.6459 17.5346 12.1394 17.703 12.6485 17.7125C12.1425 18.1099 11.563 18.4037 10.9434 18.5771C10.3237 18.7504 9.67593 18.8 9.03711 18.7228C10.1523 19.44 11.4504 19.8207 12.7763 19.8195C17.2639 19.8195 19.7179 16.1019 19.7179 12.8778C19.7179 12.7728 19.715 12.6667 19.7104 12.5628C20.188 12.2176 20.6003 11.7899 20.9278 11.2999L20.9272 11.2993Z" fill="black"/>
</svg>
