<svg width="170" height="42" viewBox="0 0 170 42" fill="none" xmlns="http://www.w3.org/2000/svg">
<path d="M84.83 19.2359H87.465V25.5359H90.27V19.2359H92.82V16.7159H84.83V19.2359ZM133.025 19.8239H129.71V16.7159H126.905V25.5359H129.71V22.3439H133.025V25.5359H135.83V16.7159H133.025V19.8239ZM142.97 20.9159L146.795 16.7159H143.31L140.42 20.2439V16.7159H137.615V25.5359H140.42V21.9239L143.565 25.5359H147.05L142.97 20.9159ZM110.415 17.0519C109.31 17.0519 108.29 17.4719 107.695 18.3959C107.865 15.8759 109.565 15.5399 113.05 15.5399V12.9359C108.545 12.9359 104.89 13.8599 104.89 19.8239C104.89 24.1079 107.27 25.7039 109.735 25.7039C112.285 25.7039 114.24 23.9399 114.24 21.1679C114.325 18.7319 112.625 17.0519 110.415 17.0519V17.0519ZM109.65 23.4359C108.545 23.4359 107.78 22.6799 107.78 21.4199C107.78 20.1599 108.63 19.4039 109.65 19.4039C110.755 19.4039 111.52 20.1599 111.52 21.4199C111.52 22.6799 110.755 23.3519 109.65 23.4359ZM80.835 17.7239C80.24 17.0519 79.39 16.5479 78.285 16.5479C76.075 16.5479 74.205 18.3959 74.205 21.1679C74.205 23.8559 75.99 25.7879 78.285 25.7879C79.39 25.7879 80.24 25.3679 80.835 24.6119V25.5359H83.64V16.7159H80.92V17.7239H80.835ZM78.88 23.1839C77.775 23.1839 77.01 22.4279 77.01 21.1679C77.01 19.9079 77.86 19.1519 78.88 19.1519C79.9 19.1519 80.75 19.9079 80.75 21.1679C80.75 22.4279 79.9 23.1839 78.88 23.1839ZM71.74 16.7159H64.77L63.92 21.8399C63.835 22.4279 63.665 22.7639 63.495 23.0159H61.88V27.7199H64.685V25.5359H70.635V27.7199H73.44V23.0159H71.74V16.7159V16.7159ZM68.935 22.9319H66.3C66.47 22.6799 66.555 22.3439 66.64 21.9239L67.065 19.2359H68.935V22.9319ZM100.555 17.7239C99.96 17.0519 99.11 16.5479 98.005 16.5479C95.795 16.5479 94.01 18.3959 94.01 21.1679C94.01 23.8559 95.795 25.7879 98.09 25.7879C99.195 25.7879 100.045 25.3679 100.64 24.6119V25.5359H103.445V16.7159H100.64V17.7239H100.555ZM98.685 23.1839C97.58 23.1839 96.815 22.4279 96.815 21.1679C96.815 19.9079 97.665 19.1519 98.685 19.1519C99.79 19.1519 100.555 19.9079 100.555 21.1679C100.555 22.4279 99.705 23.1839 98.685 23.1839ZM122.4 17.7239C121.805 17.0519 120.955 16.5479 119.85 16.5479C117.64 16.5479 115.77 18.3959 115.77 21.1679C115.77 23.8559 117.555 25.7879 119.85 25.7879C120.955 25.7879 121.805 25.3679 122.4 24.6119V25.5359H125.205V16.7159H122.4V17.7239V17.7239ZM120.445 23.1839C119.34 23.1839 118.575 22.4279 118.575 21.1679C118.575 19.9079 119.425 19.1519 120.445 19.1519C121.55 19.1519 122.315 19.9079 122.315 21.1679C122.315 22.4279 121.55 23.1839 120.445 23.1839ZM32.64 22.0919C32.64 22.3439 32.555 22.5119 32.555 22.7639C32.555 22.8479 32.555 22.9319 32.47 23.0159H35.955V16.9679H33.405L32.64 22.0919V22.0919ZM45.73 19.0679C44.625 19.0679 43.86 19.8239 43.86 21.0839C43.86 22.3439 44.71 23.0999 45.73 23.0999C46.835 23.0999 47.6 22.3439 47.6 21.0839C47.6 19.8239 46.835 19.0679 45.73 19.0679Z" fill="#CACACA"/>
<path d="M49.385 4.19995H28.9C25.16 4.19995 22.1 7.22395 22.1 10.92V37.8H49.385C53.125 37.8 56.185 34.776 56.185 31.08V10.92C56.185 7.22395 53.125 4.19995 49.385 4.19995V4.19995ZM40.375 27.72H37.57V25.536H30.685V27.72H27.88V22.9319H29.495C29.665 22.6799 29.835 22.344 29.92 21.756L31.11 14.196H38.76V22.848H40.375V27.72ZM50.405 25.536H47.6V24.528C47.005 25.2 46.24 25.704 45.05 25.704C42.755 25.704 40.97 23.772 40.97 21.084C40.97 18.312 42.755 16.464 45.05 16.464C46.155 16.464 47.005 16.968 47.6 17.64V16.632H50.32V25.536H50.405Z" fill="#CACACA"/>
</svg>
