<svg width="170" height="42" viewBox="0 0 170 42" fill="none" xmlns="http://www.w3.org/2000/svg">
<path d="M31.1895 11.4484H23.704V12.0648H26.1033V24.299C26.1033 27.9503 25.0476 28.9935 22.7444 28.9935C21.8806 29.0884 21.1129 28.472 21.0169 27.6184V27.3339C21.0169 26.0062 20.921 25.2 19.7214 25.2C18.5218 25.2 18.3298 26.4329 18.3298 26.8123C18.3298 28.5193 19.0976 29.7997 22.5044 29.7997C26.5831 29.7997 28.7423 28.472 28.7423 23.9671V12.0648H31.2375L31.1895 11.4484ZM32.1492 26.9071C31.7654 26.9071 31.3814 27.0493 31.0935 27.3339C30.8056 27.6184 30.6617 27.9977 30.6617 28.3771C30.6617 28.7564 30.8056 29.1358 31.0935 29.3729C31.3814 29.6574 31.7654 29.7997 32.1492 29.7997C32.5331 29.7997 32.9169 29.6574 33.2048 29.3729C33.4927 29.0884 33.6367 28.7564 33.6367 28.3771C33.6367 27.571 33.0129 26.9545 32.1972 26.9545H32.1492V26.9071ZM48.7996 26.9071C48.0319 26.9071 47.3601 27.5236 47.3121 28.2823V28.3297C47.3121 28.709 47.504 29.0884 47.7919 29.3255C48.0798 29.61 48.4637 29.7523 48.8476 29.7523C49.2314 29.7523 49.6154 29.61 49.9033 29.3255C50.1912 29.0884 50.3351 28.709 50.3351 28.3297C50.3351 27.9503 50.1912 27.571 49.9033 27.2865C49.6154 27.002 49.2794 26.8597 48.8956 26.8597L48.7996 26.9071ZM43.6173 11.4484H36.2279V12.0648H38.3871V26.0062C38.4351 26.5752 38.3871 27.1442 38.1952 27.7132C38.0033 28.0925 37.6673 28.4245 37.2835 28.5193C36.8516 28.6616 36.3718 28.7565 35.8919 28.7565V29.3255H43.7133V28.7565C43.1854 28.7565 42.7056 28.709 42.2258 28.5668C41.7939 28.4245 41.4581 28.14 41.3141 27.7607C41.1702 27.3813 41.0742 27.002 41.1222 26.6225V21.7858H43.0895C48.7516 21.7858 50.3351 19.5571 50.3351 16.5697C50.3351 13.5823 49.3275 11.4484 43.6173 11.4484ZM42.5617 21.0745H41.0742V12.1597H42.4177C46.7843 12.1597 47.84 13.9142 47.84 16.7593C47.84 19.6045 46.1125 21.1693 42.6577 21.1693L42.5617 21.0745ZM73.7033 27.6657C73.5593 27.2864 73.5113 26.8596 73.5593 26.4329V12.0648H75.5266V11.4957H70.8722L65.2101 25.1051C65.2101 25.1525 65.1621 25.1999 65.1141 25.1999C65.0662 25.1999 65.0181 25.1525 64.9702 25.1051C64.9702 25.1051 59.1161 11.638 59.0681 11.4957H53.8858V12.0648H56.1412V27.1916C56.1412 27.5235 55.9972 27.808 55.8533 28.0925C55.6613 28.3771 55.3733 28.5667 55.0375 28.6616C54.7016 28.7564 54.3177 28.7564 53.9818 28.7564V29.3254H59.1161V28.7564C58.7802 28.7564 58.4923 28.709 58.2044 28.6142C57.8206 28.5193 57.5327 28.3296 57.2927 28.0451C57.1008 27.7606 57.0048 27.4761 56.9568 27.1442L56.9089 25.8639V13.9142H57.1968C57.1968 13.9142 63.8665 29.1357 63.8665 29.3254H64.4903L70.7762 14.0564H70.9202V26.338C70.9202 26.7648 70.8722 27.1916 70.7762 27.6184C70.6323 27.9977 70.3443 28.2822 70.0085 28.4245C69.5766 28.5667 69.1448 28.6616 68.7129 28.6616V29.2306H75.8625V28.6616C75.4306 28.6616 74.9508 28.5667 74.5189 28.4245C74.1351 28.2348 73.8472 27.9029 73.7033 27.5235V27.6657ZM83.3479 16.2377C79.5093 16.2377 77.1101 18.7035 77.1101 23.0661C77.1101 29.4677 82.1484 29.8471 83.252 29.8471C85.4114 29.8471 89.4897 28.5193 89.4897 22.9238C89.4421 18.5612 86.8505 16.2377 83.3479 16.2377ZM83.3 29.0409C80.421 29.0409 79.9891 27.6184 79.9891 23.1135C79.9891 19.6044 80.229 16.9489 83.3 16.9489C86.6108 16.9489 86.6592 19.6993 86.6592 22.8289C86.6592 27.4286 85.8432 29.0409 83.3 29.0409ZM99.4704 16.4274C97.1678 16.4274 96.4954 17.7551 95.8239 19.1302H95.6318C95.6318 19.1302 95.2961 17.1861 95.2 16.5697H90.7375V17.2335H93.1371V26.1009C93.1847 26.7174 93.0886 27.3339 92.8489 27.9029C92.6092 28.3297 92.0329 28.5667 91.1693 28.5667H90.7851V29.3729H98.175V28.5667H97.8393C96.8796 28.5667 96.4478 28.3771 96.2073 27.9502C95.9676 27.3812 95.8239 26.7174 95.92 26.1009V21.5012C95.92 19.9839 97.1193 18.1819 98.5108 18.1819C99.9507 18.1819 99.9507 20.4106 101.63 19.5097C102.494 18.988 102.302 16.4274 99.4704 16.4274ZM128.981 27.9978C128.165 27.9978 127.925 27.571 127.877 26.8598V19.8416C127.973 18.8933 127.637 17.8975 126.965 17.1862C126.294 16.5223 124.95 16.143 123.031 16.143C121.591 16.0481 120.199 16.3801 118.952 17.1388C118.232 17.5655 117.801 18.3716 117.801 19.1778C117.752 19.5098 117.897 19.8416 118.136 20.0788C118.376 20.2684 118.664 20.3633 118.952 20.3633C119.672 20.3633 120.103 19.9839 120.248 19.0355C120.248 18.4665 120.488 17.9449 120.823 17.5181C121.304 17.0913 121.975 16.8543 122.599 16.9491C123.319 16.8543 124.086 17.1388 124.566 17.7078C124.95 18.2768 125.094 18.8933 125.094 19.5571V21.7858C122.743 21.9755 117.128 22.4498 117.369 26.6226C117.56 28.3771 119.096 29.7048 120.872 29.6575C122.55 29.61 124.134 28.8513 125.19 27.5236C125.43 28.7091 126.485 29.5152 127.685 29.4678C129.413 29.4678 130.468 28.6143 130.564 26.5752H130.132C130.036 27.5236 129.46 27.9978 128.981 27.9978ZM125.094 26.6226V26.7649C124.326 27.6184 123.27 28.14 122.119 28.2823C121.015 28.3298 120.056 27.4762 120.008 26.3381V26.0536C120.008 23.6826 123.319 22.4971 125.142 22.4971L125.094 26.6226ZM144.144 27.9029C143.808 27.3339 143.664 26.6699 143.664 26.0061V20.2209C143.712 19.4622 143.568 18.7509 143.232 18.0871C142.944 17.5654 142.464 17.0912 141.936 16.8067C141.313 16.5222 140.641 16.3799 139.969 16.3799C138.194 16.3325 136.562 17.2809 135.747 18.8457H135.459L134.978 16.5222H130.996V17.1861H133.011V26.0061C133.011 26.5277 132.963 27.0019 132.868 27.5235C132.772 27.9029 132.484 28.2348 132.099 28.3297C131.764 28.4719 131.38 28.5193 130.996 28.5193V29.3254H137.378V28.5193C136.898 28.5667 136.418 28.3297 136.082 27.9977C135.794 27.4287 135.651 26.8122 135.747 26.1957V22.829C135.602 21.5961 135.794 20.3632 136.226 19.1777C136.754 18.2767 137.762 17.7077 138.818 17.7551C139.537 17.6602 140.257 18.0397 140.593 18.6561C140.928 19.6045 141.073 20.6477 141.024 21.6435V25.8164C141.073 26.338 141.073 26.8597 141.024 27.3812C140.977 27.7606 140.785 28.0925 140.449 28.2822C140.113 28.4719 139.777 28.5667 139.441 28.5667V29.3729H145.631V28.5667C144.863 28.4719 144.384 28.2822 144.144 27.9029ZM115.209 15.7162C114.777 15.9058 114.49 16.2852 114.441 16.712C114.345 17.2335 114.153 17.518 113.866 17.6129C113.578 17.7077 113.242 17.6603 112.954 17.5655C111.802 16.5697 110.267 16.0955 108.78 16.1903C106.14 16.0007 103.789 17.9448 103.597 20.5529V21.122C103.597 23.8723 104.653 25.1052 106.956 25.6268C107.1 25.6268 107.1 25.8165 106.956 25.8165C104.989 26.1484 103.261 26.7175 103.261 28.6142C103.261 29.5152 103.837 30.3213 104.7 30.6058C105.948 31.0325 107.244 31.2223 108.54 31.1748C109.547 31.1748 110.603 31.2223 111.61 31.3171C112.186 31.3645 112.762 31.5542 113.29 31.8862C113.722 32.2655 113.962 32.7871 113.914 33.3562C113.914 34.2571 113.338 35.0632 112.522 35.3952C111.419 35.9168 110.219 36.1539 109.019 36.1065C107.916 36.2013 106.764 35.9642 105.805 35.3952C105.228 34.9684 104.941 34.2571 105.132 33.5932C105.324 33.0716 105.037 32.4552 104.461 32.2655H104.317C103.885 32.218 103.454 32.4077 103.213 32.7397C103.022 33.0716 102.877 33.4984 102.926 33.9252C102.973 35.158 103.837 36.1539 105.085 36.391C106.236 36.7703 107.436 36.9125 108.635 36.9125C110.027 36.96 111.419 36.7229 112.714 36.1539C114.249 35.49 115.305 34.02 115.305 32.3603C115.354 31.5542 115.113 30.7955 114.681 30.1316C113.386 28.3771 111.563 28.6142 107.436 28.4245C105.469 28.4245 105.085 28.0925 105.085 27.5235C105.085 26.6225 105.805 26.2907 108.635 25.8639C111.466 25.4371 114.106 24.3939 114.106 21.0271C114.106 20.221 113.962 19.3675 113.578 18.6087C114.106 18.751 114.681 18.751 115.209 18.6087C115.689 18.4665 116.121 18.1345 116.361 17.7077C116.6 17.3758 116.697 16.9016 116.6 16.5223C116.361 15.811 115.881 15.5265 115.209 15.7162ZM108.827 25.0577C107.148 25.0577 106.14 24.4413 106.14 21.0745C106.14 18.7035 106.956 16.949 108.827 16.949C110.939 16.949 111.515 18.5613 111.515 21.0271C111.466 24.5362 110.363 25.0577 108.827 25.0577Z" fill="#CACACA"/>
</svg>
