<svg width="20" height="20" viewBox="0 0 20 20" fill="none" xmlns="http://www.w3.org/2000/svg">
<path d="M15.5285 14.2323L19.4545 18.1575L18.1575 19.4545L14.2323 15.5285C12.7718 16.6992 10.9552 17.336 9.08337 17.3334C4.52937 17.3334 0.833374 13.6374 0.833374 9.08337C0.833374 4.52937 4.52937 0.833374 9.08337 0.833374C13.6374 0.833374 17.3334 4.52937 17.3334 9.08337C17.336 10.9552 16.6992 12.7718 15.5285 14.2323ZM13.6896 13.5521C14.853 12.3558 15.5027 10.7521 15.5 9.08337C15.5 5.53771 12.6281 2.66671 9.08337 2.66671C5.53771 2.66671 2.66671 5.53771 2.66671 9.08337C2.66671 12.6281 5.53771 15.5 9.08337 15.5C10.7521 15.5027 12.3558 14.853 13.5521 13.6896L13.6896 13.5521Z" fill="#969696"/>
</svg>
