<svg width="170" height="42" viewBox="0 0 170 42" fill="none" xmlns="http://www.w3.org/2000/svg">
<g clip-path="url(#clip0_9_3273)">
<path d="M113.305 8.98801H106.165V9.57601H106.335C106.76 9.57601 107.1 9.74401 107.355 9.99601C107.61 10.248 107.78 10.584 107.78 11.004V17.136H100.47V12.768C100.47 11.508 100.555 10.248 100.64 8.98801H93.5V9.57601H93.67C94.095 9.57601 94.435 9.74401 94.69 9.99601C94.945 10.248 95.115 10.584 95.2 11.004V25.536C94.435 25.62 93.67 25.704 92.905 25.704C92.055 25.704 91.29 25.62 90.44 25.536C88.145 25.116 87.805 23.016 87.805 21.756V12.684C87.805 11.424 87.89 10.248 87.975 8.98801H80.835V9.57601H81.005C81.345 9.57601 81.77 9.74401 82.025 9.99601C82.28 10.248 82.45 10.584 82.535 11.004V20.832C82.535 22.68 83.13 26.628 88.145 27.384C89.675 27.636 91.29 27.72 92.905 27.72C95.455 27.72 98.005 27.636 100.47 27.468H100.64C100.555 26.208 100.47 24.948 100.47 23.688V19.152H107.78V23.688C107.78 24.948 107.695 26.208 107.61 27.468H113.22C113.135 26.208 113.05 24.948 113.05 23.688V12.768L113.305 8.98801ZM70.295 25.452C70.975 24.192 71.655 22.932 72.42 21.672L79.9 9.49202V8.98801H63.495V12.768H64.175C64.175 12.348 64.345 11.928 64.6 11.592C64.855 11.256 65.28 11.088 65.705 11.088H72.505C71.825 12.348 71.145 13.608 70.38 14.784L62.9 27.048V27.552H80.495V25.368C79.22 25.452 78.03 25.536 76.755 25.536H70.295V25.452ZM60.605 8.98801H53.21V9.66001H53.38C54.315 9.66001 55.08 10.416 55.08 11.34V23.688C55.08 24.948 54.995 26.208 54.91 27.468H60.52C60.435 26.208 60.35 24.948 60.35 23.688V12.768L60.605 8.98801ZM49.895 14.7C49.64 12.18 49.47 9.66001 49.3 7.14001H42.925C41.905 9.66001 40.885 12.18 39.78 14.7L38.335 18.06L36.805 14.7C35.7 12.18 34.595 9.66001 33.575 7.14001H25.245V7.81201C25.67 7.81201 26.095 7.98001 26.435 8.31601C26.775 8.65201 26.945 9.07202 26.945 9.49202C26.775 11.256 26.69 12.936 26.52 14.7L26.01 19.992C25.755 22.512 25.415 25.032 25.075 27.552H27.71C27.88 25.032 28.05 22.512 28.305 19.992L29.155 12.012C30.345 14.448 31.45 16.884 32.555 19.32L32.81 19.992C33.915 22.512 35.02 25.032 36.04 27.552H36.805C37.825 25.032 38.845 22.512 39.95 19.992L40.46 18.9L43.775 11.592L44.625 19.992C44.88 22.512 45.05 25.032 45.22 27.552H51.34C51 25.032 50.66 22.512 50.405 19.992L49.895 14.7ZM137.36 17.892C137.19 11.844 131.75 8.73601 126.395 8.73601C120.955 8.73601 115.43 11.928 115.43 18.228C115.43 24.528 120.955 27.72 126.395 27.72C131.835 27.72 137.36 24.528 137.36 18.228V17.892ZM126.395 25.704C122.23 25.704 120.785 21.672 120.785 18.228C120.785 14.784 122.23 10.752 126.395 10.752C130.56 10.752 132.005 14.784 132.005 18.228C132.005 21.672 130.56 25.704 126.395 25.704Z" fill="#CACACA"/>
<path d="M34.85 37.296C49.98 33.936 65.365 32.256 80.835 32.34C103.105 32.34 124.695 35.616 144.925 41.748C145.01 41.748 145.01 41.832 145.01 41.916C145.01 42 144.925 42.084 144.84 42C123.675 38.556 102.34 36.708 80.92 36.288C65.535 36.036 50.235 36.54 34.935 37.884C34.85 37.884 34.765 37.884 34.765 37.8C34.68 37.716 34.68 37.716 34.68 37.632V37.38C34.765 37.38 34.765 37.296 34.85 37.296Z" fill="#CACACA"/>
</g>
<defs>
<clipPath id="clip0_9_3273">
<rect width="170" height="42" fill="white"/>
</clipPath>
</defs>
</svg>
