<svg width="22" height="22" viewBox="0 0 22 22" fill="none" xmlns="http://www.w3.org/2000/svg">
<path d="M16.5284 15.2323L20.4545 19.1575L19.1574 20.4545L15.2322 16.5285C13.7717 17.6992 11.9551 18.336 10.0833 18.3334C5.52931 18.3334 1.83331 14.6374 1.83331 10.0834C1.83331 5.52937 5.52931 1.83337 10.0833 1.83337C14.6373 1.83337 18.3333 5.52937 18.3333 10.0834C18.336 11.9552 17.6992 13.7718 16.5284 15.2323ZM14.6896 14.5521C15.8529 13.3558 16.5026 11.7521 16.5 10.0834C16.5 6.53771 13.6281 3.66671 10.0833 3.66671C6.53765 3.66671 3.66665 6.53771 3.66665 10.0834C3.66665 13.6281 6.53765 16.5 10.0833 16.5C11.752 16.5027 13.3557 15.853 14.5521 14.6896L14.6896 14.5521V14.5521Z" fill="#C0C0C0"/>
</svg>
